{"glyphs":{"0":{"ha":694,"x_min":40,"x_max":646,"o":"m 318 -28 q 111 100 182 -28 q 40 475 40 227 q 123 835 40 712 q 367 958 206 958 q 575 842 505 958 q 646 503 646 727 q 563 107 646 242 q 318 -28 479 -28 l 318 -28 m 342 19 q 485 131 438 19 q 531 469 532 243 q 485 801 532 692 q 342 911 438 911 q 202 810 248 911 q 155 505 155 709 q 202 139 155 260 q 342 19 248 19 l 342 19 z "},"1":{"ha":694,"x_min":83,"x_max":579,"o":"m 300 168 l 300 833 q 294 847 300 843 q 279 848 288 851 l 264 842 q 106 767 197 813 l 94 767 l 83 829 q 243 891 177 863 q 399 964 309 920 l 417 958 l 417 958 l 417 168 q 431 65 417 86 q 500 41 445 44 l 579 37 l 579 -4 q 356 0 450 0 q 133 -4 262 0 l 133 37 l 214 41 q 286 65 272 44 q 300 168 300 86 z "},"2":{"ha":694,"x_min":22,"x_max":650,"o":"m 598 697 q 546 517 598 603 q 351 288 494 431 l 169 106 l 169 106 l 336 109 q 650 123 467 115 l 650 -5 q 336 0 468 0 q 22 -5 205 0 l 22 13 l 22 31 l 311 328 q 433 495 391 411 q 474 660 474 579 q 419 798 474 745 q 275 850 364 850 q 190 833 229 850 q 153 812 168 824 q 136 792 142 803 q 122 756 130 781 l 96 670 l 96 670 l 54 670 l 77 859 l 77 859 q 184 931 122 904 q 309 958 247 958 q 519 886 439 958 q 598 697 598 814 z "},"3":{"ha":694,"x_min":21,"x_max":642,"o":"m 467 699 q 420 818 467 772 q 300 864 374 864 q 199 838 248 864 q 144 795 165 820 q 133 778 138 788 q 121 745 128 768 l 104 692 l 104 692 l 61 692 l 102 863 l 102 863 q 200 932 138 907 q 334 958 262 958 q 512 898 441 958 q 583 748 583 839 q 484 564 583 656 q 425 517 454 536 l 425 517 q 567 467 514 505 q 642 306 642 412 q 518 75 642 178 q 241 -28 394 -28 q 155 -18 201 -28 q 73 9 109 -8 q 50 111 61 68 q 21 212 39 154 l 60 227 l 60 227 l 71 198 q 95 139 85 159 q 123 100 106 119 q 177 57 147 73 q 307 28 230 28 q 456 93 398 28 q 513 261 513 158 q 464 409 513 355 q 328 463 414 463 q 262 452 298 463 q 216 433 235 444 l 207 442 l 223 517 q 268 510 243 511 q 311 512 294 509 q 391 551 354 522 q 467 699 467 608 z "},"4":{"ha":694,"x_min":3,"x_max":658,"o":"m 390 249 l 14 249 l 8 266 l 3 283 l 396 927 l 499 964 l 515 958 q 509 880 512 928 q 507 793 507 833 l 507 341 l 507 341 l 544 341 q 615 342 583 341 q 654 346 647 344 l 654 244 q 615 248 647 246 q 544 249 583 249 l 507 249 l 507 249 l 507 168 q 519 64 507 85 q 585 41 532 43 l 658 37 l 658 -4 q 438 0 530 0 q 218 -4 346 0 l 218 37 l 302 41 q 375 65 361 44 q 390 168 390 86 l 390 249 l 390 249 m 390 341 l 390 341 l 390 829 l 390 829 l 390 829 l 252 608 q 94 341 182 494 l 94 341 l 390 341 z "},"5":{"ha":694,"x_min":18,"x_max":637,"o":"m 637 342 q 516 85 637 197 q 236 -28 394 -28 q 161 -19 201 -28 q 87 5 120 -10 q 56 98 71 60 q 18 189 42 137 l 55 210 l 55 210 l 109 111 q 135 74 123 85 q 168 56 147 62 l 203 43 q 283 35 233 35 q 457 99 393 35 q 522 273 522 163 q 462 455 522 385 q 307 526 402 526 q 210 503 254 526 q 132 436 165 480 l 104 445 q 115 701 113 593 q 112 949 117 806 q 119 957 112 957 q 359 952 258 952 q 599 957 460 952 l 607 950 l 607 842 l 600 835 l 359 836 l 178 843 l 178 843 l 167 547 l 167 547 q 202 572 185 562 q 357 617 275 617 q 564 545 489 617 q 637 342 637 472 z "},"6":{"ha":694,"x_min":45,"x_max":650,"o":"m 583 941 l 583 928 q 545 918 578 928 q 298 755 401 877 q 182 454 182 618 l 182 451 l 182 451 q 215 482 197 468 q 392 566 313 566 q 584 498 519 566 q 650 298 650 430 q 558 66 650 161 q 332 -28 467 -28 q 124 73 203 -28 q 45 338 45 174 q 196 758 45 582 q 533 958 330 914 l 583 941 m 174 311 q 220 96 174 172 q 352 19 267 19 q 484 81 437 19 q 531 254 531 142 q 484 424 531 363 q 352 485 437 485 q 222 437 271 485 q 174 311 174 390 z "},"7":{"ha":694,"x_min":61,"x_max":690,"o":"m 91 -4 l 77 9 q 180 181 106 62 q 357 465 263 317 q 538 777 473 646 l 566 837 l 566 837 l 195 837 q 133 820 147 837 q 113 741 118 804 l 106 663 l 62 663 q 68 810 68 748 q 61 957 68 871 l 61 957 q 375 951 243 951 q 690 957 507 951 l 690 939 l 690 920 q 620 790 685 909 q 465 509 554 671 q 336 264 397 385 q 264 112 298 190 q 219 -4 230 34 q 155 -1 182 -1 q 91 -4 128 -1 z "},"8":{"ha":694,"x_min":41,"x_max":644,"o":"m 77 711 q 156 885 77 812 q 343 958 234 958 q 538 902 468 958 q 608 749 608 847 q 539 608 608 676 q 434 532 496 565 l 434 532 q 584 437 534 492 q 644 280 644 372 q 550 63 644 154 q 325 -28 456 -28 q 117 41 192 -28 q 41 231 41 109 q 117 396 41 319 q 234 479 166 446 l 234 479 q 126 559 165 514 q 77 711 77 620 m 511 745 q 465 865 511 819 q 343 910 418 910 q 220 867 265 910 q 175 749 175 823 q 230 637 175 688 q 394 548 286 587 l 394 548 q 464 608 437 576 q 511 745 511 665 m 142 234 q 193 79 142 138 q 328 20 244 20 q 480 77 425 20 q 536 233 536 134 q 471 358 536 300 q 285 459 408 414 l 285 459 q 194 382 229 424 q 142 234 142 317 z "},"9":{"ha":694,"x_min":28,"x_max":635,"o":"m 83 -12 l 83 1 q 121 11 87 1 q 378 174 271 53 q 498 470 498 309 l 498 468 l 467 439 q 286 354 367 354 q 97 427 167 354 q 28 626 28 500 q 120 861 28 766 q 347 957 212 957 q 556 854 477 957 q 635 585 635 752 q 486 166 635 334 q 135 -29 353 16 l 83 -12 m 516 645 q 468 840 516 770 q 332 910 419 910 q 195 846 244 910 q 146 668 146 783 q 198 500 146 565 q 332 435 250 435 q 463 496 410 435 q 516 645 516 556 z "}," ":{"ha":347,"x_min":0,"x_max":0,"o":""},"!":{"ha":386,"x_min":113,"x_max":274,"o":"m 172 276 l 118 909 l 233 966 l 274 966 l 218 302 l 186 276 l 172 276 m 193 155 q 251 131 227 155 q 274 74 274 108 q 251 17 274 40 q 193 -7 227 -7 q 136 17 159 -7 q 113 74 113 40 q 136 131 113 108 q 193 155 159 155 z "},"\"":{"ha":515,"x_min":72,"x_max":444,"o":"m 117 650 l 72 922 q 90 966 72 947 q 132 985 107 985 q 174 966 156 985 q 191 922 191 947 l 146 650 l 117 650 m 370 650 l 324 922 q 342 966 324 947 q 384 985 359 985 q 426 966 408 985 q 444 922 444 947 l 398 650 l 370 650 z "},"#":{"ha":694,"x_min":5,"x_max":688,"o":"m 320 947 l 280 663 l 467 663 l 507 947 l 587 947 l 547 663 l 688 663 l 688 583 l 536 583 l 509 390 l 650 390 l 650 311 l 497 311 l 453 0 l 373 0 l 417 311 l 230 311 l 186 0 l 106 0 l 150 311 l 5 311 l 5 391 l 161 391 l 189 584 l 43 584 l 43 663 l 200 663 l 240 947 l 320 947 m 269 584 l 241 390 l 429 390 l 456 584 l 269 584 z "},"$":{"ha":694,"x_min":41,"x_max":655,"o":"m 367 1015 l 361 928 l 362 928 q 476 912 412 928 q 594 871 540 897 q 578 783 583 821 q 575 694 574 746 l 532 694 l 532 694 l 530 785 q 523 817 529 806 q 500 837 517 827 q 439 863 470 854 q 361 877 404 875 l 361 517 l 383 515 q 593 448 532 496 q 655 302 655 399 q 557 62 655 151 q 361 -22 482 -6 l 361 -23 l 367 -161 l 305 -161 l 311 -26 l 293 -26 q 161 -8 231 -26 q 41 36 91 9 q 53 138 50 96 q 57 240 56 181 l 103 240 l 103 240 l 103 143 q 109 107 103 119 q 132 84 115 96 q 208 45 165 60 q 311 24 258 28 l 311 412 l 304 413 q 96 481 151 432 q 42 648 42 529 q 134 848 42 768 q 311 924 208 913 l 311 928 l 305 1015 l 367 1015 m 311 878 q 196 826 239 871 q 147 679 147 774 q 194 565 147 597 q 311 526 228 542 l 311 878 l 311 878 m 361 25 q 483 87 431 33 q 544 236 544 149 q 494 359 544 322 q 361 404 456 387 l 361 26 l 361 25 z "},"%":{"ha":1166,"x_min":54,"x_max":1114,"o":"m 273 511 q 110 570 165 511 q 54 745 54 629 q 121 892 54 828 q 273 957 187 957 q 429 897 367 957 q 491 745 491 836 q 429 577 491 644 q 273 511 367 511 l 273 511 m 273 923 q 186 871 221 923 q 151 743 151 819 q 181 594 151 643 q 273 545 212 545 q 361 598 329 545 q 394 743 394 651 q 361 874 394 826 q 273 923 329 923 l 273 923 m 295 -26 l 795 985 l 852 985 l 351 -26 l 295 -26 m 895 -1 q 732 58 788 -1 q 677 233 677 117 q 743 380 677 316 q 895 445 810 445 q 1052 385 989 445 q 1114 233 1114 324 q 1052 65 1114 132 q 895 -1 989 -1 l 895 -1 m 895 411 q 809 359 844 411 q 774 231 774 307 q 804 82 774 131 q 895 33 834 33 q 984 86 951 33 q 1017 231 1017 139 q 984 362 1017 314 q 895 411 951 411 l 895 411 z "},"&":{"ha":1080,"x_min":60,"x_max":1046,"o":"m 232 732 q 242 797 232 764 q 267 842 253 829 q 308 878 271 845 q 359 924 345 911 q 404 949 376 941 q 465 957 431 957 q 556 921 522 957 q 589 824 589 886 q 517 660 589 745 q 390 551 465 598 q 450 457 416 503 q 590 285 527 353 q 675 202 625 246 l 686 216 q 738 370 741 286 q 715 469 736 418 l 578 475 l 625 538 l 751 538 q 934 542 852 538 q 1031 549 1015 545 q 1018 499 1021 520 q 1013 447 1014 477 q 913 456 1009 448 l 839 463 l 819 463 q 826 373 833 421 q 730 182 813 283 l 717 166 l 724 160 q 830 101 765 126 q 942 76 895 76 q 989 83 964 76 q 1038 102 1015 90 l 1046 66 l 939 -10 q 906 -25 920 -21 q 876 -28 892 -28 q 753 2 821 -28 q 630 81 684 33 l 629 81 q 547 27 590 52 q 346 -28 445 -28 q 139 46 219 -28 q 60 240 60 121 q 125 416 60 334 q 275 536 182 487 l 262 568 q 232 732 232 648 m 414 50 q 553 94 481 50 l 589 117 q 485 223 528 175 q 363 385 429 287 q 298 489 325 441 q 220 412 249 454 q 182 286 182 356 q 252 120 182 191 q 414 50 321 50 m 330 765 q 362 613 330 696 l 369 595 q 444 664 413 627 q 495 793 495 727 q 473 857 495 831 q 419 883 451 883 q 351 854 373 883 q 330 765 330 825 z "},"'":{"ha":289,"x_min":85,"x_max":204,"o":"m 130 650 l 85 922 q 102 966 85 947 q 144 985 120 985 q 186 966 169 985 q 204 922 204 947 l 159 650 l 130 650 z "},"(":{"ha":463,"x_min":83,"x_max":418,"o":"m 83 355 q 162 720 83 553 q 393 1008 241 886 l 418 974 q 257 707 312 865 q 202 355 202 549 q 259 1 202 166 q 418 -269 317 -165 l 387 -298 q 163 1 244 -172 q 83 355 83 174 z "},")":{"ha":463,"x_min":45,"x_max":379,"o":"m 379 355 q 300 -11 379 156 q 70 -298 221 -177 l 45 -264 q 205 3 151 -155 q 260 355 260 161 q 203 709 260 543 q 45 979 146 874 l 75 1008 q 299 709 218 882 q 379 355 379 536 z "},"*":{"ha":541,"x_min":45,"x_max":503,"o":"m 376 931 q 380 923 376 931 q 383 916 383 916 l 295 738 l 295 738 l 490 768 q 497 762 490 768 q 503 756 503 756 l 503 674 q 497 669 503 674 q 490 663 490 663 l 294 692 l 294 692 l 382 516 q 379 508 382 516 q 376 500 376 500 l 298 474 q 291 478 298 474 q 283 483 283 483 l 252 678 l 252 678 l 110 540 q 101 540 110 540 q 93 541 93 541 l 45 608 q 47 616 45 608 q 49 625 49 625 l 224 715 l 224 715 l 49 806 q 46 815 49 806 q 45 823 45 823 l 94 890 q 102 890 94 890 q 111 891 111 891 l 251 753 l 251 753 l 283 948 q 291 952 283 948 q 298 957 298 957 l 376 931 z "},"+":{"ha":842,"x_min":71,"x_max":770,"o":"m 381 324 l 71 324 l 71 403 l 381 403 l 381 713 l 460 713 l 460 403 l 770 403 l 770 324 l 460 324 l 460 14 l 381 14 l 381 324 z "},",":{"ha":347,"x_min":22,"x_max":304,"o":"m 22 -197 q 103 -43 75 -111 q 149 123 131 24 l 289 174 l 304 152 q 233 5 271 66 q 91 -195 180 -84 l 33 -216 l 22 -197 z "},"-":{"ha":463,"x_min":24,"x_max":434,"o":"m 64 398 l 434 398 l 394 299 l 24 299 l 64 398 z "},".":{"ha":347,"x_min":93,"x_max":254,"o":"m 174 155 q 231 131 208 155 q 254 74 254 108 q 231 17 254 40 q 174 -7 208 -7 q 116 17 140 -7 q 93 74 93 40 q 116 131 93 108 q 174 155 140 155 z "},"/":{"ha":842,"x_min":121,"x_max":721,"o":"m 721 1008 l 203 -165 l 121 -165 l 638 1008 l 721 1008 z "},":":{"ha":347,"x_min":92,"x_max":253,"o":"m 172 155 q 230 131 206 155 q 253 74 253 108 q 230 17 253 40 q 172 -7 206 -7 q 115 17 138 -7 q 92 74 92 40 q 115 131 92 108 q 172 155 138 155 m 172 635 q 230 611 206 635 q 253 554 253 588 q 230 497 253 520 q 172 473 206 473 q 115 497 138 473 q 92 554 92 520 q 115 611 92 588 q 172 635 138 635 z "},";":{"ha":347,"x_min":22,"x_max":304,"o":"m 22 -197 q 103 -43 75 -111 q 149 123 131 24 l 289 174 l 304 152 q 233 5 270 66 q 91 -195 180 -84 l 33 -216 l 22 -197 m 214 635 q 271 611 248 635 q 294 554 294 588 q 271 497 294 520 q 214 473 248 473 q 156 497 180 473 q 133 554 133 520 q 156 611 133 588 q 214 635 180 635 z "},"<":{"ha":842,"x_min":79,"x_max":775,"o":"m 79 324 l 79 363 l 79 403 l 775 727 l 775 641 l 172 361 l 172 361 l 775 79 l 775 0 l 79 324 z "},"=":{"ha":842,"x_min":71,"x_max":770,"o":"m 71 268 l 770 268 l 770 189 l 71 189 l 71 268 m 71 538 l 770 538 l 770 459 l 71 459 l 71 538 z "},">":{"ha":842,"x_min":66,"x_max":762,"o":"m 762 324 l 66 0 l 66 79 l 670 361 l 670 361 l 66 641 l 66 727 l 762 403 l 762 363 l 762 324 z "},"?":{"ha":616,"x_min":60,"x_max":549,"o":"m 254 871 q 189 862 220 871 l 165 854 q 143 839 151 849 q 125 806 135 829 l 100 747 l 100 747 l 60 758 l 113 914 l 113 914 q 202 950 154 937 q 288 964 250 964 q 476 905 403 964 q 549 752 549 846 q 521 644 549 687 q 391 504 493 600 q 279 394 294 414 q 264 333 264 374 q 274 302 264 319 q 298 271 283 284 l 270 252 q 221 296 237 271 q 206 355 206 320 q 234 434 206 388 q 313 531 262 480 q 393 632 368 586 q 418 721 418 677 q 372 829 418 787 q 254 871 326 871 m 276 155 q 333 131 310 155 q 357 74 357 108 q 333 17 357 40 q 276 -7 310 -7 q 219 17 242 -7 q 195 74 195 40 q 219 131 195 108 q 276 155 242 155 z "},"@":{"ha":1038,"x_min":33,"x_max":1006,"o":"m 721 227 q 864 337 795 227 q 932 566 932 448 q 822 800 932 705 q 551 895 711 895 q 238 773 363 895 q 113 469 113 652 q 238 161 113 281 q 562 42 364 42 q 764 93 672 42 q 916 239 856 144 l 1001 239 q 820 50 951 129 q 556 -28 689 -28 q 185 112 336 -28 q 33 457 33 253 q 180 818 33 674 q 549 962 328 962 q 873 847 741 962 q 1006 566 1006 732 q 905 303 1006 421 q 680 185 804 185 q 588 247 613 185 q 576 298 579 270 l 576 298 q 548 262 564 279 q 410 194 486 194 q 275 249 328 194 q 222 389 221 304 q 312 610 221 515 q 522 705 402 705 q 639 629 608 705 l 646 606 l 646 606 l 671 695 l 792 695 l 699 354 q 682 254 677 281 q 721 227 687 227 m 544 669 q 409 568 473 669 q 346 354 347 467 q 367 263 346 295 q 428 231 389 231 q 526 289 478 231 q 598 437 573 347 q 613 606 627 543 q 544 669 598 669 z "},"A":{"ha":1080,"x_min":21,"x_max":1046,"o":"m 174 168 l 520 969 l 543 969 l 566 969 l 869 253 q 951 79 929 114 q 1003 41 973 44 l 1046 37 l 1046 -4 q 862 0 939 0 q 679 -4 785 0 l 679 37 l 745 41 q 796 64 793 43 q 766 168 800 85 l 705 317 l 705 317 l 310 317 l 310 317 l 279 240 q 222 76 223 109 q 271 41 220 43 l 341 37 l 341 -4 q 182 0 249 0 q 21 -4 114 0 l 21 37 l 69 41 q 121 65 104 44 q 174 168 138 86 m 511 789 l 335 374 l 335 374 l 682 374 l 682 374 l 511 789 l 511 789 l 511 789 z "},"B":{"ha":848,"x_min":36,"x_max":800,"o":"m 158 158 l 158 789 q 148 892 158 871 q 95 916 137 913 l 36 920 l 36 961 l 224 957 l 224 957 l 488 961 q 686 913 621 961 q 751 768 751 865 q 646 592 751 661 q 527 542 594 558 l 527 542 q 703 490 637 530 q 800 315 800 432 q 690 85 800 174 q 408 -4 581 -4 l 224 0 l 224 0 l 90 -4 l 90 27 l 115 37 q 151 68 144 49 q 158 158 158 88 m 290 895 l 290 555 l 290 555 l 374 553 q 552 603 487 553 q 618 739 618 653 q 566 863 618 821 q 412 905 513 905 q 290 895 347 905 l 290 895 m 290 500 l 290 67 l 290 67 q 404 54 343 54 q 589 115 521 54 q 657 280 657 176 q 591 449 657 393 q 393 505 526 505 q 290 500 338 505 l 290 500 z "},"C":{"ha":985,"x_min":31,"x_max":930,"o":"m 930 117 l 891 46 q 728 -13 794 2 q 570 -28 662 -28 q 181 113 332 -28 q 31 477 31 254 q 190 844 31 702 q 602 985 350 985 q 764 969 677 985 q 922 926 850 954 q 903 823 908 867 q 895 717 897 779 l 852 717 l 852 717 l 852 804 q 847 837 852 826 q 826 858 842 847 q 730 904 784 886 q 578 927 659 927 q 288 813 395 927 q 182 504 182 700 q 305 171 182 296 q 633 46 429 46 q 789 69 711 46 q 918 130 867 92 l 930 117 z "},"D":{"ha":1075,"x_min":31,"x_max":1043,"o":"m 158 161 l 158 789 q 147 892 158 871 q 92 916 136 913 l 31 920 l 31 961 l 224 957 l 224 957 l 525 961 q 904 850 764 961 q 1043 548 1043 739 q 891 144 1043 293 q 477 -4 739 -4 l 224 0 l 224 0 l 79 -4 l 79 31 l 105 43 q 149 78 140 58 q 158 161 158 98 m 290 65 l 290 65 q 444 54 361 55 q 779 169 663 54 q 895 496 895 283 q 790 808 895 711 q 455 905 686 905 q 290 896 366 906 l 290 896 l 290 65 z "},"E":{"ha":848,"x_min":31,"x_max":794,"o":"m 52 -4 l 52 37 l 108 41 q 158 65 149 44 q 168 168 168 86 l 168 789 q 156 892 168 871 q 97 916 144 913 l 31 920 l 31 961 q 192 955 88 956 q 389 957 296 954 l 389 957 q 632 960 520 961 q 772 955 743 960 l 772 955 q 755 851 760 895 q 751 745 751 807 l 702 745 l 702 858 q 645 885 702 873 q 498 902 587 898 q 429 903 461 904 q 300 897 370 903 l 300 897 l 300 520 l 300 520 q 460 516 388 515 q 604 530 585 516 q 627 640 622 543 l 667 640 q 663 483 663 549 q 667 325 663 416 l 627 325 q 604 444 622 429 q 460 458 585 458 q 300 454 388 458 l 300 454 l 300 62 l 300 62 q 471 54 395 54 q 653 64 552 54 q 717 96 701 68 q 745 228 732 124 l 794 228 q 777 116 782 163 q 772 2 772 68 l 772 2 q 606 -3 718 -2 q 387 0 494 -3 l 387 0 q 187 2 284 3 q 52 -4 90 1 z "},"F":{"ha":772,"x_min":31,"x_max":745,"o":"m 168 168 l 168 789 q 156 892 168 871 q 97 916 144 913 l 31 920 l 31 961 q 191 955 88 956 q 385 957 294 954 l 385 957 q 614 961 510 961 q 745 956 719 960 l 745 956 q 728 852 732 896 q 723 746 723 808 l 674 746 l 674 859 q 607 890 674 877 q 448 903 541 903 l 416 903 q 300 897 363 903 l 300 897 l 300 522 l 300 522 l 460 518 q 604 532 585 518 q 626 640 622 545 l 667 640 q 663 483 663 549 q 667 325 663 416 l 626 325 q 603 443 621 428 q 460 457 585 457 q 300 452 389 456 l 300 452 l 300 168 q 312 64 300 85 q 371 41 323 43 l 437 37 l 437 -4 q 235 0 320 0 q 31 -4 149 0 l 31 37 l 97 41 q 157 64 144 43 q 168 168 168 85 z "},"G":{"ha":1060,"x_min":31,"x_max":1011,"o":"m 576 -28 q 180 110 330 -28 q 31 477 31 248 q 195 844 31 702 q 618 985 359 985 q 797 969 705 985 q 961 926 889 954 q 942 823 947 867 q 935 717 937 779 l 892 717 l 892 717 l 892 804 q 886 837 892 826 q 865 857 881 848 q 760 904 817 886 q 600 927 685 927 q 292 818 402 927 q 182 514 182 709 q 300 160 182 290 q 624 30 419 30 l 623 30 q 767 47 699 30 q 816 73 804 57 q 827 130 827 88 l 827 258 q 819 313 827 300 q 777 327 810 325 l 665 336 l 665 377 q 838 373 765 373 q 1011 377 911 373 l 1011 342 l 985 334 q 960 318 964 327 q 956 271 956 310 l 956 43 l 956 43 q 576 -28 718 -28 l 576 -28 z "},"H":{"ha":1156,"x_min":31,"x_max":1125,"o":"m 168 168 l 168 789 q 156 892 168 871 q 97 916 144 913 l 31 920 l 31 961 q 233 957 148 957 q 437 961 319 957 l 437 920 l 371 916 q 312 892 323 913 q 300 789 300 871 l 300 543 l 300 543 l 578 539 l 856 543 l 856 543 l 856 789 q 844 892 856 871 q 785 916 832 913 l 718 920 l 718 961 q 921 957 836 957 q 1125 961 1006 957 l 1125 920 l 1059 916 q 999 892 1011 913 q 987 789 987 871 l 987 168 q 999 64 987 85 q 1059 41 1011 43 l 1125 37 l 1125 -4 q 922 0 1008 0 q 718 -4 837 0 l 718 37 l 785 41 q 844 64 832 43 q 856 168 856 85 l 856 477 l 856 477 q 578 481 701 481 q 300 477 455 481 l 300 477 l 300 168 q 312 64 300 85 q 371 41 323 43 l 437 37 l 437 -4 q 235 0 320 0 q 31 -4 149 0 l 31 37 l 97 41 q 157 64 144 43 q 168 168 168 85 z "},"I":{"ha":468,"x_min":31,"x_max":437,"o":"m 168 168 l 168 789 q 156 893 168 872 q 97 916 144 913 l 31 920 l 31 961 q 233 957 148 957 q 437 961 319 957 l 437 920 l 371 916 q 312 893 323 913 q 300 789 300 872 l 300 168 q 312 64 300 85 q 371 41 323 43 l 437 37 l 437 -4 q 235 0 320 0 q 31 -4 149 0 l 31 37 l 97 41 q 157 64 144 43 q 168 168 168 85 z "},"J":{"ha":463,"x_min":-20,"x_max":432,"o":"m 163 789 q 151 892 163 871 q 92 916 139 913 l 25 920 l 25 961 q 228 957 142 957 q 432 961 313 957 l 432 920 l 366 916 q 306 892 318 913 q 294 789 294 871 l 294 143 q 213 -152 294 -35 q 11 -270 132 -270 q -1 -269 5 -270 l -14 -267 l -14 -267 l -20 -160 l -4 -152 q 40 -173 18 -166 q 90 -180 62 -180 q 146 -140 129 -180 q 163 -13 163 -101 l 163 789 z "},"K":{"ha":1008,"x_min":31,"x_max":997,"o":"m 300 168 q 312 64 300 85 q 371 41 323 43 l 437 37 l 437 -4 q 235 0 320 0 q 31 -4 149 0 l 31 37 l 97 41 q 156 64 144 43 q 168 168 168 85 l 168 789 q 156 892 168 871 q 97 916 144 913 l 31 920 l 31 961 q 233 957 148 957 q 437 961 319 957 l 437 920 l 371 916 q 312 892 323 913 q 300 789 300 871 l 300 494 l 300 494 q 531 718 435 622 l 616 803 q 710 896 694 879 q 725 924 725 913 l 725 961 q 842 957 793 957 q 961 961 892 957 l 961 920 l 903 916 q 836 896 864 913 q 731 808 808 878 l 593 682 l 425 531 l 425 531 l 714 253 q 905 78 863 113 q 964 41 946 43 l 997 37 l 997 -4 q 896 0 939 0 q 794 -4 853 0 q 708 85 736 57 q 622 168 680 114 l 300 474 l 300 474 l 300 168 z "},"L":{"ha":848,"x_min":31,"x_max":814,"o":"m 90 -4 l 90 28 l 124 45 q 161 79 154 60 q 168 159 168 98 l 168 789 q 156 892 168 871 q 97 916 144 913 l 31 920 l 31 961 q 233 957 148 957 q 437 961 319 957 l 437 920 l 371 916 q 312 893 323 913 q 300 789 300 872 l 300 62 l 300 62 q 480 53 400 54 q 673 64 566 53 q 735 98 720 68 q 765 240 751 127 l 814 240 q 797 121 802 172 q 792 2 792 71 l 792 2 q 618 -3 737 -2 q 384 0 500 -3 l 384 0 q 211 2 296 3 q 90 -4 126 1 z "},"M":{"ha":1314,"x_min":22,"x_max":1286,"o":"m 224 168 q 236 64 224 85 q 296 41 248 43 l 362 37 l 362 -4 q 196 0 266 0 q 29 -4 126 0 l 29 37 l 93 41 q 149 65 138 44 q 160 168 160 86 l 160 789 q 148 892 160 871 q 89 916 136 913 l 22 920 l 22 961 q 157 959 100 959 q 290 964 213 959 q 331 869 318 898 q 367 792 343 841 l 656 192 l 656 192 l 656 192 l 941 789 q 977 864 964 836 q 1018 961 989 892 q 1152 959 1096 959 q 1286 964 1208 959 l 1286 923 l 1219 919 q 1160 896 1172 917 q 1148 792 1148 875 l 1148 168 q 1160 64 1148 85 q 1219 41 1172 43 l 1286 37 l 1286 -4 q 1083 0 1168 0 q 879 -4 998 0 l 879 37 l 945 41 q 1005 64 993 43 q 1017 168 1017 85 l 1017 798 l 1017 798 q 856 475 925 618 q 705 148 787 331 q 667 63 687 111 q 635 -17 647 15 l 621 -17 l 606 -17 q 577 52 598 4 q 532 146 555 99 l 377 473 l 224 786 l 224 786 l 224 168 z "},"N":{"ha":1154,"x_min":24,"x_max":1128,"o":"m 220 168 q 232 64 220 85 q 291 41 243 43 l 357 37 l 357 -4 q 191 0 261 0 q 24 -4 121 0 l 24 37 l 88 41 q 144 65 133 44 q 155 168 155 86 l 155 789 q 144 892 155 871 q 87 916 133 913 l 24 920 l 24 961 q 144 959 94 959 q 264 964 195 959 q 335 869 313 898 q 397 792 357 841 l 933 134 l 933 134 l 933 134 l 933 789 q 921 893 933 872 q 862 916 909 913 l 795 920 l 795 961 q 962 957 892 957 q 1128 961 1031 957 l 1128 920 l 1065 916 q 1009 892 1020 913 q 998 789 998 871 l 998 27 q 999 -6 998 9 q 1003 -27 1001 -22 l 876 -3 l 220 801 l 220 801 l 220 801 l 220 168 z "},"O":{"ha":1092,"x_min":31,"x_max":1061,"o":"m 521 -28 q 168 113 304 -28 q 31 479 31 254 q 181 844 31 703 q 571 985 332 985 q 925 858 788 985 q 1061 528 1061 730 q 911 127 1061 282 q 521 -28 760 -28 l 521 -28 m 563 30 q 819 147 726 30 q 913 466 913 264 q 810 803 913 680 q 529 927 707 927 q 273 822 367 927 q 179 535 179 717 q 282 165 179 301 q 563 30 385 30 l 563 30 z "},"P":{"ha":839,"x_min":31,"x_max":806,"o":"m 168 168 l 168 789 q 156 892 168 871 q 97 916 144 913 l 31 920 l 31 961 l 234 957 l 234 957 l 508 961 q 727 903 648 961 q 806 740 806 844 q 710 533 806 617 q 473 449 614 449 q 389 456 431 449 l 376 508 q 469 495 420 496 q 612 554 555 495 q 668 703 668 612 q 610 853 668 798 q 453 909 553 909 q 300 891 371 910 l 300 891 l 300 168 q 312 64 300 85 q 371 41 323 43 l 437 37 l 437 -4 q 235 0 320 0 q 31 -4 149 0 l 31 37 l 97 41 q 157 64 144 43 q 168 168 168 85 z "},"Q":{"ha":1092,"x_min":31,"x_max":1061,"o":"m 1061 -168 l 943 -244 q 856 -225 925 -244 q 701 -179 787 -207 q 555 -135 602 -147 q 483 -123 508 -123 q 442 -135 468 -123 q 363 -180 416 -147 l 366 -134 q 474 -58 422 -89 q 533 -28 513 -33 l 533 -28 l 521 -28 q 168 113 304 -28 q 31 479 31 254 q 181 844 31 703 q 571 985 332 985 q 925 858 788 985 q 1061 528 1061 730 q 911 127 1061 282 q 566 -27 774 -14 l 566 -27 q 609 -35 589 -29 q 739 -84 639 -44 q 879 -131 821 -117 q 986 -145 937 -145 q 1029 -143 1008 -145 q 1061 -138 1051 -141 l 1061 -168 m 529 927 q 273 822 367 927 q 179 535 179 717 q 282 165 179 301 q 563 30 385 30 q 819 147 726 30 q 913 466 913 264 q 810 803 913 680 q 529 927 707 927 l 529 927 z "},"R":{"ha":928,"x_min":31,"x_max":932,"o":"m 168 168 l 168 789 q 156 892 168 871 q 97 916 144 913 l 31 920 l 31 961 l 234 957 l 234 957 l 504 961 q 724 908 649 961 q 799 751 799 854 q 690 551 799 628 q 530 484 624 503 l 530 484 l 703 254 l 771 165 q 856 63 835 83 q 901 41 878 43 l 932 37 l 932 -5 q 836 -1 876 -1 q 737 -5 794 -1 l 737 -5 q 540 257 623 148 q 351 498 462 361 l 359 517 l 408 516 q 590 572 518 516 q 661 713 661 628 q 605 857 661 804 q 450 909 548 909 q 300 892 370 909 l 300 892 l 300 168 q 312 64 300 85 q 371 41 323 43 l 437 37 l 437 -4 q 235 0 320 0 q 31 -4 149 0 l 31 37 l 97 41 q 157 64 144 43 q 168 168 168 85 z "},"S":{"ha":729,"x_min":33,"x_max":699,"o":"m 578 730 l 578 730 l 568 817 q 559 850 565 839 q 538 871 553 861 q 470 907 507 893 q 357 927 416 927 q 209 869 267 927 q 151 720 151 811 q 206 603 151 640 q 404 549 260 566 q 632 476 565 528 q 699 319 699 425 q 578 73 699 174 q 283 -28 458 -28 q 159 -12 227 -28 q 39 31 92 4 q 50 138 47 93 q 52 244 52 182 l 95 244 l 95 244 l 106 157 q 114 125 109 136 q 134 102 120 114 q 212 58 168 75 q 330 33 273 33 q 510 94 440 33 q 581 252 581 155 q 524 378 581 338 q 319 436 467 418 q 98 513 163 456 q 33 688 33 570 q 136 899 33 812 q 387 985 238 985 q 513 969 444 985 q 642 926 583 953 q 626 829 630 870 q 621 730 621 788 l 578 730 z "},"T":{"ha":851,"x_min":25,"x_max":826,"o":"m 359 168 l 359 893 l 359 893 l 159 893 q 95 884 109 893 q 79 838 81 874 l 76 737 l 33 737 q 35 848 36 802 q 25 961 33 896 l 25 961 l 425 957 l 425 957 l 826 961 l 826 961 q 816 850 817 897 q 819 737 814 802 l 775 737 l 772 838 q 756 884 770 874 q 692 893 742 893 l 491 893 l 491 893 l 491 168 q 504 64 491 85 q 570 41 517 43 l 645 37 l 645 -4 q 425 0 517 0 q 205 -4 333 0 l 205 37 l 280 41 q 347 64 333 43 q 359 168 359 85 z "},"U":{"ha":1080,"x_min":17,"x_max":1054,"o":"m 923 375 q 828 72 924 173 q 539 -28 732 -28 q 245 48 335 -28 q 155 298 155 125 l 155 789 q 143 892 155 871 q 83 916 131 913 l 17 920 l 17 961 q 220 957 134 957 q 424 961 305 957 l 424 920 l 357 916 q 298 892 310 913 q 286 789 286 871 l 286 311 q 351 116 286 178 q 555 55 416 55 q 786 132 713 55 q 859 378 859 210 l 859 789 q 846 892 859 871 q 781 916 833 913 l 707 920 l 707 961 q 880 957 808 957 q 1054 961 954 957 l 1054 920 l 990 916 q 934 881 945 913 q 923 724 923 850 l 923 375 z "},"V":{"ha":1003,"x_min":11,"x_max":977,"o":"m 189 704 q 112 878 133 843 q 58 916 90 913 l 11 920 l 11 961 q 197 957 119 957 q 384 961 276 957 l 384 920 l 317 916 q 265 892 269 913 q 294 789 261 871 l 530 167 l 530 167 l 530 167 l 743 717 q 795 881 795 848 q 743 916 795 913 l 673 920 l 673 961 q 825 957 761 957 q 977 961 888 957 l 977 920 l 937 916 q 893 892 908 913 q 845 789 878 871 l 587 139 q 555 53 570 97 q 534 -12 540 9 l 500 -12 l 465 -12 q 445 53 460 9 q 412 139 429 97 l 189 704 z "},"W":{"ha":1389,"x_min":11,"x_max":1371,"o":"m 317 -12 q 303 65 312 20 q 286 146 294 111 l 155 704 q 106 878 122 843 q 58 916 90 913 l 11 920 l 11 961 q 195 957 118 957 q 379 961 273 957 l 379 920 l 313 916 q 257 892 264 913 q 268 789 250 871 l 397 201 l 397 201 l 397 201 l 639 818 q 671 904 656 861 q 692 969 686 948 l 715 969 l 739 969 q 760 897 746 941 q 787 816 774 852 l 1009 193 l 1009 193 l 1009 193 l 1158 717 q 1195 880 1198 847 q 1141 916 1192 913 l 1071 920 l 1071 961 q 1221 957 1158 957 q 1371 961 1284 957 l 1371 920 l 1331 916 q 1291 892 1304 913 q 1253 789 1278 871 l 1060 144 q 1034 53 1046 98 q 1020 -12 1023 7 l 985 -12 l 951 -12 q 929 57 944 13 q 901 140 915 102 l 679 734 l 679 734 l 679 734 l 440 139 q 407 54 423 98 q 386 -12 391 10 l 351 -12 l 317 -12 z "},"X":{"ha":926,"x_min":20,"x_max":902,"o":"m 186 168 l 372 422 l 413 479 l 413 479 l 410 482 l 283 688 q 164 861 196 827 q 93 897 133 895 l 43 899 l 41 935 l 141 953 l 241 971 q 291 916 251 971 q 374 785 330 860 l 492 583 l 492 583 l 492 583 q 745 957 606 744 l 745 957 l 817 957 l 889 957 l 889 916 l 849 911 q 799 888 821 909 q 712 785 776 867 q 528 534 609 648 l 524 529 l 524 529 l 553 481 q 693 253 616 376 q 810 78 782 113 q 864 41 838 43 l 902 37 l 902 -4 q 798 1 842 -1 q 694 0 754 1 l 694 0 q 446 423 555 241 l 446 423 l 446 423 q 273 168 367 312 q 221 89 239 117 q 167 -4 203 60 q 93 0 124 0 q 20 -4 62 0 l 20 37 l 56 41 q 103 65 81 44 q 186 168 124 86 z "},"Y":{"ha":926,"x_min":12,"x_max":911,"o":"m 416 353 q 412 397 416 385 q 393 437 409 410 l 270 654 l 250 688 q 130 854 174 810 q 31 902 85 899 l 12 903 l 12 945 l 92 960 l 172 975 q 230 941 199 975 q 309 827 261 908 l 376 710 q 503 475 431 611 l 503 475 l 634 680 q 799 964 707 797 l 799 964 l 854 964 l 911 964 l 911 947 l 911 943 q 891 920 905 936 q 861 882 878 903 q 698 664 765 762 q 598 509 651 595 q 557 423 568 458 q 547 332 547 388 l 547 168 q 559 64 547 85 q 618 41 571 43 l 685 37 l 685 -4 q 482 0 568 0 q 278 -4 397 0 l 278 37 l 345 41 q 404 64 392 43 q 416 168 416 85 l 416 353 z "},"Z":{"ha":926,"x_min":21,"x_max":886,"o":"m 21 32 l 697 900 l 697 900 l 393 900 q 213 890 252 900 q 170 842 174 880 l 159 735 l 112 735 q 117 848 117 800 q 111 962 117 896 l 111 962 q 289 958 143 960 q 615 957 435 957 l 615 957 q 774 958 696 957 q 884 962 852 960 l 884 943 l 884 925 l 211 60 l 211 60 l 686 60 q 806 91 781 60 q 838 239 832 121 l 886 239 q 875 118 877 170 q 876 -5 873 66 l 876 -5 q 673 -1 843 -3 q 290 0 503 0 l 290 0 q 132 -1 210 0 q 21 -5 54 -3 l 21 14 l 21 32 z "},"[":{"ha":463,"x_min":110,"x_max":400,"o":"m 110 -256 q 123 376 123 111 q 110 1010 123 642 l 110 1010 q 255 1008 194 1008 q 400 1010 316 1008 l 400 961 l 322 956 q 260 936 276 954 q 243 866 245 918 q 235 378 236 590 q 243 -112 237 165 q 260 -181 244 -163 q 321 -202 275 -199 l 400 -207 l 400 -256 q 255 -254 316 -254 q 110 -256 194 -254 l 110 -256 z "},"\\":{"ha":842,"x_min":113,"x_max":711,"o":"m 629 0 l 113 1008 l 194 1008 l 711 0 l 629 0 z "},"]":{"ha":463,"x_min":62,"x_max":353,"o":"m 353 -256 l 353 -256 q 208 -254 269 -254 q 62 -256 146 -254 l 62 -207 l 141 -202 q 203 -181 187 -199 q 220 -112 218 -163 q 227 378 226 165 q 219 866 227 590 q 202 936 218 918 q 140 956 186 954 l 62 961 l 62 1010 q 208 1008 146 1008 q 353 1010 269 1008 l 353 1010 q 340 376 340 642 q 353 -256 340 111 z "},"^":{"ha":842,"x_min":71,"x_max":770,"o":"m 469 956 q 493 901 472 942 q 540 813 513 859 l 770 393 l 672 393 l 419 855 l 419 855 l 168 393 l 71 393 l 300 813 q 348 904 327 863 q 371 956 368 945 l 420 956 l 469 956 z "},"_":{"ha":694,"x_min":0,"x_max":694,"o":"m 0 -174 l 0 -104 l 694 -104 l 694 -174 l 0 -174 z "},"`":{"ha":463,"x_min":43,"x_max":355,"o":"m 298 730 l 298 730 l 83 867 l 73 874 q 45 913 50 892 l 43 926 q 52 950 43 939 q 89 970 68 970 q 134 951 110 970 l 142 943 l 355 729 l 355 729 l 298 730 z "},"a":{"ha":694,"x_min":45,"x_max":654,"o":"m 212 -16 q 90 29 135 -16 q 45 153 45 75 q 105 294 45 240 q 292 371 165 347 l 451 401 l 451 401 l 451 406 q 407 533 451 488 q 281 578 363 578 q 224 574 248 578 l 220 574 q 188 559 201 570 q 165 528 174 549 l 135 460 l 135 460 l 101 469 l 101 559 l 101 559 q 228 631 176 610 q 332 651 279 651 q 512 591 462 651 q 562 375 562 531 l 562 144 q 570 61 562 78 q 610 41 578 44 l 654 37 l 654 -4 q 551 0 594 0 q 446 -4 507 0 q 450 82 449 54 l 450 115 l 450 115 l 295 5 l 279 -5 q 212 -16 257 -16 m 451 167 l 451 357 l 451 357 l 347 337 q 208 280 253 319 q 163 177 163 241 q 194 95 163 127 q 272 62 225 62 q 371 99 316 62 q 451 167 410 126 l 451 167 z "},"b":{"ha":768,"x_min":-20,"x_max":703,"o":"m 93 848 q 85 905 93 892 q 49 918 77 918 l -20 918 l -20 957 q 89 976 43 965 q 196 1008 134 987 l 209 997 l 209 996 l 209 511 l 209 511 q 316 613 273 584 q 458 651 374 651 q 635 572 567 651 q 703 368 703 493 q 673 222 703 294 q 597 114 643 149 q 530 64 572 94 q 458 14 488 34 q 405 -10 433 -3 q 331 -16 377 -16 q 192 16 256 -16 l 158 35 l 158 35 l 102 -16 l 102 -16 l 79 -7 l 79 -7 q 89 79 85 12 q 93 233 93 146 l 93 848 m 375 54 q 528 126 471 54 q 585 321 585 198 q 532 496 585 432 q 389 560 479 560 q 284 530 331 560 q 209 444 238 500 l 209 444 l 209 117 l 209 117 q 266 82 231 99 q 375 54 324 54 z "},"c":{"ha":616,"x_min":36,"x_max":574,"o":"m 574 63 l 541 14 q 453 -17 496 -7 q 356 -27 410 -27 q 125 63 214 -27 q 36 297 36 154 q 68 443 36 374 q 154 552 100 511 q 209 587 178 570 q 273 618 241 605 q 346 643 311 634 q 408 651 381 651 q 499 637 451 651 q 574 602 547 623 q 557 518 562 554 q 553 433 553 482 l 513 433 l 513 433 l 507 505 q 504 520 506 515 q 494 530 501 525 q 440 564 470 551 q 361 580 401 580 q 212 520 267 580 q 158 358 158 461 q 228 128 158 212 q 418 44 298 44 q 489 55 452 44 q 559 85 526 66 l 574 63 z "},"d":{"ha":848,"x_min":49,"x_max":804,"o":"m 321 -16 q 125 72 201 -16 q 49 300 49 161 q 83 453 49 386 q 180 561 117 521 l 304 625 q 351 644 324 637 q 407 651 377 651 q 565 609 480 651 l 572 606 l 572 606 l 572 848 q 564 905 572 892 q 528 918 555 918 l 458 918 l 458 957 q 568 976 522 966 q 675 1008 613 987 l 688 997 l 688 996 l 688 144 q 697 61 688 78 q 747 41 707 43 l 804 37 l 804 -4 q 688 0 736 0 q 570 -4 638 0 l 579 125 l 579 125 q 421 -5 439 5 q 321 -16 403 -16 m 376 585 q 222 521 275 585 q 170 334 170 457 q 230 138 170 214 q 387 62 291 62 q 488 101 440 62 q 572 208 536 140 l 572 208 l 572 494 l 572 494 q 500 551 545 526 q 376 585 437 585 z "},"e":{"ha":665,"x_min":36,"x_max":623,"o":"m 349 -27 q 120 58 204 -27 q 36 291 36 144 q 61 449 36 380 q 134 555 87 518 q 188 594 162 578 q 237 621 214 610 q 303 644 274 636 q 356 651 333 651 l 357 651 q 551 580 479 651 q 623 397 621 511 l 623 383 l 623 383 l 623 338 l 623 338 q 508 326 596 332 q 371 319 420 319 l 165 319 l 165 319 q 228 120 170 190 q 414 45 291 45 q 501 64 452 45 q 591 113 550 83 l 605 95 l 581 47 q 467 -7 530 13 q 349 -27 405 -27 m 497 372 l 497 372 q 459 545 497 483 q 351 606 422 606 l 352 606 q 214 537 263 606 q 165 372 171 476 l 165 372 q 329 366 255 366 q 497 372 405 366 z "},"f":{"ha":463,"x_min":32,"x_max":473,"o":"m 264 534 l 264 534 l 264 144 q 274 61 264 78 q 323 41 283 44 l 380 37 l 380 -4 q 205 0 279 0 q 32 -4 132 0 l 32 37 l 88 41 q 138 61 128 44 q 148 144 148 78 l 148 534 l 148 534 l 53 530 l 53 561 l 78 572 l 147 602 l 148 602 l 148 676 q 162 779 148 732 q 205 861 177 826 q 242 904 218 876 q 293 959 267 932 q 347 999 319 987 q 411 1011 375 1011 q 446 1006 426 1011 q 473 996 467 1001 l 473 996 l 473 888 l 457 881 q 412 909 438 899 q 359 920 387 920 q 285 883 307 920 q 264 758 264 846 l 264 603 l 264 603 l 446 609 l 436 534 l 367 534 l 264 534 z "},"g":{"ha":772,"x_min":45,"x_max":760,"o":"m 227 132 q 253 92 227 105 q 329 78 278 78 l 542 78 q 674 34 627 78 q 720 -92 720 -10 q 610 -305 720 -218 q 342 -393 500 -393 q 131 -333 217 -393 q 45 -189 45 -274 q 68 -89 45 -115 q 209 -8 92 -63 l 209 -8 q 168 7 186 -2 q 115 77 115 33 q 130 126 115 110 q 239 214 145 142 l 239 214 q 137 258 176 225 q 77 406 77 309 q 165 578 77 505 q 372 651 254 651 l 370 651 q 543 597 476 651 l 550 591 l 550 591 l 755 600 l 760 583 l 725 526 l 597 526 l 597 526 q 610 456 610 496 q 525 279 610 351 q 316 208 440 208 l 314 208 l 291 208 l 291 208 q 245 166 264 189 q 227 132 227 144 m 336 604 q 232 562 270 604 q 193 447 193 520 q 235 306 193 357 q 351 254 277 254 l 350 254 q 455 297 416 254 q 494 414 494 340 q 450 551 494 498 q 336 604 406 604 l 336 604 m 150 -181 q 209 -300 150 -252 q 353 -349 268 -349 q 537 -288 462 -349 q 612 -138 612 -227 q 571 -50 612 -80 q 454 -20 531 -20 l 318 -20 q 275 -24 298 -20 q 239 -34 252 -28 q 183 -78 205 -50 q 150 -181 150 -120 z "},"h":{"ha":808,"x_min":8,"x_max":795,"o":"m 124 144 l 124 848 q 116 905 124 892 q 80 918 108 918 l 11 918 l 11 957 q 120 976 75 965 q 227 1008 165 987 l 240 997 l 240 996 l 240 526 l 240 526 l 240 526 q 353 623 327 605 q 454 651 393 651 q 628 590 570 651 q 686 407 686 529 l 686 144 q 695 61 686 78 q 742 41 705 43 l 795 37 l 795 -4 q 683 0 730 0 q 570 -4 635 0 l 570 37 l 570 379 q 529 518 570 470 q 408 566 487 566 q 290 521 342 566 q 254 481 269 503 q 244 459 248 471 q 240 435 240 446 l 240 144 q 250 61 240 78 q 300 41 260 43 l 356 37 l 356 -4 q 182 0 255 0 q 8 -4 109 0 l 8 37 l 64 41 q 115 61 104 43 q 124 144 124 78 z "},"i":{"ha":404,"x_min":29,"x_max":377,"o":"m 145 144 l 145 448 q 136 537 145 519 q 87 555 126 555 l 32 555 l 32 593 q 141 615 96 604 q 248 650 186 627 l 261 638 l 261 637 l 261 144 q 271 61 261 78 q 321 41 281 44 l 377 37 l 377 -4 q 203 0 276 0 q 29 -4 130 0 l 29 37 l 85 41 q 136 61 125 44 q 145 144 145 78 m 197 952 q 251 930 229 952 q 273 875 273 907 q 251 821 273 843 q 197 798 229 798 q 142 821 165 798 q 120 875 120 843 q 142 930 120 907 q 197 952 165 952 z "},"j":{"ha":325,"x_min":-55,"x_max":233,"o":"m 104 448 q 94 537 104 519 q 45 555 85 555 l -9 555 l -9 593 q 100 615 54 604 q 207 650 145 627 l 220 638 l 220 637 l 220 -28 q 146 -292 220 -192 q -39 -393 75 -389 l -39 -393 l -55 -341 q -19 -345 -39 -345 q 75 -267 46 -345 q 104 -14 104 -189 l 104 448 m 156 952 q 210 930 188 952 q 233 875 233 907 q 210 821 233 843 q 156 798 188 798 q 102 821 124 798 q 79 875 79 843 q 102 930 79 907 q 156 952 124 952 z "},"k":{"ha":772,"x_min":29,"x_max":762,"o":"m 261 144 q 271 61 261 78 q 321 41 281 43 l 377 37 l 377 -4 q 203 0 276 0 q 29 -4 130 0 l 29 37 l 85 41 q 135 61 125 43 q 145 144 145 78 l 145 848 q 137 905 145 892 q 101 918 129 918 l 32 918 l 32 957 q 141 976 96 965 q 248 1008 186 987 l 261 997 l 261 996 l 261 363 l 261 363 q 385 466 330 418 q 482 551 451 523 q 571 638 513 580 l 641 638 l 711 638 l 711 597 l 684 593 q 614 567 648 588 q 479 469 581 547 l 470 461 l 377 388 l 377 388 l 606 161 q 701 75 676 92 q 755 56 725 58 l 762 55 l 762 22 l 696 1 l 631 -20 l 631 -20 l 261 333 l 261 333 l 261 144 z "},"l":{"ha":404,"x_min":29,"x_max":377,"o":"m 145 144 l 145 848 q 137 905 145 892 q 101 918 129 918 l 32 918 l 32 957 q 141 976 96 965 q 248 1008 186 987 l 261 997 l 261 996 l 261 144 q 271 61 261 78 q 321 41 281 44 l 377 37 l 377 -4 q 203 0 276 0 q 29 -4 130 0 l 29 37 l 85 41 q 136 61 125 44 q 145 144 145 78 z "},"m":{"ha":1226,"x_min":22,"x_max":1206,"o":"m 138 144 l 138 448 q 129 537 138 519 q 80 555 119 555 l 25 555 l 25 593 q 134 615 89 604 q 241 650 180 627 l 254 638 l 254 637 l 254 528 l 254 528 l 254 528 q 362 623 338 604 q 448 651 400 651 q 617 592 561 651 q 659 520 644 563 l 659 520 q 776 623 749 603 q 866 651 814 651 q 1035 592 979 651 q 1090 415 1090 533 l 1090 144 q 1100 61 1090 78 q 1150 41 1110 43 l 1206 37 l 1206 -4 q 1091 0 1139 0 q 975 -4 1042 0 l 975 37 l 975 385 q 940 519 975 473 q 838 566 905 566 q 723 519 774 566 q 686 479 703 502 q 676 458 680 470 q 673 433 673 446 l 673 144 q 683 61 673 78 q 732 41 692 44 l 789 37 l 789 -4 q 614 0 688 0 q 441 -4 541 0 l 441 37 l 497 41 q 547 61 537 44 q 557 144 557 78 l 557 385 q 522 519 557 473 q 420 566 486 566 q 304 519 356 566 q 268 476 283 500 q 258 454 262 467 q 254 429 254 441 l 254 144 q 263 61 254 78 q 311 41 273 43 l 364 37 l 364 -4 q 194 0 265 0 q 22 -4 122 0 l 22 37 l 79 41 q 129 61 119 43 q 138 144 138 78 z "},"n":{"ha":808,"x_min":8,"x_max":795,"o":"m 124 144 l 124 448 q 115 537 124 519 q 66 555 105 555 l 11 555 l 11 593 q 120 615 75 604 q 227 650 165 627 l 240 638 l 240 637 l 240 526 l 240 526 l 240 526 q 353 623 327 605 q 454 651 393 651 q 628 590 570 651 q 686 407 686 529 l 686 144 q 695 61 686 78 q 742 41 705 43 l 795 37 l 795 -4 q 683 0 730 0 q 570 -4 635 0 l 570 37 l 570 379 q 529 518 570 470 q 408 566 487 566 q 290 521 342 566 q 254 481 269 503 q 244 459 248 471 q 240 435 240 446 l 240 144 q 250 61 240 78 q 300 41 260 43 l 356 37 l 356 -4 q 182 0 255 0 q 8 -4 109 0 l 8 37 l 64 41 q 115 61 104 43 q 124 144 124 78 z "},"o":{"ha":758,"x_min":45,"x_max":713,"o":"m 362 -27 q 133 69 222 -27 q 45 318 45 165 q 143 558 45 465 q 396 651 241 651 q 625 564 536 651 q 713 338 713 477 q 615 75 713 177 q 362 -27 517 -27 l 362 -27 m 396 18 q 533 90 483 18 q 583 288 583 162 q 524 521 583 435 q 362 606 465 606 q 225 542 275 606 q 175 365 175 477 q 234 111 175 204 q 396 18 294 18 l 396 18 z "},"p":{"ha":835,"x_min":11,"x_max":770,"o":"m 127 448 q 117 537 127 519 q 68 555 108 555 l 14 555 l 14 593 q 123 615 77 604 q 230 650 168 627 l 243 638 l 243 637 l 243 513 l 243 513 q 372 623 338 602 q 491 651 417 651 q 688 569 607 651 q 770 370 770 488 q 727 215 770 299 q 633 98 685 130 l 503 14 q 453 -10 477 -3 q 396 -16 430 -16 q 243 17 315 -16 l 243 17 l 243 -243 q 253 -327 243 -309 q 302 -346 262 -344 l 359 -350 l 359 -391 q 184 -387 258 -387 q 11 -391 111 -387 l 11 -350 l 67 -346 q 117 -327 107 -344 q 127 -243 127 -309 l 127 448 m 439 54 q 589 132 528 54 q 649 326 649 210 q 591 497 649 434 q 433 560 533 560 q 321 530 370 560 q 243 444 272 500 l 243 444 l 243 130 l 243 130 q 308 82 269 101 q 439 54 366 54 z "},"q":{"ha":778,"x_min":49,"x_max":778,"o":"m 327 -16 q 126 66 204 -16 q 49 281 49 149 q 82 436 49 367 q 177 547 115 505 q 245 592 209 569 q 298 625 281 616 q 346 644 319 637 q 404 651 374 651 q 555 622 478 651 l 597 604 l 597 604 l 669 648 l 669 648 l 694 634 l 694 634 q 671 539 680 606 q 662 395 662 472 l 662 -243 q 672 -327 662 -309 q 722 -346 682 -344 l 778 -350 l 778 -391 q 595 -387 672 -387 q 413 -391 519 -387 l 413 -350 l 477 -346 q 535 -326 524 -343 q 546 -243 546 -309 l 546 95 l 546 95 q 392 -8 408 0 q 327 -16 376 -16 m 372 585 q 225 521 281 585 q 170 352 170 457 q 226 139 170 215 q 385 62 283 62 q 478 92 429 62 q 546 160 527 121 l 546 160 l 546 531 l 546 531 q 490 563 526 549 q 372 585 434 585 z "},"r":{"ha":549,"x_min":29,"x_max":519,"o":"m 145 144 l 145 448 q 136 537 145 519 q 87 555 126 555 l 32 555 l 32 593 q 141 615 96 604 q 248 650 186 627 l 261 638 l 261 637 l 261 503 l 261 503 l 261 503 q 357 613 331 589 q 456 651 398 651 q 491 647 473 651 q 519 637 509 643 l 519 637 l 507 469 l 479 469 q 441 516 466 500 q 385 533 417 533 q 294 485 336 533 l 292 481 q 269 438 277 464 q 261 385 261 412 l 261 144 q 273 61 261 78 q 333 41 285 43 l 400 37 l 400 -4 q 214 0 292 0 q 29 -4 136 0 l 29 37 l 85 41 q 136 61 125 44 q 145 144 145 78 z "},"s":{"ha":589,"x_min":41,"x_max":543,"o":"m 447 460 l 447 460 l 447 481 q 436 534 447 511 q 404 570 425 557 q 369 588 388 580 q 277 606 324 606 q 183 576 218 606 q 149 494 149 545 q 185 422 149 447 q 320 379 222 398 q 493 317 444 356 q 543 208 543 279 q 456 38 543 102 q 227 -27 369 -27 q 138 -18 187 -27 q 41 6 89 -9 q 54 104 50 63 q 56 200 57 144 l 98 200 l 98 200 l 98 139 q 105 103 98 120 q 123 75 112 85 q 172 43 146 54 q 272 23 214 23 q 395 57 349 23 q 440 150 440 92 q 404 226 440 200 q 273 269 369 251 q 100 334 150 292 q 52 458 52 376 q 122 598 52 545 q 308 651 193 651 q 399 641 349 651 q 493 615 449 631 q 486 538 488 570 q 486 460 485 505 l 447 460 z "},"t":{"ha":453,"x_min":31,"x_max":445,"o":"m 291 -16 q 170 19 202 -16 q 138 153 138 55 l 138 530 l 138 530 l 31 525 l 31 553 l 52 562 l 138 596 l 138 596 l 138 654 q 136 753 138 709 q 131 808 134 798 l 250 863 l 267 848 q 258 754 262 814 q 254 639 254 693 l 254 596 l 256 596 l 445 605 l 433 530 l 366 530 l 254 530 l 254 530 l 254 164 q 271 93 254 115 q 327 71 289 71 q 369 78 347 71 q 411 98 391 85 l 429 74 l 361 -3 q 329 -13 347 -9 q 291 -16 311 -16 z "},"u":{"ha":838,"x_min":25,"x_max":806,"o":"m 254 637 l 254 222 q 288 93 254 130 q 406 56 321 56 q 524 113 470 56 q 569 174 550 139 q 578 197 575 184 q 582 222 582 210 l 582 448 q 572 537 582 519 q 524 555 563 555 l 469 555 l 469 593 q 578 615 532 604 q 685 650 623 627 l 698 638 l 698 637 l 698 144 q 707 61 698 78 q 753 41 716 43 l 806 37 l 806 -4 q 691 0 739 0 q 575 -4 642 0 q 581 61 578 33 l 583 121 l 583 121 l 583 121 q 451 5 482 26 q 329 -28 405 -28 q 183 19 228 -28 q 138 172 138 66 l 138 448 q 129 537 138 519 q 80 555 119 555 l 25 555 l 25 593 q 134 615 89 604 q 241 650 180 627 l 254 638 l 254 637 z "},"v":{"ha":785,"x_min":8,"x_max":745,"o":"m 130 491 q 89 574 102 557 q 47 593 75 591 l 8 597 l 8 638 q 168 634 101 634 q 330 638 236 634 l 330 597 l 273 593 q 230 573 233 591 q 253 490 227 556 l 404 109 l 404 109 l 404 109 l 538 431 q 585 563 584 536 q 542 593 585 590 l 483 597 l 483 638 q 614 634 559 634 q 745 638 669 634 l 745 597 l 704 593 q 660 573 674 590 q 617 490 646 556 l 465 140 q 429 54 446 97 q 407 -9 412 10 l 369 -9 l 331 -9 q 309 57 326 13 q 275 141 293 100 l 130 491 z "},"w":{"ha":1158,"x_min":8,"x_max":1123,"o":"m 283 -9 q 261 76 273 31 q 240 145 248 121 l 152 420 q 97 562 113 533 q 51 593 80 590 l 8 597 l 8 638 q 170 634 102 634 q 334 638 239 634 l 334 597 l 277 593 q 232 573 237 591 q 248 490 227 556 l 353 142 l 353 142 l 353 142 l 511 502 q 549 593 532 550 q 569 651 566 637 l 588 651 l 607 651 q 629 581 614 625 q 660 500 644 537 l 807 126 l 807 126 l 807 126 l 919 431 q 951 563 958 533 q 885 595 945 593 l 848 597 l 848 638 q 986 634 928 634 q 1123 638 1044 634 l 1123 597 l 1108 596 q 1044 572 1064 595 q 988 458 1025 549 l 863 142 q 831 58 846 102 q 809 -9 815 14 l 775 -9 l 741 -9 q 721 51 736 7 q 686 140 705 94 l 551 464 l 551 464 l 551 464 l 410 140 q 372 48 389 92 q 351 -9 355 5 l 317 -9 l 283 -9 z "},"x":{"ha":717,"x_min":28,"x_max":689,"o":"m 131 100 l 301 306 l 301 306 l 291 321 l 148 523 q 105 573 119 562 q 60 586 90 583 l 35 588 l 28 624 l 106 637 l 185 652 q 224 614 192 652 q 281 536 256 576 q 376 395 331 460 l 376 395 l 376 395 l 429 466 q 478 534 458 505 q 550 638 498 562 l 606 638 l 663 638 l 663 598 l 635 598 q 604 586 617 596 q 555 534 591 575 l 402 355 l 402 355 l 425 323 l 501 214 q 606 73 581 102 q 658 41 632 45 l 689 37 l 689 -4 q 604 0 640 0 q 519 -4 568 0 q 439 102 511 -4 q 331 262 382 189 l 331 262 l 331 262 l 263 172 q 200 87 219 115 q 147 0 181 58 l 87 0 l 28 0 l 28 37 l 52 37 q 81 47 68 37 q 131 100 94 58 z "},"y":{"ha":772,"x_min":17,"x_max":760,"o":"m 631 490 l 313 -239 q 224 -370 268 -332 q 118 -408 180 -408 q 38 -385 71 -408 l 71 -281 l 87 -281 q 162 -315 114 -315 q 218 -291 189 -315 q 267 -225 247 -266 l 351 -31 l 351 -31 l 166 420 q 101 562 119 534 q 56 593 83 591 l 17 597 l 17 638 q 177 634 110 634 q 338 638 245 634 l 338 597 l 282 593 q 238 573 241 591 q 263 490 235 556 l 415 117 l 415 117 l 415 117 l 549 431 q 595 563 595 536 q 554 593 596 590 l 495 597 l 495 638 q 627 634 572 634 q 760 638 683 634 l 760 597 l 718 593 q 675 573 690 590 q 631 490 661 556 z "},"z":{"ha":694,"x_min":22,"x_max":647,"o":"m 22 28 q 258 314 161 193 q 472 587 350 429 l 472 587 l 292 587 q 171 580 197 587 q 140 548 144 574 l 123 458 l 83 458 q 91 548 89 511 q 94 638 93 586 l 94 638 l 404 634 l 404 634 l 636 638 l 636 622 l 636 606 q 401 320 498 441 q 186 47 309 206 l 186 47 l 427 47 q 544 57 511 47 q 583 92 576 66 l 606 195 l 647 195 q 633 96 638 137 q 625 -4 629 54 l 625 -4 l 254 0 l 254 0 l 22 -4 l 22 12 l 22 28 z "},"{":{"ha":463,"x_min":81,"x_max":401,"o":"m 401 -243 q 230 -199 275 -239 q 184 -52 184 -159 l 184 201 q 165 334 184 300 q 81 382 146 368 l 81 384 q 165 432 146 398 q 184 566 184 466 l 184 818 q 230 965 184 925 q 401 1010 275 1006 l 401 1005 q 316 949 347 1003 q 286 803 286 896 l 286 551 q 248 422 286 458 q 175 383 227 402 l 175 383 q 248 345 226 366 q 286 216 286 309 l 286 -37 q 316 -183 286 -130 q 401 -239 347 -237 l 401 -243 z "},"|":{"ha":842,"x_min":382,"x_max":460,"o":"m 382 -347 l 382 1042 l 460 1042 l 460 -347 l 382 -347 z "},"}":{"ha":463,"x_min":61,"x_max":382,"o":"m 61 -243 l 61 -239 q 146 -183 115 -237 q 177 -37 177 -130 l 177 216 q 215 345 177 309 q 288 383 237 366 l 288 383 q 215 422 236 402 q 177 551 177 458 l 177 803 q 146 949 177 896 q 61 1005 115 1003 l 61 1010 q 233 965 187 1006 q 279 818 279 925 l 279 566 q 298 432 279 466 q 382 384 317 398 l 382 382 q 298 334 317 368 q 279 201 279 300 l 279 -52 q 233 -199 279 -159 q 61 -243 187 -239 z "},"~":{"ha":842,"x_min":71,"x_max":770,"o":"m 71 299 q 160 418 108 375 q 269 461 213 461 q 329 450 292 461 q 441 407 366 438 q 533 371 503 381 q 578 361 562 361 q 655 393 618 361 q 721 484 692 424 l 770 427 q 683 313 731 351 q 576 275 634 275 q 508 286 544 275 q 407 326 471 296 q 318 362 348 352 q 267 372 288 372 q 187 340 224 372 q 120 243 151 308 l 71 299 z "}," ":{"ha":347,"x_min":0,"x_max":0,"o":""},"¡":{"ha":386,"x_min":113,"x_max":274,"o":"m 215 371 l 269 -254 l 153 -311 l 113 -311 l 168 345 l 200 371 l 215 371 m 193 491 q 136 514 159 491 q 113 572 113 538 q 136 629 113 606 q 193 652 159 652 q 251 629 227 652 q 274 572 274 606 q 251 514 274 538 q 193 491 227 491 z "},"¢":{"ha":694,"x_min":85,"x_max":623,"o":"m 487 781 l 541 781 l 503 651 q 549 644 530 649 q 617 616 587 636 q 606 526 609 564 q 603 435 603 488 l 564 435 l 564 435 l 553 513 q 550 528 552 523 q 541 538 547 533 q 479 570 513 557 l 335 79 q 452 49 385 49 q 522 57 492 49 q 610 91 551 64 l 623 71 l 595 28 q 503 -9 548 3 q 403 -20 457 -20 q 309 -10 352 -20 l 270 -142 l 216 -142 l 259 5 q 170 64 208 27 q 85 295 85 149 q 116 465 85 398 q 211 569 146 532 q 264 596 220 574 q 325 627 309 619 q 383 647 355 641 q 449 653 412 653 l 450 653 l 487 781 m 290 113 l 429 583 q 374 589 404 589 q 253 526 296 589 q 210 352 210 464 q 276 132 210 214 l 291 115 l 290 113 z "},"£":{"ha":694,"x_min":17,"x_max":664,"o":"m 653 11 q 607 -7 633 -1 q 548 -13 581 -13 q 457 -7 510 -13 q 364 6 404 -2 q 208 36 267 26 q 117 45 149 45 l 104 45 q 47 -18 75 5 l 17 -18 l 17 50 q 84 85 35 71 q 116 154 101 114 q 151 374 151 250 l 151 437 l 17 434 l 29 496 l 151 492 l 151 646 q 273 860 151 756 q 526 964 395 964 q 601 955 566 964 q 664 928 636 946 q 652 834 654 874 q 652 739 650 794 l 606 739 q 575 864 608 829 q 458 899 543 899 q 316 825 364 899 q 267 608 267 751 l 267 491 l 275 492 q 521 499 378 492 l 515 431 q 267 439 372 439 q 191 195 267 350 q 140 98 165 140 q 258 105 193 104 q 310 104 283 105 q 368 102 337 104 q 479 98 414 100 q 560 96 545 96 l 568 96 q 601 117 593 96 q 617 220 610 138 l 653 220 l 653 115 l 653 11 l 653 11 z "},"¤":{"ha":694,"x_min":41,"x_max":653,"o":"m 563 434 q 500 585 563 523 q 347 646 438 646 q 194 585 256 646 q 132 434 132 523 q 194 284 132 345 q 347 222 256 222 q 500 284 438 222 q 563 434 563 345 m 347 141 q 170 197 246 141 l 170 197 l 106 134 l 41 198 l 106 261 l 106 261 q 51 434 51 336 q 106 608 51 532 l 106 608 l 41 671 l 106 736 l 171 671 l 171 671 q 347 728 246 728 q 524 672 449 728 l 524 672 l 589 736 l 653 671 l 589 608 l 589 608 q 644 434 643 534 q 588 262 644 336 l 588 262 l 653 198 l 589 134 l 524 197 l 524 197 q 347 141 448 141 z "},"¥":{"ha":694,"x_min":7,"x_max":692,"o":"m 96 475 l 96 530 l 251 530 l 251 530 l 201 646 l 182 688 q 94 855 127 811 q 20 903 60 899 l 7 904 l 7 945 l 71 960 l 136 975 q 188 952 171 975 q 247 827 204 930 l 296 706 l 385 470 l 385 470 q 479 674 439 585 q 597 964 532 795 l 597 964 l 644 964 l 692 964 l 692 947 l 692 943 q 678 923 688 939 q 653 882 668 907 q 526 656 578 755 q 465 530 496 599 l 465 530 l 634 530 l 634 475 l 439 475 l 439 475 q 422 422 427 445 q 416 349 416 393 l 416 340 l 416 340 l 634 340 l 634 286 l 416 286 l 416 286 l 416 168 q 426 65 416 86 q 477 41 436 44 l 534 37 l 534 -4 q 366 0 437 0 q 198 -4 296 0 l 198 37 l 254 41 q 305 65 295 44 q 315 168 315 86 l 315 286 l 315 286 l 96 286 l 96 340 l 315 340 l 315 340 l 315 346 q 313 380 315 370 q 300 414 311 391 l 274 475 l 274 475 l 96 475 z "},"¦":{"ha":842,"x_min":382,"x_max":460,"o":"m 382 -232 l 382 231 l 460 231 l 460 -232 l 382 -232 m 382 463 l 382 926 l 460 926 l 460 463 l 382 463 z "},"§":{"ha":694,"x_min":36,"x_max":646,"o":"m 366 985 q 476 972 416 985 q 585 937 536 959 q 565 824 571 872 q 557 709 559 776 l 514 709 l 514 709 l 514 797 q 509 831 514 819 q 488 854 504 842 q 431 888 462 875 q 342 909 386 909 q 207 867 259 909 q 155 758 155 825 q 208 671 155 707 q 377 605 261 635 q 582 522 518 569 q 646 406 646 475 q 552 214 646 288 l 542 206 l 559 193 q 622 65 622 140 q 521 -134 622 -45 q 296 -222 420 -222 q 175 -209 241 -222 q 54 -174 110 -196 q 73 -66 68 -112 q 81 41 79 -22 l 123 41 l 123 41 l 123 -46 q 129 -79 123 -68 q 150 -102 134 -90 q 216 -138 180 -123 q 320 -159 267 -159 q 471 -114 412 -159 q 529 2 529 -69 q 476 95 529 55 q 305 172 422 136 q 100 262 164 215 q 36 370 36 309 q 130 553 36 481 l 142 562 l 134 569 q 72 698 72 620 q 163 897 72 808 q 366 985 254 985 m 544 342 q 493 421 544 387 q 331 483 443 454 q 182 537 240 506 q 138 433 138 494 q 190 359 138 393 q 357 290 242 325 q 501 232 444 262 q 544 342 543 277 z "},"¨":{"ha":463,"x_min":24,"x_max":439,"o":"m 93 910 q 142 890 122 910 q 162 841 162 870 q 142 792 162 812 q 93 772 122 772 q 44 792 64 772 q 24 841 24 812 q 44 890 24 870 q 93 910 64 910 m 370 910 q 419 890 399 910 q 439 841 439 870 q 419 792 439 812 q 370 772 399 772 q 320 792 340 772 q 300 841 300 812 q 320 890 300 870 q 370 910 340 910 z "},"©":{"ha":1038,"x_min":16,"x_max":1022,"o":"m 519 982 q 873 833 725 982 q 1022 479 1022 685 q 874 124 1022 273 q 519 -24 726 -24 q 164 124 312 -24 q 16 479 16 273 q 164 833 16 685 q 519 982 313 982 l 519 982 m 961 479 q 831 790 961 660 q 519 920 701 920 q 207 790 337 920 q 77 479 77 660 q 207 168 77 298 q 519 37 338 37 q 830 168 700 37 q 961 479 961 298 l 961 479 m 720 336 l 749 323 q 657 223 715 257 q 520 189 600 189 q 325 267 401 189 q 250 470 250 346 q 327 683 250 604 q 536 761 404 761 q 637 751 583 761 q 734 724 690 741 l 734 724 l 734 576 l 698 576 l 698 576 l 697 586 q 692 617 696 606 q 682 644 689 629 q 637 700 662 682 q 547 726 604 726 q 399 660 456 726 q 342 488 342 593 q 400 304 342 377 q 547 232 458 232 q 640 254 604 232 q 714 331 676 275 l 720 336 z "},"ª":{"ha":463,"x_min":33,"x_max":431,"o":"m 144 584 q 63 612 94 584 q 33 686 33 640 q 73 768 33 736 q 195 816 113 800 l 299 836 l 299 838 q 270 914 299 887 q 189 941 241 941 q 149 938 165 941 q 126 927 136 936 q 109 904 116 919 l 94 871 l 94 871 l 70 876 l 70 931 l 70 931 q 161 974 129 962 q 220 985 193 985 q 331 953 292 985 q 370 861 370 921 l 370 728 q 376 635 370 653 q 406 616 382 616 l 431 616 l 431 591 q 362 593 391 593 q 294 589 334 593 l 297 663 l 297 663 l 182 589 q 144 584 160 584 m 299 696 l 299 809 l 299 809 l 232 796 q 142 761 171 785 q 113 699 113 736 q 131 651 113 668 q 183 635 150 635 q 261 665 216 635 q 299 696 283 680 l 299 696 z "},"«":{"ha":694,"x_min":69,"x_max":625,"o":"m 346 577 l 182 345 l 182 345 l 346 119 l 313 98 l 69 334 l 69 344 l 69 354 l 316 595 l 346 577 m 625 577 l 461 345 l 461 345 l 625 119 l 593 98 l 349 334 l 349 344 l 349 354 l 595 595 l 625 577 z "},"¬":{"ha":842,"x_min":71,"x_max":765,"o":"m 686 458 l 71 458 l 71 536 l 765 536 l 765 169 l 686 169 l 686 458 z "},"­":{"ha":463,"x_min":24,"x_max":434,"o":"m 64 398 l 434 398 l 394 299 l 24 299 l 64 398 z "},"®":{"ha":1038,"x_min":16,"x_max":1022,"o":"m 519 982 q 876 836 730 982 q 1022 479 1022 690 q 876 121 1022 267 q 519 -24 730 -24 q 161 121 307 -24 q 16 479 16 267 q 162 836 16 690 q 519 982 308 982 l 519 982 m 961 479 q 833 792 961 664 q 519 920 705 920 q 205 792 333 920 q 77 479 77 664 q 205 165 77 294 q 519 37 334 37 q 832 165 704 37 q 961 479 961 294 l 961 479 m 353 317 l 353 668 q 347 728 353 716 q 318 741 341 741 l 286 743 l 286 767 l 391 767 l 391 767 l 518 767 q 670 734 623 767 q 718 631 718 702 q 665 525 718 565 q 559 488 623 494 l 559 488 q 616 456 591 478 q 674 366 648 427 q 723 264 709 285 q 754 243 736 244 l 787 241 l 787 218 l 720 218 q 654 242 680 218 q 606 326 629 267 l 594 357 q 543 452 567 431 q 465 473 519 473 l 429 473 l 429 473 l 429 317 q 435 257 429 269 q 463 243 440 245 l 495 241 l 495 218 l 391 218 l 286 218 l 286 241 l 318 243 q 347 256 341 244 q 353 317 353 269 m 429 501 l 429 501 l 459 501 q 596 531 552 501 q 640 625 640 562 q 606 712 640 684 q 505 741 573 741 l 475 741 q 440 731 450 741 q 429 696 429 720 l 429 501 z "},"¯":{"ha":694,"x_min":0,"x_max":694,"o":"m 0 1062 l 0 1132 l 694 1132 l 694 1062 l 0 1062 z "},"°":{"ha":555,"x_min":69,"x_max":486,"o":"m 277 957 q 426 896 365 957 q 486 748 486 836 q 426 600 486 661 q 277 540 365 540 q 130 600 190 540 q 69 748 69 661 q 130 896 69 836 q 277 957 190 957 m 430 748 q 386 857 430 812 q 277 901 342 901 q 170 857 214 901 q 125 748 125 812 q 170 640 125 684 q 277 596 214 596 q 386 640 342 596 q 430 748 430 684 z "},"±":{"ha":842,"x_min":71,"x_max":770,"o":"m 381 393 l 71 393 l 71 472 l 381 472 l 381 709 l 460 709 l 460 472 l 770 472 l 770 393 l 460 393 l 460 156 l 381 156 l 381 393 m 71 77 l 770 77 l 770 -2 l 71 -2 l 71 77 z "},"²":{"ha":416,"x_min":0,"x_max":417,"o":"m 382 790 q 351 690 382 738 q 233 559 319 642 l 123 456 l 123 456 l 208 456 q 417 462 296 458 l 417 379 q 209 382 296 382 q 0 379 121 382 l 0 392 l 0 406 l 197 597 q 267 686 243 640 q 290 777 290 732 q 258 854 290 825 q 176 883 227 883 q 117 870 144 883 l 96 858 q 84 845 89 854 q 71 814 79 836 l 54 769 l 54 769 l 20 769 l 36 892 l 36 892 q 107 937 66 921 q 190 954 149 954 q 330 908 277 954 q 382 790 382 863 z "},"³":{"ha":416,"x_min":1,"x_max":415,"o":"m 294 808 q 266 869 294 844 q 198 894 237 894 q 130 878 162 894 q 96 854 109 868 q 87 841 91 848 q 79 819 83 834 l 73 801 l 73 801 l 37 801 l 64 907 l 64 907 q 137 944 97 930 q 205 958 178 958 q 327 922 279 958 q 376 829 376 885 q 314 726 376 778 q 269 695 292 707 l 269 695 q 363 664 327 688 q 415 562 415 629 q 336 429 415 488 q 158 370 256 370 q 96 376 128 370 q 39 393 64 382 q 24 459 32 432 q 1 524 16 486 l 40 538 q 97 441 62 469 q 195 414 132 414 q 289 453 252 414 q 325 555 325 492 q 291 628 325 602 q 199 655 258 655 q 158 646 182 655 q 130 633 143 641 l 121 640 l 136 705 q 178 701 154 701 q 217 705 201 701 q 245 719 231 709 q 294 808 294 751 z "},"´":{"ha":463,"x_min":109,"x_max":422,"o":"m 109 729 l 109 729 l 319 942 l 330 951 q 374 969 352 968 q 410 954 396 970 q 422 923 421 939 l 420 913 q 392 873 416 893 l 382 867 l 165 729 l 165 729 l 109 729 z "},"µ":{"ha":838,"x_min":25,"x_max":807,"o":"m 254 637 l 254 211 q 290 93 254 130 q 406 56 326 56 q 504 98 454 56 q 583 203 554 139 l 583 203 l 583 448 q 574 537 583 519 q 525 555 564 555 l 470 555 l 470 593 q 579 615 534 604 q 686 650 625 627 l 699 638 l 699 637 l 699 144 q 708 61 699 78 q 755 41 718 43 l 807 37 l 807 -4 q 693 1 741 -1 q 578 0 645 1 l 578 0 l 585 126 l 585 126 l 585 126 q 455 6 494 34 q 336 -28 406 -28 q 210 2 256 -28 l 210 2 l 237 -266 q 199 -304 237 -280 q 138 -328 161 -328 l 138 -328 l 138 -324 l 138 45 l 138 448 q 129 537 138 519 q 80 555 119 555 l 25 555 l 25 593 q 134 615 89 604 q 241 650 180 627 l 254 638 l 254 637 z "},"¶":{"ha":872,"x_min":54,"x_max":818,"o":"m 390 480 l 390 480 q 154 558 254 481 q 54 741 54 634 q 122 901 54 845 q 313 957 189 957 l 818 957 l 818 911 l 758 911 q 708 891 728 911 q 688 842 688 871 l 688 -97 q 708 -146 688 -126 q 758 -166 728 -166 l 818 -166 l 818 -205 l 260 -205 l 260 -166 l 321 -166 q 370 -146 350 -166 q 390 -97 390 -126 l 390 480 m 587 911 l 587 911 l 490 911 l 490 911 l 490 -166 l 490 -166 l 587 -166 l 587 -166 l 587 911 m 208 719 q 264 587 208 645 q 390 530 319 530 l 390 530 l 390 911 l 390 911 q 258 858 309 911 q 208 719 208 806 z "},"·":{"ha":347,"x_min":93,"x_max":254,"o":"m 174 557 q 231 533 208 557 q 254 476 254 510 q 231 419 254 442 q 174 395 208 395 q 116 419 140 395 q 93 476 93 442 q 116 533 93 510 q 174 557 140 557 z "},"¸":{"ha":463,"x_min":134,"x_max":422,"o":"m 302 -14 l 267 -103 l 267 -103 q 308 -98 293 -98 q 391 -125 359 -98 q 422 -197 422 -153 q 376 -281 422 -250 q 252 -313 330 -313 q 199 -308 224 -313 q 134 -290 174 -303 l 154 -247 q 199 -258 176 -254 q 238 -262 222 -262 q 300 -248 281 -262 q 319 -199 319 -233 q 303 -163 319 -177 q 264 -149 288 -149 q 234 -151 250 -149 q 207 -158 219 -154 l 197 -150 l 255 -14 l 302 -14 z "},"¹":{"ha":416,"x_min":43,"x_max":374,"o":"m 181 527 l 181 869 q 176 880 181 876 q 164 880 172 883 q 59 837 120 864 l 50 837 l 43 882 q 150 920 105 902 q 255 964 195 937 l 269 957 l 269 957 l 269 527 q 279 434 269 452 q 332 416 290 416 l 374 416 l 374 378 q 223 381 286 381 q 72 378 159 381 l 72 416 l 115 416 q 170 434 159 416 q 181 527 181 452 z "},"º":{"ha":463,"x_min":14,"x_max":449,"o":"m 221 578 q 68 633 123 578 q 14 785 14 688 q 79 927 14 869 q 241 985 145 985 q 389 931 329 985 q 449 798 449 877 q 386 640 449 701 q 221 578 322 578 l 221 578 m 241 607 q 331 649 298 607 q 363 765 363 692 q 325 905 363 854 q 221 956 287 956 q 132 918 165 956 q 99 815 99 880 q 137 663 99 719 q 241 607 176 607 l 241 607 z "},"»":{"ha":694,"x_min":69,"x_max":625,"o":"m 69 115 l 233 347 l 233 347 l 69 572 l 102 593 l 346 358 l 346 348 l 346 338 l 99 97 l 69 115 m 349 115 l 513 347 l 513 347 l 349 572 l 381 593 l 625 358 l 625 348 l 625 338 l 378 97 l 349 115 z "},"∕":{"ha":232,"x_min":-230,"x_max":467,"o":"m 467 957 l -159 3 l -230 3 l 397 957 l 467 957 z "},"¼":{"ha":1042,"x_min":41,"x_max":1010,"o":"m 915 957 l 288 3 l 218 3 l 844 957 l 915 957 m 180 527 l 180 869 q 175 880 180 876 q 163 880 170 883 q 58 837 119 864 l 49 837 l 41 882 q 149 920 104 902 q 254 964 193 937 l 267 957 l 267 957 l 267 527 q 278 434 267 452 q 330 416 288 416 l 372 416 l 372 378 q 222 381 285 381 q 71 378 158 381 l 71 416 l 114 416 q 169 434 158 416 q 180 527 180 452 m 829 153 l 586 153 l 583 163 l 579 174 l 832 556 l 909 583 l 921 578 q 915 503 918 551 q 913 415 913 456 l 913 216 l 913 216 l 934 216 q 983 217 961 216 q 1010 219 1005 218 l 1010 149 q 983 152 1005 151 q 934 153 961 153 l 913 153 l 913 153 l 913 149 q 922 56 913 74 q 968 37 931 37 l 1006 37 l 1006 0 q 861 3 922 3 q 718 0 801 3 l 718 37 l 762 37 q 818 56 807 37 q 829 149 829 74 l 829 153 l 829 153 m 829 216 l 829 216 l 829 486 l 829 486 l 829 486 l 749 368 q 652 216 706 302 l 652 216 l 829 216 z "},"½":{"ha":1042,"x_min":21,"x_max":1021,"o":"m 869 957 l 243 3 l 172 3 l 799 957 l 869 957 m 159 527 l 159 869 q 155 880 159 876 q 142 880 150 883 q 37 837 98 864 l 28 837 l 21 882 q 128 920 83 902 q 233 964 173 937 l 247 957 l 247 957 l 247 527 q 257 434 247 452 q 310 416 268 416 l 352 416 l 352 378 q 201 381 264 381 q 50 378 138 381 l 50 416 l 94 416 q 149 434 138 416 q 159 527 159 452 m 986 411 q 954 311 986 359 q 836 180 923 262 l 726 77 l 726 77 l 812 77 q 1021 83 899 79 l 1021 0 q 812 3 900 3 q 604 0 725 3 l 604 13 l 604 26 l 801 218 q 870 307 846 261 q 893 398 893 353 q 862 475 893 446 q 779 504 831 504 q 721 491 748 504 l 699 479 q 687 466 692 475 q 674 435 682 457 l 658 390 l 658 390 l 624 390 l 640 513 l 640 513 q 711 558 670 542 q 793 574 752 574 q 933 529 880 574 q 986 411 986 484 z "},"¾":{"ha":1042,"x_min":21,"x_max":1021,"o":"m 927 957 l 300 3 l 230 3 l 857 957 l 927 957 m 313 808 q 285 869 313 844 q 218 894 257 894 q 150 878 182 894 q 116 854 129 868 q 107 841 111 848 q 98 819 103 834 l 92 801 l 92 801 l 56 801 l 83 907 l 83 907 q 157 944 117 930 q 225 958 197 958 q 347 922 298 958 q 395 829 395 885 q 334 726 395 778 q 288 695 311 707 l 288 695 q 382 664 347 688 q 435 562 435 629 q 355 429 435 488 q 178 370 276 370 q 116 376 148 370 q 59 393 83 382 q 43 459 52 432 q 21 524 35 486 l 60 538 q 116 441 81 469 q 214 414 151 414 q 308 453 272 414 q 345 555 345 492 q 311 628 345 602 q 219 655 277 655 q 178 646 201 655 q 150 633 163 641 l 141 640 l 155 705 q 197 701 174 701 q 237 705 221 701 q 264 719 250 709 q 313 808 313 751 m 840 153 l 597 153 l 593 163 l 590 174 l 843 556 l 920 583 l 932 578 q 926 503 928 551 q 924 415 924 456 l 924 216 l 924 216 l 945 216 q 994 217 972 216 q 1021 219 1016 218 l 1021 149 q 994 152 1016 151 q 945 153 972 153 l 924 153 l 924 153 l 924 149 q 933 56 924 74 q 979 37 942 37 l 1017 37 l 1017 0 q 872 3 932 3 q 728 0 812 3 l 728 37 l 773 37 q 829 56 818 37 q 840 149 840 74 l 840 153 l 840 153 m 840 216 l 840 216 l 840 486 l 840 486 l 840 486 l 760 368 q 663 216 717 302 l 663 216 l 840 216 z "},"¿":{"ha":616,"x_min":60,"x_max":549,"o":"m 355 -229 q 419 -219 388 -229 l 443 -211 q 465 -196 457 -206 q 484 -163 473 -186 l 508 -104 l 508 -104 l 549 -115 l 495 -271 l 495 -271 q 406 -308 454 -294 q 321 -321 358 -321 q 133 -262 205 -321 q 60 -109 60 -203 q 87 -1 60 -44 q 218 139 115 43 q 329 249 314 229 q 344 310 344 269 q 334 341 344 323 q 311 372 325 359 l 338 391 q 387 347 372 372 q 402 288 402 323 q 374 209 402 255 q 296 112 347 163 q 215 11 241 57 q 190 -78 190 -35 q 236 -186 190 -144 q 355 -229 282 -229 m 336 488 q 279 512 302 488 q 256 569 256 535 q 279 626 256 603 q 336 650 302 650 q 394 626 370 650 q 417 569 417 603 q 394 512 417 535 q 336 488 370 488 z "},"À":{"ha":1080,"x_min":21,"x_max":1046,"o":"m 174 168 l 520 969 l 543 969 l 566 969 l 869 253 q 951 79 929 114 q 1003 41 973 44 l 1046 37 l 1046 -4 q 862 0 939 0 q 679 -4 785 0 l 679 37 l 745 41 q 796 64 793 43 q 766 168 800 85 l 705 317 l 705 317 l 310 317 l 310 317 l 279 240 q 222 76 223 109 q 271 41 220 43 l 341 37 l 341 -4 q 182 0 249 0 q 21 -4 114 0 l 21 37 l 69 41 q 121 65 104 44 q 174 168 138 86 m 511 789 l 335 374 l 335 374 l 682 374 l 682 374 l 511 789 l 511 789 l 511 789 m 605 1022 l 605 1022 l 389 1159 l 379 1166 q 351 1205 357 1184 l 349 1218 q 359 1242 349 1231 q 395 1262 374 1262 q 441 1243 416 1263 l 449 1236 l 662 1021 l 662 1021 l 605 1022 z "},"Á":{"ha":1080,"x_min":21,"x_max":1046,"o":"m 174 168 l 520 969 l 543 969 l 566 969 l 869 253 q 951 79 929 114 q 1003 41 973 44 l 1046 37 l 1046 -4 q 862 0 939 0 q 679 -4 785 0 l 679 37 l 745 41 q 796 64 793 43 q 766 168 800 85 l 705 317 l 705 317 l 310 317 l 310 317 l 279 240 q 222 76 223 109 q 271 41 220 43 l 341 37 l 341 -4 q 182 0 249 0 q 21 -4 114 0 l 21 37 l 69 41 q 121 65 104 44 q 174 168 138 86 m 511 789 l 335 374 l 335 374 l 682 374 l 682 374 l 511 789 l 511 789 l 511 789 m 432 1021 l 432 1021 l 643 1234 l 653 1243 q 697 1262 675 1261 q 733 1246 720 1263 q 745 1215 745 1231 l 744 1206 q 715 1166 740 1185 l 706 1159 l 488 1021 l 488 1021 l 432 1021 z "},"Â":{"ha":1080,"x_min":21,"x_max":1046,"o":"m 174 168 l 520 969 l 543 969 l 566 969 l 869 253 q 951 79 929 114 q 1003 41 973 44 l 1046 37 l 1046 -4 q 862 0 939 0 q 679 -4 785 0 l 679 37 l 745 41 q 796 64 793 43 q 766 168 800 85 l 705 317 l 705 317 l 310 317 l 310 317 l 279 240 q 222 76 223 109 q 271 41 220 43 l 341 37 l 341 -4 q 182 0 249 0 q 21 -4 114 0 l 21 37 l 69 41 q 121 65 104 44 q 174 168 138 86 m 511 789 l 335 374 l 335 374 l 682 374 l 682 374 l 511 789 l 511 789 l 511 789 m 590 1259 l 764 1027 l 715 1027 l 547 1171 l 547 1171 l 380 1027 l 331 1027 l 505 1259 l 547 1259 l 590 1259 z "},"Ã":{"ha":1080,"x_min":21,"x_max":1046,"o":"m 174 168 l 520 969 l 543 969 l 566 969 l 869 253 q 951 79 929 114 q 1003 41 973 44 l 1046 37 l 1046 -4 q 862 0 939 0 q 679 -4 785 0 l 679 37 l 745 41 q 796 64 793 43 q 766 168 800 85 l 705 317 l 705 317 l 310 317 l 310 317 l 279 240 q 222 76 223 109 q 271 41 220 43 l 341 37 l 341 -4 q 182 0 249 0 q 21 -4 114 0 l 21 37 l 69 41 q 121 65 104 44 q 174 168 138 86 m 511 789 l 335 374 l 335 374 l 682 374 l 682 374 l 511 789 l 511 789 l 511 789 m 314 1061 q 366 1163 326 1126 q 465 1200 406 1200 q 504 1193 483 1200 q 564 1169 526 1186 q 624 1144 604 1151 q 654 1137 644 1137 q 700 1155 680 1137 q 732 1206 720 1173 l 772 1206 q 725 1104 769 1148 q 627 1061 682 1061 q 577 1066 599 1061 q 527 1088 555 1072 q 467 1116 488 1108 q 428 1124 445 1124 q 385 1106 405 1124 q 354 1061 364 1089 l 314 1061 z "},"Ä":{"ha":1080,"x_min":21,"x_max":1046,"o":"m 174 168 l 520 969 l 543 969 l 566 969 l 869 253 q 951 79 929 114 q 1003 41 973 44 l 1046 37 l 1046 -4 q 862 0 939 0 q 679 -4 785 0 l 679 37 l 745 41 q 796 64 793 43 q 766 168 800 85 l 705 317 l 705 317 l 310 317 l 310 317 l 279 240 q 222 76 223 109 q 271 41 220 43 l 341 37 l 341 -4 q 182 0 249 0 q 21 -4 114 0 l 21 37 l 69 41 q 121 65 104 44 q 174 168 138 86 m 511 789 l 335 374 l 335 374 l 682 374 l 682 374 l 511 789 l 511 789 l 511 789 m 405 1202 q 454 1182 434 1202 q 474 1133 474 1162 q 454 1084 474 1104 q 405 1064 434 1064 q 356 1084 376 1064 q 336 1133 336 1104 q 356 1182 336 1162 q 405 1202 376 1202 m 682 1202 q 731 1182 711 1202 q 751 1133 751 1162 q 731 1084 751 1104 q 682 1064 711 1064 q 632 1084 652 1064 q 612 1133 612 1104 q 632 1182 612 1162 q 682 1202 652 1202 z "},"Å":{"ha":1080,"x_min":21,"x_max":1046,"o":"m 174 168 l 520 969 l 543 969 l 566 969 l 869 253 q 951 79 929 114 q 1003 41 973 44 l 1046 37 l 1046 -4 q 862 0 939 0 q 679 -4 785 0 l 679 37 l 745 41 q 796 64 793 43 q 766 168 800 85 l 705 317 l 705 317 l 310 317 l 310 317 l 279 240 q 222 76 223 109 q 271 41 220 43 l 341 37 l 341 -4 q 182 0 249 0 q 21 -4 114 0 l 21 37 l 69 41 q 121 65 104 44 q 174 168 138 86 m 511 789 l 335 374 l 335 374 l 682 374 l 682 374 l 511 789 l 511 789 l 511 789 m 543 1008 q 445 1048 485 1008 q 404 1147 404 1088 q 445 1245 404 1205 q 543 1286 485 1286 q 642 1245 602 1286 q 682 1147 682 1205 q 642 1048 682 1088 q 543 1008 602 1008 l 543 1008 m 543 1057 q 604 1083 579 1057 q 629 1147 629 1109 q 604 1210 629 1184 q 543 1236 579 1236 q 482 1210 507 1236 q 457 1147 457 1184 q 482 1083 457 1109 q 543 1057 507 1057 l 543 1057 z "},"Æ":{"ha":1311,"x_min":-13,"x_max":1260,"o":"m 567 -4 l 567 24 l 604 45 q 636 91 629 73 q 642 155 642 109 l 642 335 l 642 335 q 524 340 576 340 q 304 334 429 340 l 304 334 l 218 179 q 175 81 174 102 q 224 44 176 60 l 300 37 l 300 -4 q 144 0 210 0 q -13 -4 78 0 l -13 37 l 23 41 q 66 65 48 44 q 130 168 83 86 l 479 789 q 527 892 528 871 q 470 916 525 913 l 397 920 l 397 961 q 660 956 523 958 q 869 957 797 955 l 869 957 q 1103 960 996 961 q 1238 955 1210 960 l 1238 955 q 1221 851 1226 895 q 1217 745 1217 807 l 1168 745 l 1168 855 q 1111 883 1168 870 q 964 899 1053 895 q 859 902 909 902 l 768 899 l 768 899 l 768 519 l 768 519 l 928 516 q 1071 530 1053 516 q 1094 640 1089 543 l 1135 640 q 1131 483 1131 549 q 1135 325 1131 416 l 1094 325 q 1071 444 1089 429 q 928 458 1053 458 q 768 454 856 458 l 768 454 l 768 60 l 768 60 q 940 52 863 52 q 1119 61 1019 52 q 1182 94 1166 66 q 1211 229 1198 123 l 1260 229 q 1243 113 1248 162 q 1238 -4 1238 64 l 1238 -4 l 768 0 l 768 0 l 567 -4 m 626 909 l 337 393 l 337 393 l 642 393 l 642 393 l 642 909 l 626 909 z "},"Ç":{"ha":985,"x_min":31,"x_max":930,"o":"m 930 117 l 891 46 q 728 -13 794 2 q 570 -28 662 -28 q 181 113 332 -28 q 31 477 31 254 q 190 844 31 702 q 602 985 350 985 q 764 969 677 985 q 922 926 850 954 q 903 823 908 867 q 895 717 897 779 l 852 717 l 852 717 l 852 804 q 847 837 852 826 q 826 858 842 847 q 730 904 784 886 q 578 927 659 927 q 288 813 395 927 q 182 504 182 700 q 305 171 182 296 q 633 46 429 46 q 789 69 711 46 q 918 130 867 92 l 930 117 m 562 -14 l 528 -103 l 528 -103 q 568 -98 553 -98 q 651 -125 620 -98 q 683 -197 683 -153 q 637 -281 683 -250 q 513 -313 591 -313 q 459 -308 484 -313 q 394 -290 435 -303 l 414 -247 q 459 -258 436 -254 q 498 -262 481 -262 q 561 -248 542 -262 q 579 -199 579 -233 q 564 -163 579 -177 q 524 -149 548 -149 q 495 -151 510 -149 q 467 -158 479 -154 l 458 -150 l 515 -14 l 562 -14 z "},"È":{"ha":848,"x_min":31,"x_max":794,"o":"m 52 -4 l 52 37 l 108 41 q 158 65 149 44 q 168 168 168 86 l 168 789 q 156 892 168 871 q 97 916 144 913 l 31 920 l 31 961 q 192 955 88 956 q 389 957 296 954 l 389 957 q 632 960 520 961 q 772 955 743 960 l 772 955 q 755 851 760 895 q 751 745 751 807 l 702 745 l 702 858 q 645 885 702 873 q 498 902 587 898 q 429 903 461 904 q 300 897 370 903 l 300 897 l 300 520 l 300 520 q 460 516 388 515 q 604 530 585 516 q 627 640 622 543 l 667 640 q 663 483 663 549 q 667 325 663 416 l 627 325 q 604 444 622 429 q 460 458 585 458 q 300 454 388 458 l 300 454 l 300 62 l 300 62 q 471 54 395 54 q 653 64 552 54 q 717 96 701 68 q 745 228 732 124 l 794 228 q 777 116 782 163 q 772 2 772 68 l 772 2 q 606 -3 718 -2 q 387 0 494 -3 l 387 0 q 187 2 284 3 q 52 -4 90 1 m 502 1022 l 502 1022 l 286 1159 l 276 1166 q 248 1205 254 1184 l 246 1218 q 256 1242 246 1231 q 292 1262 271 1262 q 338 1243 313 1263 l 346 1236 l 559 1021 l 559 1021 l 502 1022 z "},"É":{"ha":848,"x_min":31,"x_max":794,"o":"m 52 -4 l 52 37 l 108 41 q 158 65 149 44 q 168 168 168 86 l 168 789 q 156 892 168 871 q 97 916 144 913 l 31 920 l 31 961 q 192 955 88 956 q 389 957 296 954 l 389 957 q 632 960 520 961 q 772 955 743 960 l 772 955 q 755 851 760 895 q 751 745 751 807 l 702 745 l 702 858 q 645 885 702 873 q 498 902 587 898 q 429 903 461 904 q 300 897 370 903 l 300 897 l 300 520 l 300 520 q 460 516 388 515 q 604 530 585 516 q 627 640 622 543 l 667 640 q 663 483 663 549 q 667 325 663 416 l 627 325 q 604 444 622 429 q 460 458 585 458 q 300 454 388 458 l 300 454 l 300 62 l 300 62 q 471 54 395 54 q 653 64 552 54 q 717 96 701 68 q 745 228 732 124 l 794 228 q 777 116 782 163 q 772 2 772 68 l 772 2 q 606 -3 718 -2 q 387 0 494 -3 l 387 0 q 187 2 284 3 q 52 -4 90 1 m 329 1021 l 329 1021 l 540 1234 l 550 1243 q 594 1262 572 1261 q 630 1246 616 1263 q 642 1215 642 1231 l 641 1206 q 612 1166 637 1185 l 603 1159 l 385 1021 l 385 1021 l 329 1021 z "},"Ê":{"ha":848,"x_min":31,"x_max":794,"o":"m 52 -4 l 52 37 l 108 41 q 158 65 149 44 q 168 168 168 86 l 168 789 q 156 892 168 871 q 97 916 144 913 l 31 920 l 31 961 q 192 955 88 956 q 389 957 296 954 l 389 957 q 632 960 520 961 q 772 955 743 960 l 772 955 q 755 851 760 895 q 751 745 751 807 l 702 745 l 702 858 q 645 885 702 873 q 498 902 587 898 q 429 903 461 904 q 300 897 370 903 l 300 897 l 300 520 l 300 520 q 460 516 388 515 q 604 530 585 516 q 627 640 622 543 l 667 640 q 663 483 663 549 q 667 325 663 416 l 627 325 q 604 444 622 429 q 460 458 585 458 q 300 454 388 458 l 300 454 l 300 62 l 300 62 q 471 54 395 54 q 653 64 552 54 q 717 96 701 68 q 745 228 732 124 l 794 228 q 777 116 782 163 q 772 2 772 68 l 772 2 q 606 -3 718 -2 q 387 0 494 -3 l 387 0 q 187 2 284 3 q 52 -4 90 1 m 487 1259 l 661 1027 l 612 1027 l 444 1171 l 444 1171 l 277 1027 l 228 1027 l 401 1259 l 444 1259 l 487 1259 z "},"Ë":{"ha":848,"x_min":31,"x_max":794,"o":"m 52 -4 l 52 37 l 108 41 q 158 65 149 44 q 168 168 168 86 l 168 789 q 156 892 168 871 q 97 916 144 913 l 31 920 l 31 961 q 192 955 88 956 q 389 957 296 954 l 389 957 q 632 960 520 961 q 772 955 743 960 l 772 955 q 755 851 760 895 q 751 745 751 807 l 702 745 l 702 858 q 645 885 702 873 q 498 902 587 898 q 429 903 461 904 q 300 897 370 903 l 300 897 l 300 520 l 300 520 q 460 516 388 515 q 604 530 585 516 q 627 640 622 543 l 667 640 q 663 483 663 549 q 667 325 663 416 l 627 325 q 604 444 622 429 q 460 458 585 458 q 300 454 388 458 l 300 454 l 300 62 l 300 62 q 471 54 395 54 q 653 64 552 54 q 717 96 701 68 q 745 228 732 124 l 794 228 q 777 116 782 163 q 772 2 772 68 l 772 2 q 606 -3 718 -2 q 387 0 494 -3 l 387 0 q 187 2 284 3 q 52 -4 90 1 m 302 1202 q 351 1182 331 1202 q 371 1133 371 1162 q 351 1084 371 1104 q 302 1064 331 1064 q 253 1084 273 1064 q 233 1133 233 1104 q 253 1182 233 1162 q 302 1202 273 1202 m 578 1202 q 628 1182 608 1202 q 648 1133 648 1162 q 628 1084 648 1104 q 578 1064 608 1064 q 529 1084 549 1064 q 509 1133 509 1104 q 529 1182 509 1162 q 578 1202 549 1202 z "},"Ì":{"ha":468,"x_min":31,"x_max":437,"o":"m 168 168 l 168 789 q 156 893 168 872 q 97 916 144 913 l 31 920 l 31 961 q 233 957 148 957 q 437 961 319 957 l 437 920 l 371 916 q 312 893 323 913 q 300 789 300 872 l 300 168 q 312 64 300 85 q 371 41 323 43 l 437 37 l 437 -4 q 235 0 320 0 q 31 -4 149 0 l 31 37 l 97 41 q 157 64 144 43 q 168 168 168 85 m 296 1022 l 296 1022 l 80 1159 l 70 1166 q 42 1205 47 1184 l 40 1218 q 50 1242 40 1231 q 86 1262 65 1262 q 132 1243 107 1263 l 140 1236 l 353 1021 l 353 1021 l 296 1022 z "},"Í":{"ha":468,"x_min":31,"x_max":437,"o":"m 168 168 l 168 789 q 156 893 168 872 q 97 916 144 913 l 31 920 l 31 961 q 233 957 148 957 q 437 961 319 957 l 437 920 l 371 916 q 312 893 323 913 q 300 789 300 872 l 300 168 q 312 64 300 85 q 371 41 323 43 l 437 37 l 437 -4 q 235 0 320 0 q 31 -4 149 0 l 31 37 l 97 41 q 157 64 144 43 q 168 168 168 85 m 123 1021 l 123 1021 l 334 1234 l 344 1243 q 388 1262 366 1261 q 424 1246 410 1263 q 436 1215 436 1231 l 435 1206 q 406 1166 431 1185 l 397 1159 l 179 1021 l 179 1021 l 123 1021 z "},"Î":{"ha":468,"x_min":18,"x_max":451,"o":"m 165 168 l 165 789 q 153 893 165 872 q 94 916 141 913 l 27 920 l 27 961 q 230 957 144 957 q 434 961 315 957 l 434 920 l 368 916 q 308 893 320 913 q 296 789 296 872 l 296 168 q 308 64 296 85 q 368 41 320 43 l 434 37 l 434 -4 q 231 0 317 0 q 27 -4 146 0 l 27 37 l 94 41 q 153 64 141 43 q 165 168 165 85 m 277 1259 l 451 1027 l 402 1027 l 235 1171 l 235 1171 l 67 1027 l 18 1027 l 192 1259 l 235 1259 l 277 1259 z "},"Ï":{"ha":468,"x_min":26,"x_max":441,"o":"m 168 168 l 168 789 q 156 893 168 872 q 97 916 144 913 l 31 920 l 31 961 q 233 957 148 957 q 437 961 319 957 l 437 920 l 371 916 q 312 893 323 913 q 300 789 300 872 l 300 168 q 312 64 300 85 q 371 41 323 43 l 437 37 l 437 -4 q 235 0 320 0 q 31 -4 149 0 l 31 37 l 97 41 q 157 64 144 43 q 168 168 168 85 m 96 1202 q 145 1182 125 1202 q 165 1133 165 1162 q 145 1084 165 1104 q 96 1064 125 1064 q 46 1084 66 1064 q 26 1133 26 1104 q 46 1182 26 1162 q 96 1202 66 1202 m 372 1202 q 421 1182 401 1202 q 441 1133 441 1162 q 421 1084 441 1104 q 372 1064 401 1064 q 323 1084 343 1064 q 303 1133 303 1104 q 323 1182 303 1162 q 372 1202 343 1202 z "},"Ð":{"ha":1075,"x_min":20,"x_max":1044,"o":"m 79 -4 l 79 31 l 105 43 q 149 78 140 58 q 158 161 158 98 l 158 480 l 158 480 l 20 480 l 20 530 l 158 530 l 158 530 l 158 789 q 147 892 158 871 q 92 916 136 913 l 31 920 l 31 961 l 224 957 l 224 957 l 525 961 q 904 850 765 961 q 1044 548 1044 739 q 891 144 1044 293 q 477 -4 739 -4 l 224 0 l 224 0 l 79 -4 m 290 896 l 290 896 l 290 530 l 290 530 l 546 530 l 546 480 l 290 480 l 290 480 l 290 65 l 290 65 q 444 54 361 55 q 779 169 663 54 q 895 496 895 283 q 791 808 896 711 q 455 905 686 905 q 290 896 366 906 z "},"Ñ":{"ha":1154,"x_min":24,"x_max":1128,"o":"m 220 168 q 232 64 220 85 q 291 41 243 43 l 357 37 l 357 -4 q 191 0 261 0 q 24 -4 121 0 l 24 37 l 88 41 q 144 65 133 44 q 155 168 155 86 l 155 789 q 144 892 155 871 q 87 916 133 913 l 24 920 l 24 961 q 144 959 94 959 q 264 964 195 959 q 335 869 313 898 q 397 792 357 841 l 933 134 l 933 134 l 933 134 l 933 789 q 921 893 933 872 q 862 916 909 913 l 795 920 l 795 961 q 962 957 892 957 q 1128 961 1031 957 l 1128 920 l 1065 916 q 1009 892 1020 913 q 998 789 998 871 l 998 27 q 999 -6 998 9 q 1003 -27 1001 -22 l 876 -3 l 220 801 l 220 801 l 220 801 l 220 168 m 347 1061 q 399 1163 359 1126 q 498 1200 439 1200 q 537 1193 516 1200 q 597 1169 559 1186 q 657 1144 637 1151 q 688 1137 677 1137 q 733 1155 713 1137 q 766 1206 753 1173 l 806 1206 q 759 1104 802 1148 q 660 1061 715 1061 q 610 1066 632 1061 q 560 1088 589 1072 q 500 1116 522 1108 q 461 1124 478 1124 q 418 1106 438 1124 q 387 1061 397 1089 l 347 1061 z "},"Ò":{"ha":1092,"x_min":31,"x_max":1061,"o":"m 521 -28 q 168 113 304 -28 q 31 479 31 254 q 181 844 31 703 q 571 985 332 985 q 925 858 788 985 q 1061 528 1061 730 q 911 127 1061 282 q 521 -28 760 -28 l 521 -28 m 563 30 q 819 147 726 30 q 913 466 913 264 q 810 803 913 680 q 529 927 707 927 q 273 822 367 927 q 179 535 179 717 q 282 165 179 301 q 563 30 385 30 l 563 30 m 608 1022 l 608 1022 l 392 1159 l 382 1166 q 354 1205 359 1184 l 352 1218 q 361 1242 352 1231 q 398 1262 377 1262 q 444 1243 419 1263 l 452 1236 l 665 1021 l 665 1021 l 608 1022 z "},"Ó":{"ha":1092,"x_min":31,"x_max":1061,"o":"m 521 -28 q 168 113 304 -28 q 31 479 31 254 q 181 844 31 703 q 571 985 332 985 q 925 858 788 985 q 1061 528 1061 730 q 911 127 1061 282 q 521 -28 760 -28 l 521 -28 m 563 30 q 819 147 726 30 q 913 466 913 264 q 810 803 913 680 q 529 927 707 927 q 273 822 367 927 q 179 535 179 717 q 282 165 179 301 q 563 30 385 30 l 563 30 m 435 1021 l 435 1021 l 646 1234 l 656 1243 q 700 1262 678 1261 q 736 1246 722 1263 q 748 1215 748 1231 l 747 1206 q 718 1166 743 1185 l 709 1159 l 491 1021 l 491 1021 l 435 1021 z "},"Ô":{"ha":1092,"x_min":31,"x_max":1061,"o":"m 521 -28 q 168 113 304 -28 q 31 479 31 254 q 181 844 31 703 q 571 985 332 985 q 925 858 788 985 q 1061 528 1061 730 q 911 127 1061 282 q 521 -28 760 -28 l 521 -28 m 563 30 q 819 147 726 30 q 913 466 913 264 q 810 803 913 680 q 529 927 707 927 q 273 822 367 927 q 179 535 179 717 q 282 165 179 301 q 563 30 385 30 l 563 30 m 593 1259 l 766 1027 l 718 1027 l 550 1171 l 550 1171 l 382 1027 l 334 1027 l 507 1259 l 550 1259 l 593 1259 z "},"Õ":{"ha":1092,"x_min":31,"x_max":1061,"o":"m 521 -28 q 168 113 304 -28 q 31 479 31 254 q 181 844 31 703 q 571 985 332 985 q 925 858 788 985 q 1061 528 1061 730 q 911 127 1061 282 q 521 -28 760 -28 l 521 -28 m 563 30 q 819 147 726 30 q 913 466 913 264 q 810 803 913 680 q 529 927 707 927 q 273 822 367 927 q 179 535 179 717 q 282 165 179 301 q 563 30 385 30 l 563 30 m 317 1061 q 368 1163 328 1126 q 468 1200 408 1200 q 507 1193 486 1200 q 566 1169 528 1186 q 626 1144 606 1151 q 657 1137 646 1137 q 702 1155 682 1137 q 735 1206 722 1173 l 775 1206 q 728 1104 772 1148 q 629 1061 684 1061 q 580 1066 602 1061 q 530 1088 558 1072 q 469 1116 491 1108 q 431 1124 448 1124 q 387 1106 408 1124 q 357 1061 367 1089 l 317 1061 z "},"Ö":{"ha":1092,"x_min":31,"x_max":1061,"o":"m 521 -28 q 168 113 304 -28 q 31 479 31 254 q 181 844 31 703 q 571 985 332 985 q 925 858 788 985 q 1061 528 1061 730 q 911 127 1061 282 q 521 -28 760 -28 l 521 -28 m 563 30 q 819 147 726 30 q 913 466 913 264 q 810 803 913 680 q 529 927 707 927 q 273 822 367 927 q 179 535 179 717 q 282 165 179 301 q 563 30 385 30 l 563 30 m 408 1202 q 457 1182 437 1202 q 477 1133 477 1162 q 457 1084 477 1104 q 408 1064 437 1064 q 358 1084 378 1064 q 338 1133 338 1104 q 358 1182 338 1162 q 408 1202 378 1202 m 684 1202 q 733 1182 713 1202 q 753 1133 753 1162 q 733 1084 753 1104 q 684 1064 713 1064 q 635 1084 655 1064 q 615 1133 615 1104 q 635 1182 615 1162 q 684 1202 655 1202 z "},"×":{"ha":842,"x_min":115,"x_max":726,"o":"m 420 300 l 171 51 l 115 106 l 365 356 l 115 606 l 171 661 l 420 412 l 670 661 l 726 606 l 476 356 l 726 106 l 670 51 l 420 300 z "},"Ø":{"ha":1157,"x_min":41,"x_max":1106,"o":"m 574 433 l 302 174 l 310 165 q 591 30 413 30 l 591 30 q 847 147 753 30 q 941 466 941 264 q 886 730 941 622 l 574 433 m 549 -28 q 216 92 349 -28 l 90 -28 l 41 18 l 170 140 q 58 479 59 276 q 209 844 58 703 q 599 985 360 985 q 938 871 804 985 l 1058 985 l 1106 939 l 985 824 q 1089 528 1089 705 q 939 127 1089 282 q 549 -28 788 -28 l 549 -28 m 557 927 q 301 822 395 927 q 207 535 207 717 q 267 233 208 356 l 574 524 l 850 787 l 838 804 q 557 927 735 927 z "},"Ù":{"ha":1080,"x_min":17,"x_max":1054,"o":"m 923 375 q 828 72 924 173 q 539 -28 732 -28 q 245 48 335 -28 q 155 298 155 125 l 155 789 q 143 892 155 871 q 83 916 131 913 l 17 920 l 17 961 q 220 957 134 957 q 424 961 305 957 l 424 920 l 357 916 q 298 892 310 913 q 286 789 286 871 l 286 311 q 351 116 286 178 q 555 55 416 55 q 786 132 713 55 q 859 378 859 210 l 859 789 q 846 892 859 871 q 781 916 833 913 l 707 920 l 707 961 q 880 957 808 957 q 1054 961 954 957 l 1054 920 l 990 916 q 934 881 945 913 q 923 724 923 850 l 923 375 m 633 1022 l 633 1022 l 418 1159 l 408 1166 q 380 1205 385 1184 l 378 1218 q 387 1242 378 1231 q 424 1262 403 1262 q 469 1243 445 1263 l 477 1236 l 690 1021 l 690 1021 l 633 1022 z "},"Ú":{"ha":1080,"x_min":17,"x_max":1054,"o":"m 923 375 q 828 72 924 173 q 539 -28 732 -28 q 245 48 335 -28 q 155 298 155 125 l 155 789 q 143 892 155 871 q 83 916 131 913 l 17 920 l 17 961 q 220 957 134 957 q 424 961 305 957 l 424 920 l 357 916 q 298 892 310 913 q 286 789 286 871 l 286 311 q 351 116 286 178 q 555 55 416 55 q 786 132 713 55 q 859 378 859 210 l 859 789 q 846 892 859 871 q 781 916 833 913 l 707 920 l 707 961 q 880 957 808 957 q 1054 961 954 957 l 1054 920 l 990 916 q 934 881 945 913 q 923 724 923 850 l 923 375 m 460 1021 l 460 1021 l 671 1234 l 682 1243 q 726 1262 704 1261 q 762 1246 748 1263 q 774 1215 774 1231 l 772 1206 q 744 1166 768 1185 l 734 1159 l 517 1021 l 517 1021 l 460 1021 z "},"Û":{"ha":1080,"x_min":17,"x_max":1054,"o":"m 923 375 q 828 72 924 173 q 539 -28 732 -28 q 245 48 335 -28 q 155 298 155 125 l 155 789 q 143 892 155 871 q 83 916 131 913 l 17 920 l 17 961 q 220 957 134 957 q 424 961 305 957 l 424 920 l 357 916 q 298 892 310 913 q 286 789 286 871 l 286 311 q 351 116 286 178 q 555 55 416 55 q 786 132 713 55 q 859 378 859 210 l 859 789 q 846 892 859 871 q 781 916 833 913 l 707 920 l 707 961 q 880 957 808 957 q 1054 961 954 957 l 1054 920 l 990 916 q 934 881 945 913 q 923 724 923 850 l 923 375 m 618 1259 l 792 1027 l 743 1027 l 576 1171 l 576 1171 l 408 1027 l 359 1027 l 533 1259 l 576 1259 l 618 1259 z "},"Ü":{"ha":1080,"x_min":17,"x_max":1054,"o":"m 923 375 q 828 72 924 173 q 539 -28 732 -28 q 245 48 335 -28 q 155 298 155 125 l 155 789 q 143 892 155 871 q 83 916 131 913 l 17 920 l 17 961 q 220 957 134 957 q 424 961 305 957 l 424 920 l 357 916 q 298 892 310 913 q 286 789 286 871 l 286 311 q 351 116 286 178 q 555 55 416 55 q 786 132 713 55 q 859 378 859 210 l 859 789 q 846 892 859 871 q 781 916 833 913 l 707 920 l 707 961 q 880 957 808 957 q 1054 961 954 957 l 1054 920 l 990 916 q 934 881 945 913 q 923 724 923 850 l 923 375 m 433 1202 q 483 1182 463 1202 q 503 1133 503 1162 q 483 1084 503 1104 q 433 1064 463 1064 q 384 1084 404 1064 q 364 1133 364 1104 q 384 1182 364 1162 q 433 1202 404 1202 m 710 1202 q 759 1182 739 1202 q 779 1133 779 1162 q 759 1084 779 1104 q 710 1064 739 1064 q 661 1084 681 1064 q 641 1133 641 1104 q 661 1182 641 1162 q 710 1202 681 1202 z "},"Ý":{"ha":926,"x_min":12,"x_max":911,"o":"m 416 353 q 412 397 416 385 q 393 437 409 410 l 270 654 l 250 688 q 130 854 174 810 q 31 902 85 899 l 12 903 l 12 945 l 92 960 l 172 975 q 230 941 199 975 q 309 827 261 908 l 376 710 q 503 475 431 611 l 503 475 l 634 680 q 799 964 707 797 l 799 964 l 854 964 l 911 964 l 911 947 l 911 943 q 891 920 905 936 q 861 882 878 903 q 698 664 765 762 q 598 509 651 595 q 557 423 568 458 q 547 332 547 388 l 547 168 q 559 64 547 85 q 618 41 571 43 l 685 37 l 685 -4 q 482 0 568 0 q 278 -4 397 0 l 278 37 l 345 41 q 404 64 392 43 q 416 168 416 85 l 416 353 m 397 1021 l 397 1021 l 608 1234 l 618 1243 q 663 1262 641 1261 q 699 1246 685 1263 q 711 1215 711 1231 l 709 1206 q 681 1166 705 1185 l 671 1159 l 454 1021 l 454 1021 l 397 1021 z "},"Þ":{"ha":839,"x_min":45,"x_max":798,"o":"m 182 168 l 182 789 q 171 892 182 871 q 111 916 159 913 l 45 920 l 45 961 q 248 957 162 957 q 452 961 333 957 l 452 920 l 385 916 q 326 892 338 913 q 314 789 314 871 l 314 752 l 314 752 l 511 751 q 721 694 644 751 q 798 539 798 637 q 711 331 798 418 q 502 244 624 244 q 411 252 457 244 l 397 302 q 487 292 442 292 q 609 351 557 292 q 661 490 661 410 q 602 641 661 589 q 433 694 543 694 q 314 680 366 694 l 314 680 l 314 168 q 326 64 314 85 q 385 41 338 43 l 452 37 l 452 -4 q 249 0 334 0 q 45 -4 163 0 l 45 37 l 111 41 q 171 64 159 43 q 182 168 182 85 z "},"ß":{"ha":772,"x_min":32,"x_max":721,"o":"m 250 645 l 250 142 q 262 64 250 87 q 303 39 274 41 l 353 35 l 353 -4 q 193 0 260 0 q 32 -4 125 0 l 32 37 l 81 41 q 125 61 117 44 q 134 144 134 78 l 134 534 l 134 534 l 102 535 l 39 535 l 39 553 l 53 561 l 133 602 l 134 602 l 134 686 q 146 772 134 738 q 198 859 159 807 q 244 910 218 885 q 296 954 269 935 q 383 997 333 980 q 472 1015 433 1015 q 632 958 573 1015 q 690 805 690 902 q 673 684 690 758 q 629 543 656 611 l 629 543 q 576 566 605 557 q 524 575 547 575 q 474 559 494 575 q 455 517 455 543 q 481 464 455 490 q 572 403 507 439 l 618 378 q 696 311 671 349 q 721 222 721 273 q 705 139 721 176 q 661 79 690 102 q 622 48 644 64 q 589 24 600 32 q 535 -4 557 4 q 488 -12 513 -12 q 411 -4 450 -12 q 348 18 372 4 l 348 18 l 383 157 l 420 157 l 420 157 l 420 108 q 422 94 420 98 q 430 83 424 89 q 468 60 446 69 q 526 47 496 47 q 600 78 568 47 q 631 149 631 109 q 605 233 631 201 q 508 302 579 266 q 403 374 433 340 q 373 452 373 407 q 434 573 373 508 q 547 637 494 637 l 595 640 l 595 640 l 597 647 q 612 750 612 705 q 564 899 612 846 q 430 952 515 952 q 290 883 331 952 q 250 645 250 814 z "},"à":{"ha":694,"x_min":45,"x_max":654,"o":"m 212 -16 q 90 29 135 -16 q 45 153 45 75 q 105 294 45 240 q 292 371 165 347 l 451 401 l 451 401 l 451 406 q 407 533 451 488 q 281 578 363 578 q 224 574 248 578 l 220 574 q 188 559 201 570 q 165 528 174 549 l 135 460 l 135 460 l 101 469 l 101 559 l 101 559 q 228 631 176 610 q 332 651 279 651 q 512 591 462 651 q 562 375 562 531 l 562 144 q 570 61 562 78 q 610 41 578 44 l 654 37 l 654 -4 q 551 0 594 0 q 446 -4 507 0 q 450 82 449 54 l 450 115 l 450 115 l 295 5 l 279 -5 q 212 -16 257 -16 m 451 167 l 451 357 l 451 357 l 347 337 q 208 280 253 319 q 163 177 163 241 q 194 95 163 127 q 272 62 225 62 q 371 99 316 62 q 451 167 410 126 l 451 167 m 376 730 l 376 730 l 160 867 l 150 874 q 122 913 127 892 l 120 926 q 130 950 120 939 q 166 970 145 970 q 212 951 187 970 l 220 943 l 433 729 l 433 729 l 376 730 z "},"á":{"ha":694,"x_min":45,"x_max":654,"o":"m 212 -16 q 90 29 135 -16 q 45 153 45 75 q 105 294 45 240 q 292 371 165 347 l 451 401 l 451 401 l 451 406 q 407 533 451 488 q 281 578 363 578 q 224 574 248 578 l 220 574 q 188 559 201 570 q 165 528 174 549 l 135 460 l 135 460 l 101 469 l 101 559 l 101 559 q 228 631 176 610 q 332 651 279 651 q 512 591 462 651 q 562 375 562 531 l 562 144 q 570 61 562 78 q 610 41 578 44 l 654 37 l 654 -4 q 551 0 594 0 q 446 -4 507 0 q 450 82 449 54 l 450 115 l 450 115 l 295 5 l 279 -5 q 212 -16 257 -16 m 451 167 l 451 357 l 451 357 l 347 337 q 208 280 253 319 q 163 177 163 241 q 194 95 163 127 q 272 62 225 62 q 371 99 316 62 q 451 167 410 126 l 451 167 m 224 729 l 224 729 l 435 942 l 445 951 q 489 969 467 968 q 525 954 511 970 q 537 923 536 939 l 536 913 q 507 873 532 893 l 498 867 l 280 729 l 280 729 l 224 729 z "},"â":{"ha":694,"x_min":45,"x_max":654,"o":"m 212 -16 q 90 29 135 -16 q 45 153 45 75 q 105 294 45 240 q 292 371 165 347 l 451 401 l 451 401 l 451 406 q 407 533 451 488 q 281 578 363 578 q 224 574 248 578 l 220 574 q 188 559 201 570 q 165 528 174 549 l 135 460 l 135 460 l 101 469 l 101 559 l 101 559 q 228 631 176 610 q 332 651 279 651 q 512 591 462 651 q 562 375 562 531 l 562 144 q 570 61 562 78 q 610 41 578 44 l 654 37 l 654 -4 q 551 0 594 0 q 446 -4 507 0 q 450 82 449 54 l 450 115 l 450 115 l 295 5 l 279 -5 q 212 -16 257 -16 m 451 167 l 451 357 l 451 357 l 347 337 q 208 280 253 319 q 163 177 163 241 q 194 95 163 127 q 272 62 225 62 q 371 99 316 62 q 451 167 410 126 l 451 167 m 366 966 l 539 734 l 490 734 l 323 878 l 323 878 l 155 734 l 106 734 l 280 966 l 323 966 l 366 966 z "},"ã":{"ha":694,"x_min":45,"x_max":654,"o":"m 212 -16 q 90 29 135 -16 q 45 153 45 75 q 105 294 45 240 q 292 371 165 347 l 451 401 l 451 401 l 451 406 q 407 533 451 488 q 281 578 363 578 q 224 574 248 578 l 220 574 q 188 559 201 570 q 165 528 174 549 l 135 460 l 135 460 l 101 469 l 101 559 l 101 559 q 228 631 176 610 q 332 651 279 651 q 512 591 462 651 q 562 375 562 531 l 562 144 q 570 61 562 78 q 610 41 578 44 l 654 37 l 654 -4 q 551 0 594 0 q 446 -4 507 0 q 450 82 449 54 l 450 115 l 450 115 l 295 5 l 279 -5 q 212 -16 257 -16 m 451 167 l 451 357 l 451 357 l 347 337 q 208 280 253 319 q 163 177 163 241 q 194 95 163 127 q 272 62 225 62 q 371 99 316 62 q 451 167 410 126 l 451 167 m 90 758 q 141 860 101 823 q 241 897 181 897 q 280 890 258 897 q 339 866 301 883 q 399 841 379 848 q 430 834 419 834 q 475 852 455 834 q 508 903 495 869 l 548 903 q 501 801 545 845 q 402 758 457 758 q 353 763 374 758 q 302 785 331 769 q 242 813 264 805 q 203 821 220 821 q 160 803 180 821 q 130 758 140 786 l 90 758 z "},"ä":{"ha":694,"x_min":45,"x_max":654,"o":"m 212 -16 q 90 29 135 -16 q 45 153 45 75 q 105 294 45 240 q 292 371 165 347 l 451 401 l 451 401 l 451 406 q 407 533 451 488 q 281 578 363 578 q 224 574 248 578 l 220 574 q 188 559 201 570 q 165 528 174 549 l 135 460 l 135 460 l 101 469 l 101 559 l 101 559 q 228 631 176 610 q 332 651 279 651 q 512 591 462 651 q 562 375 562 531 l 562 144 q 570 61 562 78 q 610 41 578 44 l 654 37 l 654 -4 q 551 0 594 0 q 446 -4 507 0 q 450 82 449 54 l 450 115 l 450 115 l 295 5 l 279 -5 q 212 -16 257 -16 m 451 167 l 451 357 l 451 357 l 347 337 q 208 280 253 319 q 163 177 163 241 q 194 95 163 127 q 272 62 225 62 q 371 99 316 62 q 451 167 410 126 l 451 167 m 180 910 q 230 890 210 910 q 250 841 250 870 q 230 792 250 812 q 180 772 210 772 q 131 792 151 772 q 111 841 111 812 q 131 890 111 870 q 180 910 151 910 m 457 910 q 506 890 486 910 q 526 841 526 870 q 506 792 526 812 q 457 772 486 772 q 408 792 428 772 q 388 841 388 812 q 408 890 388 870 q 457 910 428 910 z "},"å":{"ha":694,"x_min":45,"x_max":654,"o":"m 212 -16 q 90 29 135 -16 q 45 153 45 75 q 105 294 45 240 q 292 371 165 347 l 451 401 l 451 401 l 451 406 q 407 533 451 488 q 281 578 363 578 q 224 574 248 578 l 220 574 q 188 559 201 570 q 165 528 174 549 l 135 460 l 135 460 l 101 469 l 101 559 l 101 559 q 228 631 176 610 q 332 651 279 651 q 512 591 462 651 q 562 375 562 531 l 562 144 q 570 61 562 78 q 610 41 578 44 l 654 37 l 654 -4 q 551 0 594 0 q 446 -4 507 0 q 450 82 449 54 l 450 115 l 450 115 l 295 5 l 279 -5 q 212 -16 257 -16 m 451 167 l 451 357 l 451 357 l 347 337 q 208 280 253 319 q 163 177 163 241 q 194 95 163 127 q 272 62 225 62 q 371 99 316 62 q 451 167 410 126 l 451 167 m 335 715 q 236 756 277 715 q 196 854 196 796 q 236 953 196 913 q 335 994 277 994 q 434 953 393 994 q 474 854 474 913 q 434 756 474 796 q 335 715 393 715 l 335 715 m 335 765 q 396 791 371 765 q 421 854 421 817 q 396 918 421 892 q 335 944 371 944 q 274 918 299 944 q 249 854 249 892 q 274 791 249 817 q 335 765 299 765 l 335 765 z "},"æ":{"ha":1053,"x_min":41,"x_max":1017,"o":"m 328 651 q 507 586 452 651 q 532 546 521 570 l 532 546 q 750 651 627 651 l 751 651 q 945 580 873 651 q 1017 397 1015 511 l 1017 383 l 1017 383 l 1017 338 l 1017 338 q 902 326 990 332 q 765 319 814 319 l 560 319 l 560 319 q 625 121 566 191 q 815 45 689 45 q 902 64 853 45 q 991 113 950 83 l 1005 95 l 981 47 q 856 -7 919 12 q 743 -27 793 -27 q 519 63 608 -27 q 475 118 494 88 l 475 118 l 306 -10 l 297 -16 q 224 -27 277 -27 q 93 18 144 -27 q 41 134 41 63 q 100 282 41 231 q 291 349 159 332 l 450 368 l 450 368 l 450 406 q 402 530 450 481 q 279 578 354 578 q 214 568 245 578 l 195 560 q 169 541 181 555 q 148 504 157 527 l 130 459 l 130 459 l 96 467 l 96 553 l 96 553 q 240 629 188 607 q 328 651 292 651 m 450 152 l 450 324 l 450 324 l 344 311 q 205 264 250 300 q 160 165 160 228 q 193 90 160 117 q 285 63 226 63 q 383 98 329 63 q 450 152 420 121 l 450 152 m 901 373 l 901 373 q 859 537 899 472 q 751 606 816 606 l 752 606 q 612 536 663 606 q 561 372 566 475 l 561 372 q 723 366 650 365 q 901 373 803 366 z "},"ç":{"ha":616,"x_min":36,"x_max":574,"o":"m 574 63 l 541 14 q 453 -17 496 -7 q 356 -27 410 -27 q 125 63 214 -27 q 36 297 36 154 q 68 443 36 374 q 154 552 100 511 q 209 587 178 570 q 273 618 241 605 q 346 643 311 634 q 408 651 381 651 q 499 637 451 651 q 574 602 547 623 q 557 518 562 554 q 553 433 553 482 l 513 433 l 513 433 l 507 505 q 504 520 506 515 q 494 530 501 525 q 440 564 470 551 q 361 580 401 580 q 212 520 267 580 q 158 358 158 461 q 228 128 158 212 q 418 44 298 44 q 489 55 452 44 q 559 85 526 66 l 574 63 m 380 -14 l 345 -103 l 345 -103 q 386 -98 371 -98 q 469 -125 437 -98 q 500 -197 500 -153 q 454 -281 500 -250 q 330 -313 408 -313 q 277 -308 302 -313 q 212 -290 252 -303 l 232 -247 q 277 -258 254 -254 q 316 -262 300 -262 q 378 -248 359 -262 q 397 -199 397 -233 q 381 -163 397 -177 q 342 -149 366 -149 q 312 -151 328 -149 q 285 -158 297 -154 l 275 -150 l 333 -14 l 380 -14 z "},"è":{"ha":665,"x_min":36,"x_max":623,"o":"m 349 -27 q 120 58 204 -27 q 36 291 36 144 q 61 449 36 380 q 134 555 87 518 q 188 594 162 578 q 237 621 214 610 q 303 644 274 636 q 356 651 333 651 l 357 651 q 551 580 479 651 q 623 397 621 511 l 623 383 l 623 383 l 623 338 l 623 338 q 508 326 596 332 q 371 319 420 319 l 165 319 l 165 319 q 228 120 170 190 q 414 45 291 45 q 501 64 452 45 q 591 113 550 83 l 605 95 l 581 47 q 467 -7 530 13 q 349 -27 405 -27 m 497 372 l 497 372 q 459 545 497 483 q 351 606 422 606 l 352 606 q 214 537 263 606 q 165 372 171 476 l 165 372 q 329 366 255 366 q 497 372 405 366 m 398 730 l 398 730 l 182 867 l 172 874 q 144 913 150 892 l 142 926 q 152 950 142 939 q 189 970 168 970 q 234 951 210 970 l 242 943 l 455 729 l 455 729 l 398 730 z "},"é":{"ha":665,"x_min":36,"x_max":623,"o":"m 349 -27 q 120 58 204 -27 q 36 291 36 144 q 61 449 36 380 q 134 555 87 518 q 188 594 162 578 q 237 621 214 610 q 303 644 274 636 q 356 651 333 651 l 357 651 q 551 580 479 651 q 623 397 621 511 l 623 383 l 623 383 l 623 338 l 623 338 q 508 326 596 332 q 371 319 420 319 l 165 319 l 165 319 q 228 120 170 190 q 414 45 291 45 q 501 64 452 45 q 591 113 550 83 l 605 95 l 581 47 q 467 -7 530 13 q 349 -27 405 -27 m 497 372 l 497 372 q 459 545 497 483 q 351 606 422 606 l 352 606 q 214 537 263 606 q 165 372 171 476 l 165 372 q 329 366 255 366 q 497 372 405 366 m 246 729 l 246 729 l 457 942 l 467 951 q 512 969 490 968 q 547 954 534 970 q 559 923 559 939 l 558 913 q 530 873 554 893 l 520 867 l 302 729 l 302 729 l 246 729 z "},"ê":{"ha":665,"x_min":36,"x_max":623,"o":"m 349 -27 q 120 58 204 -27 q 36 291 36 144 q 61 449 36 380 q 134 555 87 518 q 188 594 162 578 q 237 621 214 610 q 303 644 274 636 q 356 651 333 651 l 357 651 q 551 580 479 651 q 623 397 621 511 l 623 383 l 623 383 l 623 338 l 623 338 q 508 326 596 332 q 371 319 420 319 l 165 319 l 165 319 q 228 120 170 190 q 414 45 291 45 q 501 64 452 45 q 591 113 550 83 l 605 95 l 581 47 q 467 -7 530 13 q 349 -27 405 -27 m 497 372 l 497 372 q 459 545 497 483 q 351 606 422 606 l 352 606 q 214 537 263 606 q 165 372 171 476 l 165 372 q 329 366 255 366 q 497 372 405 366 m 388 966 l 562 734 l 513 734 l 345 878 l 345 878 l 178 734 l 129 734 l 302 966 l 345 966 l 388 966 z "},"ë":{"ha":665,"x_min":36,"x_max":623,"o":"m 349 -27 q 120 58 204 -27 q 36 291 36 144 q 61 449 36 380 q 134 555 87 518 q 188 594 162 578 q 237 621 214 610 q 303 644 274 636 q 356 651 333 651 l 357 651 q 551 580 479 651 q 623 397 621 511 l 623 383 l 623 383 l 623 338 l 623 338 q 508 326 596 332 q 371 319 420 319 l 165 319 l 165 319 q 228 120 170 190 q 414 45 291 45 q 501 64 452 45 q 591 113 550 83 l 605 95 l 581 47 q 467 -7 530 13 q 349 -27 405 -27 m 497 372 l 497 372 q 459 545 497 483 q 351 606 422 606 l 352 606 q 214 537 263 606 q 165 372 171 476 l 165 372 q 329 366 255 366 q 497 372 405 366 m 203 910 q 252 890 232 910 q 272 841 272 870 q 252 792 272 812 q 203 772 232 772 q 154 792 174 772 q 134 841 134 812 q 154 890 134 870 q 203 910 174 910 m 479 910 q 529 890 509 910 q 549 841 549 870 q 529 792 549 812 q 479 772 509 772 q 430 792 450 772 q 410 841 410 812 q 430 890 410 870 q 479 910 450 910 z "},"ı":{"ha":399,"x_min":29,"x_max":377,"o":"m 145 144 l 145 448 q 136 537 145 519 q 87 555 126 555 l 32 555 l 32 593 q 141 615 96 604 q 248 650 186 627 l 261 638 l 261 637 l 261 144 q 271 61 261 78 q 321 41 281 44 l 377 37 l 377 -4 q 203 0 276 0 q 29 -4 130 0 l 29 37 l 85 41 q 136 61 125 44 q 145 144 145 78 z "},"ì":{"ha":399,"x_min":11,"x_max":384,"o":"m 152 144 l 152 448 q 142 537 152 519 q 94 555 133 555 l 39 555 l 39 593 q 148 615 102 604 q 255 650 193 627 l 268 638 l 268 637 l 268 144 q 278 61 268 78 q 328 41 288 44 l 384 37 l 384 -4 q 210 0 283 0 q 36 -4 136 0 l 36 37 l 92 41 q 142 61 132 44 q 152 144 152 78 m 267 730 l 267 730 l 51 867 l 41 874 q 13 913 18 892 l 11 926 q 20 950 11 939 q 57 970 36 970 q 102 951 78 970 l 111 943 l 323 729 l 323 729 l 267 730 z "},"í":{"ha":399,"x_min":29,"x_max":421,"o":"m 145 144 l 145 448 q 136 537 145 519 q 87 555 126 555 l 32 555 l 32 593 q 141 615 96 604 q 248 650 186 627 l 261 638 l 261 637 l 261 144 q 271 61 261 78 q 321 41 281 44 l 377 37 l 377 -4 q 203 0 276 0 q 29 -4 130 0 l 29 37 l 85 41 q 136 61 125 44 q 145 144 145 78 m 108 729 l 108 729 l 319 942 l 329 951 q 373 969 351 968 q 409 954 395 970 q 421 923 420 939 l 420 913 q 391 873 416 893 l 382 867 l 164 729 l 164 729 l 108 729 z "},"î":{"ha":399,"x_min":-16,"x_max":416,"o":"m 138 144 l 138 448 q 129 537 138 519 q 80 555 119 555 l 25 555 l 25 593 q 134 615 89 604 q 241 650 180 627 l 254 638 l 254 637 l 254 144 q 264 61 254 78 q 314 41 274 44 l 370 37 l 370 -4 q 196 0 269 0 q 22 -4 123 0 l 22 37 l 79 41 q 129 61 119 44 q 138 144 138 78 m 243 966 l 416 734 l 368 734 l 200 878 l 200 878 l 33 734 l -16 734 l 157 966 l 200 966 l 243 966 z "},"ï":{"ha":399,"x_min":-7,"x_max":408,"o":"m 142 144 l 142 448 q 133 537 142 519 q 84 555 123 555 l 29 555 l 29 593 q 138 615 93 604 q 245 650 184 627 l 258 638 l 258 637 l 258 144 q 268 61 258 78 q 318 41 278 44 l 374 37 l 374 -4 q 200 0 273 0 q 26 -4 127 0 l 26 37 l 83 41 q 133 61 123 44 q 142 144 142 78 m 62 910 q 111 890 91 910 q 131 841 131 870 q 111 792 131 812 q 62 772 91 772 q 13 792 33 772 q -7 841 -7 812 q 13 890 -7 870 q 62 910 33 910 m 338 910 q 388 890 368 910 q 408 841 408 870 q 388 792 408 812 q 338 772 368 772 q 289 792 309 772 q 269 841 269 812 q 289 890 269 870 q 338 910 309 910 z "},"ð":{"ha":758,"x_min":45,"x_max":700,"o":"m 355 -27 q 130 67 215 -27 q 45 319 45 162 q 143 557 45 463 q 389 652 241 652 q 534 610 467 652 l 534 610 q 464 732 507 671 q 397 818 431 780 l 205 722 l 178 764 l 360 855 q 193 967 283 930 l 241 1008 q 427 888 342 959 l 622 985 l 649 944 l 465 852 q 567 739 520 800 q 700 404 700 564 q 610 85 700 197 q 355 -27 521 -27 m 175 366 q 233 110 175 201 q 394 18 290 18 q 523 99 467 18 q 579 288 579 181 q 528 529 579 452 q 368 607 476 607 q 227 543 278 607 q 175 366 175 478 z "},"ñ":{"ha":808,"x_min":8,"x_max":795,"o":"m 124 144 l 124 448 q 115 537 124 519 q 66 555 105 555 l 11 555 l 11 593 q 120 615 75 604 q 227 650 165 627 l 240 638 l 240 637 l 240 526 l 240 526 l 240 526 q 353 623 327 605 q 454 651 393 651 q 628 590 570 651 q 686 407 686 529 l 686 144 q 695 61 686 78 q 742 41 705 43 l 795 37 l 795 -4 q 683 0 730 0 q 570 -4 635 0 l 570 37 l 570 379 q 529 518 570 470 q 408 566 487 566 q 290 521 342 566 q 254 481 269 503 q 244 459 248 471 q 240 435 240 446 l 240 144 q 250 61 240 78 q 300 41 260 43 l 356 37 l 356 -4 q 182 0 255 0 q 8 -4 109 0 l 8 37 l 64 41 q 115 61 104 43 q 124 144 124 78 m 176 758 q 227 860 187 823 q 327 897 267 897 q 366 890 345 897 q 425 866 387 883 q 485 841 465 848 q 516 834 505 834 q 561 852 541 834 q 594 903 581 869 l 634 903 q 587 801 631 845 q 488 758 543 758 q 439 763 460 758 q 389 785 417 769 q 328 813 350 805 q 290 821 307 821 q 246 803 267 821 q 216 758 226 786 l 176 758 z "},"ò":{"ha":758,"x_min":45,"x_max":713,"o":"m 362 -27 q 133 69 222 -27 q 45 318 45 165 q 143 558 45 465 q 396 651 241 651 q 625 564 536 651 q 713 338 713 477 q 615 75 713 177 q 362 -27 517 -27 l 362 -27 m 396 18 q 533 90 483 18 q 583 288 583 162 q 524 521 583 435 q 362 606 465 606 q 225 542 275 606 q 175 365 175 477 q 234 111 175 204 q 396 18 294 18 l 396 18 m 436 730 l 436 730 l 220 867 l 210 874 q 182 913 188 892 l 180 926 q 190 950 180 939 q 227 970 205 970 q 272 951 248 970 l 280 943 l 493 729 l 493 729 l 436 730 z "},"ó":{"ha":758,"x_min":45,"x_max":713,"o":"m 362 -27 q 133 69 222 -27 q 45 318 45 165 q 143 558 45 465 q 396 651 241 651 q 625 564 536 651 q 713 338 713 477 q 615 75 713 177 q 362 -27 517 -27 l 362 -27 m 396 18 q 533 90 483 18 q 583 288 583 162 q 524 521 583 435 q 362 606 465 606 q 225 542 275 606 q 175 365 175 477 q 234 111 175 204 q 396 18 294 18 l 396 18 m 284 729 l 284 729 l 495 942 l 505 951 q 550 969 528 968 q 585 954 572 970 q 597 923 597 939 l 596 913 q 568 873 592 893 l 558 867 l 340 729 l 340 729 l 284 729 z "},"ô":{"ha":758,"x_min":45,"x_max":713,"o":"m 362 -27 q 133 69 222 -27 q 45 318 45 165 q 143 558 45 465 q 396 651 241 651 q 625 564 536 651 q 713 338 713 477 q 615 75 713 177 q 362 -27 517 -27 l 362 -27 m 396 18 q 533 90 483 18 q 583 288 583 162 q 524 521 583 435 q 362 606 465 606 q 225 542 275 606 q 175 365 175 477 q 234 111 175 204 q 396 18 294 18 l 396 18 m 426 966 l 600 734 l 551 734 l 383 878 l 383 878 l 216 734 l 167 734 l 340 966 l 383 966 l 426 966 z "},"õ":{"ha":758,"x_min":45,"x_max":713,"o":"m 362 -27 q 133 69 222 -27 q 45 318 45 165 q 143 558 45 465 q 396 651 241 651 q 625 564 536 651 q 713 338 713 477 q 615 75 713 177 q 362 -27 517 -27 l 362 -27 m 396 18 q 533 90 483 18 q 583 288 583 162 q 524 521 583 435 q 362 606 465 606 q 225 542 275 606 q 175 365 175 477 q 234 111 175 204 q 396 18 294 18 l 396 18 m 150 758 q 201 860 161 823 q 301 897 241 897 q 340 890 319 897 q 399 866 361 883 q 459 841 439 848 q 490 834 479 834 q 535 852 515 834 q 568 903 555 869 l 608 903 q 561 801 605 845 q 463 758 517 758 q 413 763 435 758 q 363 785 391 769 q 302 813 324 805 q 264 821 281 821 q 220 803 241 821 q 190 758 200 786 l 150 758 z "},"ö":{"ha":758,"x_min":45,"x_max":713,"o":"m 362 -27 q 133 69 222 -27 q 45 318 45 165 q 143 558 45 465 q 396 651 241 651 q 625 564 536 651 q 713 338 713 477 q 615 75 713 177 q 362 -27 517 -27 l 362 -27 m 396 18 q 533 90 483 18 q 583 288 583 162 q 524 521 583 435 q 362 606 465 606 q 225 542 275 606 q 175 365 175 477 q 234 111 175 204 q 396 18 294 18 l 396 18 m 241 910 q 290 890 270 910 q 310 841 310 870 q 290 792 310 812 q 241 772 270 772 q 192 792 212 772 q 172 841 172 812 q 192 890 172 870 q 241 910 212 910 m 517 910 q 567 890 547 910 q 587 841 587 870 q 567 792 587 812 q 517 772 547 772 q 468 792 488 772 q 448 841 448 812 q 468 890 448 870 q 517 910 488 910 z "},"÷":{"ha":842,"x_min":71,"x_max":770,"o":"m 420 175 q 477 152 454 175 q 500 95 500 129 q 477 38 500 61 q 420 15 454 15 q 363 38 387 15 q 340 95 340 61 q 363 152 340 129 q 420 175 387 175 m 71 403 l 770 403 l 770 324 l 71 324 l 71 403 m 420 712 q 477 689 454 712 q 500 632 500 666 q 477 575 500 598 q 420 552 454 552 q 363 575 387 552 q 340 632 340 598 q 363 689 340 666 q 420 712 387 712 z "},"ø":{"ha":772,"x_min":22,"x_max":736,"o":"m 379 277 l 223 130 l 235 111 q 396 18 294 18 l 396 18 q 533 90 483 18 q 583 288 583 162 q 560 447 584 380 l 379 277 m 362 -27 q 145 56 231 -27 l 65 -19 l 22 22 l 107 102 q 45 318 44 190 q 143 558 45 465 q 396 651 241 651 q 611 576 527 652 l 693 653 l 736 612 l 652 533 q 713 338 714 454 q 615 75 713 177 q 362 -27 517 -27 l 362 -27 m 362 606 q 225 542 275 606 q 175 365 175 477 q 199 187 175 263 l 379 357 l 534 503 q 524 521 530 513 q 362 606 465 606 z "},"ù":{"ha":838,"x_min":25,"x_max":806,"o":"m 254 637 l 254 222 q 288 93 254 130 q 406 56 321 56 q 524 113 470 56 q 569 174 550 139 q 578 197 575 184 q 582 222 582 210 l 582 448 q 572 537 582 519 q 524 555 563 555 l 469 555 l 469 593 q 578 615 532 604 q 685 650 623 627 l 698 638 l 698 637 l 698 144 q 707 61 698 78 q 753 41 716 43 l 806 37 l 806 -4 q 691 0 739 0 q 575 -4 642 0 q 581 61 578 33 l 583 121 l 583 121 l 583 121 q 451 5 482 26 q 329 -28 405 -28 q 183 19 228 -28 q 138 172 138 66 l 138 448 q 129 537 138 519 q 80 555 119 555 l 25 555 l 25 593 q 134 615 89 604 q 241 650 180 627 l 254 638 l 254 637 m 475 730 l 475 730 l 259 867 l 249 874 q 221 913 227 892 l 219 926 q 229 950 219 939 q 265 970 244 970 q 311 951 286 970 l 319 943 l 532 729 l 532 729 l 475 730 z "},"ú":{"ha":838,"x_min":25,"x_max":806,"o":"m 254 637 l 254 222 q 288 93 254 130 q 406 56 321 56 q 524 113 470 56 q 569 174 550 139 q 578 197 575 184 q 582 222 582 210 l 582 448 q 572 537 582 519 q 524 555 563 555 l 469 555 l 469 593 q 578 615 532 604 q 685 650 623 627 l 698 638 l 698 637 l 698 144 q 707 61 698 78 q 753 41 716 43 l 806 37 l 806 -4 q 691 0 739 0 q 575 -4 642 0 q 581 61 578 33 l 583 121 l 583 121 l 583 121 q 451 5 482 26 q 329 -28 405 -28 q 183 19 228 -28 q 138 172 138 66 l 138 448 q 129 537 138 519 q 80 555 119 555 l 25 555 l 25 593 q 134 615 89 604 q 241 650 180 627 l 254 638 l 254 637 m 323 729 l 323 729 l 534 942 l 544 951 q 588 969 566 968 q 624 954 610 970 q 636 923 635 939 l 635 913 q 606 873 631 893 l 597 867 l 379 729 l 379 729 l 323 729 z "},"û":{"ha":838,"x_min":25,"x_max":806,"o":"m 254 637 l 254 222 q 288 93 254 130 q 406 56 321 56 q 524 113 470 56 q 569 174 550 139 q 578 197 575 184 q 582 222 582 210 l 582 448 q 572 537 582 519 q 524 555 563 555 l 469 555 l 469 593 q 578 615 532 604 q 685 650 623 627 l 698 638 l 698 637 l 698 144 q 707 61 698 78 q 753 41 716 43 l 806 37 l 806 -4 q 691 0 739 0 q 575 -4 642 0 q 581 61 578 33 l 583 121 l 583 121 l 583 121 q 451 5 482 26 q 329 -28 405 -28 q 183 19 228 -28 q 138 172 138 66 l 138 448 q 129 537 138 519 q 80 555 119 555 l 25 555 l 25 593 q 134 615 89 604 q 241 650 180 627 l 254 638 l 254 637 m 465 966 l 638 734 l 589 734 l 422 878 l 422 878 l 254 734 l 205 734 l 379 966 l 422 966 l 465 966 z "},"ü":{"ha":838,"x_min":25,"x_max":806,"o":"m 254 637 l 254 222 q 288 93 254 130 q 406 56 321 56 q 524 113 470 56 q 569 174 550 139 q 578 197 575 184 q 582 222 582 210 l 582 448 q 572 537 582 519 q 524 555 563 555 l 469 555 l 469 593 q 578 615 532 604 q 685 650 623 627 l 698 638 l 698 637 l 698 144 q 707 61 698 78 q 753 41 716 43 l 806 37 l 806 -4 q 691 0 739 0 q 575 -4 642 0 q 581 61 578 33 l 583 121 l 583 121 l 583 121 q 451 5 482 26 q 329 -28 405 -28 q 183 19 228 -28 q 138 172 138 66 l 138 448 q 129 537 138 519 q 80 555 119 555 l 25 555 l 25 593 q 134 615 89 604 q 241 650 180 627 l 254 638 l 254 637 m 279 910 q 329 890 309 910 q 349 841 349 870 q 329 792 349 812 q 279 772 309 772 q 230 792 250 772 q 210 841 210 812 q 230 890 210 870 q 279 910 250 910 m 556 910 q 605 890 585 910 q 625 841 625 870 q 605 792 625 812 q 556 772 585 772 q 507 792 527 772 q 487 841 487 812 q 507 890 487 870 q 556 910 527 910 z "},"ý":{"ha":772,"x_min":17,"x_max":760,"o":"m 631 490 l 313 -239 q 224 -370 268 -332 q 118 -408 180 -408 q 38 -385 71 -408 l 71 -281 l 87 -281 q 162 -315 114 -315 q 218 -291 189 -315 q 267 -225 247 -266 l 351 -31 l 351 -31 l 166 420 q 101 562 119 534 q 56 593 83 591 l 17 597 l 17 638 q 177 634 110 634 q 338 638 245 634 l 338 597 l 282 593 q 238 573 241 591 q 263 490 235 556 l 415 117 l 415 117 l 415 117 l 549 431 q 595 563 595 536 q 554 593 596 590 l 495 597 l 495 638 q 627 634 572 634 q 760 638 683 634 l 760 597 l 718 593 q 675 573 690 590 q 631 490 661 556 m 314 729 l 314 729 l 525 942 l 535 951 q 579 969 557 968 q 615 954 602 970 q 627 923 627 939 l 626 913 q 597 873 622 893 l 588 867 l 370 729 l 370 729 l 314 729 z "},"þ":{"ha":835,"x_min":-2,"x_max":755,"o":"m 114 848 q 106 905 114 892 q 70 918 98 918 l 1 918 l 1 957 q 110 976 64 965 q 217 1008 155 987 l 230 997 l 230 996 l 230 515 l 230 515 q 355 624 321 602 q 471 651 397 651 q 673 570 591 651 q 755 370 755 488 q 720 218 755 298 q 641 109 684 137 l 507 14 q 452 -10 481 -3 q 374 -16 422 -16 q 230 16 299 -16 l 230 16 l 230 -243 q 240 -327 230 -309 q 290 -346 250 -344 l 346 -350 l 346 -391 q 172 -387 245 -387 q -2 -391 98 -387 l -2 -350 l 54 -346 q 104 -327 94 -344 q 114 -243 114 -309 l 114 848 m 407 54 q 577 124 517 54 q 637 326 637 195 q 579 497 637 434 q 421 560 521 560 q 309 530 358 560 q 230 444 260 500 l 230 444 l 230 131 l 230 131 q 292 85 254 106 q 407 54 351 54 z "},"ÿ":{"ha":772,"x_min":17,"x_max":760,"o":"m 631 490 l 313 -239 q 224 -370 268 -332 q 118 -408 180 -408 q 38 -385 71 -408 l 71 -281 l 87 -281 q 162 -315 114 -315 q 218 -291 189 -315 q 267 -225 247 -266 l 351 -31 l 351 -31 l 166 420 q 101 562 119 534 q 56 593 83 591 l 17 597 l 17 638 q 177 634 110 634 q 338 638 245 634 l 338 597 l 282 593 q 238 573 241 591 q 263 490 235 556 l 415 117 l 415 117 l 415 117 l 549 431 q 595 563 595 536 q 554 593 596 590 l 495 597 l 495 638 q 627 634 572 634 q 760 638 683 634 l 760 597 l 718 593 q 675 573 690 590 q 631 490 661 556 m 271 910 q 320 890 300 910 q 340 841 340 870 q 320 792 340 812 q 271 772 300 772 q 221 792 241 772 q 201 841 201 812 q 221 890 201 870 q 271 910 241 910 m 547 910 q 596 890 576 910 q 616 841 616 870 q 596 792 616 812 q 547 772 576 772 q 498 792 518 772 q 478 841 478 812 q 498 890 478 870 q 547 910 518 910 z "},"Ā":{"ha":1080,"x_min":21,"x_max":1046,"o":"m 174 168 l 520 969 l 543 969 l 566 969 l 869 253 q 951 79 929 114 q 1003 41 973 44 l 1046 37 l 1046 -4 q 862 0 939 0 q 679 -4 785 0 l 679 37 l 745 41 q 796 64 793 43 q 766 168 800 85 l 705 317 l 705 317 l 310 317 l 310 317 l 279 240 q 222 76 223 109 q 271 41 220 43 l 341 37 l 341 -4 q 182 0 249 0 q 21 -4 114 0 l 21 37 l 69 41 q 121 65 104 44 q 174 168 138 86 m 511 789 l 335 374 l 335 374 l 682 374 l 682 374 l 511 789 l 511 789 l 511 789 m 336 1134 l 750 1134 l 750 1057 l 336 1057 l 336 1134 z "},"ā":{"ha":694,"x_min":45,"x_max":654,"o":"m 212 -16 q 90 29 135 -16 q 45 153 45 75 q 105 294 45 240 q 292 371 165 347 l 451 401 l 451 401 l 451 406 q 407 533 451 488 q 281 578 363 578 q 224 574 248 578 l 220 574 q 188 559 201 570 q 165 528 174 549 l 135 460 l 135 460 l 101 469 l 101 559 l 101 559 q 228 631 176 610 q 332 651 279 651 q 512 591 462 651 q 562 375 562 531 l 562 144 q 570 61 562 78 q 610 41 578 44 l 654 37 l 654 -4 q 551 0 594 0 q 446 -4 507 0 q 450 82 449 54 l 450 115 l 450 115 l 295 5 l 279 -5 q 212 -16 257 -16 m 451 167 l 451 357 l 451 357 l 347 337 q 208 280 253 319 q 163 177 163 241 q 194 95 163 127 q 272 62 225 62 q 371 99 316 62 q 451 167 410 126 l 451 167 m 112 842 l 526 842 l 526 765 l 112 765 l 112 842 z "},"Ă":{"ha":1080,"x_min":21,"x_max":1046,"o":"m 174 168 l 520 969 l 543 969 l 566 969 l 869 253 q 951 79 929 114 q 1003 41 973 44 l 1046 37 l 1046 -4 q 862 0 939 0 q 679 -4 785 0 l 679 37 l 745 41 q 796 64 793 43 q 766 168 800 85 l 705 317 l 705 317 l 310 317 l 310 317 l 279 240 q 222 76 223 109 q 271 41 220 43 l 341 37 l 341 -4 q 182 0 249 0 q 21 -4 114 0 l 21 37 l 69 41 q 121 65 104 44 q 174 168 138 86 m 511 789 l 335 374 l 335 374 l 682 374 l 682 374 l 511 789 l 511 789 l 511 789 m 543 1021 q 400 1082 455 1021 q 347 1240 346 1143 l 389 1240 q 433 1146 387 1187 q 543 1105 480 1105 q 653 1146 606 1105 q 697 1240 700 1187 l 739 1240 q 686 1082 741 1143 q 543 1021 631 1021 z "},"ă":{"ha":694,"x_min":45,"x_max":654,"o":"m 212 -16 q 90 29 135 -16 q 45 153 45 75 q 105 294 45 240 q 292 371 165 347 l 451 401 l 451 401 l 451 406 q 407 533 451 488 q 281 578 363 578 q 224 574 248 578 l 220 574 q 188 559 201 570 q 165 528 174 549 l 135 460 l 135 460 l 101 469 l 101 559 l 101 559 q 228 631 176 610 q 332 651 279 651 q 512 591 462 651 q 562 375 562 531 l 562 144 q 570 61 562 78 q 610 41 578 44 l 654 37 l 654 -4 q 551 0 594 0 q 446 -4 507 0 q 450 82 449 54 l 450 115 l 450 115 l 295 5 l 279 -5 q 212 -16 257 -16 m 451 167 l 451 357 l 451 357 l 347 337 q 208 280 253 319 q 163 177 163 241 q 194 95 163 127 q 272 62 225 62 q 371 99 316 62 q 451 167 410 126 l 451 167 m 319 729 q 176 790 231 729 q 123 948 121 851 l 165 948 q 209 853 162 895 q 319 812 256 812 q 429 853 382 812 q 473 948 475 895 l 515 948 q 461 790 516 851 q 319 729 407 729 z "},"Ą":{"ha":1080,"x_min":21,"x_max":1046,"o":"m 174 168 l 520 969 l 543 969 l 566 969 l 869 253 q 951 79 929 114 q 1003 41 973 44 l 1046 37 l 1046 -4 q 862 0 939 0 q 679 -4 785 0 l 679 37 l 745 41 q 796 64 793 43 q 766 168 800 85 l 705 317 l 705 317 l 310 317 l 310 317 l 279 240 q 222 76 223 109 q 271 41 220 43 l 341 37 l 341 -4 q 182 0 249 0 q 21 -4 114 0 l 21 37 l 69 41 q 121 65 104 44 q 174 168 138 86 m 511 789 l 335 374 l 335 374 l 682 374 l 682 374 l 511 789 l 511 789 l 511 789 m 610 -111 q 630 -50 610 -80 q 680 0 649 -19 l 731 0 q 692 -42 708 -16 q 675 -88 675 -68 q 692 -128 675 -111 q 732 -144 709 -144 q 786 -131 759 -144 q 834 -94 812 -118 l 857 -123 q 777 -181 819 -160 q 699 -201 735 -201 q 636 -175 662 -201 q 610 -111 610 -149 z "},"ą":{"ha":694,"x_min":45,"x_max":654,"o":"m 212 -16 q 90 29 135 -16 q 45 153 45 75 q 105 294 45 240 q 292 371 165 347 l 451 401 l 451 401 l 451 406 q 407 533 451 488 q 281 578 363 578 q 224 574 248 578 l 220 574 q 188 559 201 570 q 165 528 174 549 l 135 460 l 135 460 l 101 469 l 101 559 l 101 559 q 228 631 176 610 q 332 651 279 651 q 512 591 462 651 q 562 375 562 531 l 562 144 q 570 61 562 78 q 610 41 578 44 l 654 37 l 654 -4 q 551 0 594 0 q 446 -4 507 0 q 450 82 449 54 l 450 115 l 450 115 l 295 5 l 279 -5 q 212 -16 257 -16 m 451 167 l 451 357 l 451 357 l 347 337 q 208 280 253 319 q 163 177 163 241 q 194 95 163 127 q 272 62 225 62 q 371 99 316 62 q 451 167 410 126 l 451 167 m 376 -111 q 396 -50 376 -80 q 446 0 415 -19 l 497 0 q 458 -42 474 -16 q 441 -88 441 -68 q 458 -128 441 -111 q 498 -144 475 -144 q 552 -131 525 -144 q 600 -94 578 -118 l 623 -123 q 543 -181 585 -160 q 465 -201 501 -201 q 402 -175 428 -201 q 376 -111 376 -149 z "},"Ć":{"ha":985,"x_min":31,"x_max":930,"o":"m 930 117 l 891 46 q 728 -13 794 2 q 570 -28 662 -28 q 181 113 332 -28 q 31 477 31 254 q 190 844 31 702 q 602 985 350 985 q 764 969 677 985 q 922 926 850 954 q 903 823 908 867 q 895 717 897 779 l 852 717 l 852 717 l 852 804 q 847 837 852 826 q 826 858 842 847 q 730 904 784 886 q 578 927 659 927 q 288 813 395 927 q 182 504 182 700 q 305 171 182 296 q 633 46 429 46 q 789 69 711 46 q 918 130 867 92 l 930 117 m 491 1021 l 491 1021 l 702 1234 l 712 1243 q 756 1262 734 1261 q 792 1246 779 1263 q 804 1215 804 1231 l 803 1206 q 774 1166 799 1185 l 765 1159 l 547 1021 l 547 1021 l 491 1021 z "},"ć":{"ha":616,"x_min":36,"x_max":574,"o":"m 574 63 l 541 14 q 453 -17 496 -7 q 356 -27 410 -27 q 125 63 214 -27 q 36 297 36 154 q 68 443 36 374 q 154 552 100 511 q 209 587 178 570 q 273 618 241 605 q 346 643 311 634 q 408 651 381 651 q 499 637 451 651 q 574 602 547 623 q 557 518 562 554 q 553 433 553 482 l 513 433 l 513 433 l 507 505 q 504 520 506 515 q 494 530 501 525 q 440 564 470 551 q 361 580 401 580 q 212 520 267 580 q 158 358 158 461 q 228 128 158 212 q 418 44 298 44 q 489 55 452 44 q 559 85 526 66 l 574 63 m 259 729 l 259 729 l 470 942 l 480 951 q 525 969 503 968 q 560 954 547 970 q 572 923 572 939 l 571 913 q 543 873 567 893 l 533 867 l 315 729 l 315 729 l 259 729 z "},"Č":{"ha":985,"x_min":31,"x_max":930,"o":"m 930 117 l 891 46 q 728 -13 794 2 q 570 -28 662 -28 q 181 113 332 -28 q 31 477 31 254 q 190 844 31 702 q 602 985 350 985 q 764 969 677 985 q 922 926 850 954 q 903 823 908 867 q 895 717 897 779 l 852 717 l 852 717 l 852 804 q 847 837 852 826 q 826 858 842 847 q 730 904 784 886 q 578 927 659 927 q 288 813 395 927 q 182 504 182 700 q 305 171 182 296 q 633 46 429 46 q 789 69 711 46 q 918 130 867 92 l 930 117 m 543 1027 l 369 1259 l 418 1259 l 585 1115 l 585 1115 l 753 1259 l 802 1259 l 628 1027 l 585 1027 l 543 1027 z "},"č":{"ha":616,"x_min":36,"x_max":574,"o":"m 574 63 l 541 14 q 453 -17 496 -7 q 356 -27 410 -27 q 125 63 214 -27 q 36 297 36 154 q 68 443 36 374 q 154 552 100 511 q 209 587 178 570 q 273 618 241 605 q 346 643 311 634 q 408 651 381 651 q 499 637 451 651 q 574 602 547 623 q 557 518 562 554 q 553 433 553 482 l 513 433 l 513 433 l 507 505 q 504 520 506 515 q 494 530 501 525 q 440 564 470 551 q 361 580 401 580 q 212 520 267 580 q 158 358 158 461 q 228 128 158 212 q 418 44 298 44 q 489 55 452 44 q 559 85 526 66 l 574 63 m 298 734 l 125 966 l 174 966 l 341 823 l 341 823 l 509 966 l 557 966 l 384 734 l 341 734 l 298 734 z "},"Ď":{"ha":1075,"x_min":31,"x_max":1043,"o":"m 158 161 l 158 789 q 147 892 158 871 q 92 916 136 913 l 31 920 l 31 961 l 224 957 l 224 957 l 525 961 q 904 850 764 961 q 1043 548 1043 739 q 891 144 1043 293 q 477 -4 739 -4 l 224 0 l 224 0 l 79 -4 l 79 31 l 105 43 q 149 78 140 58 q 158 161 158 98 m 290 65 l 290 65 q 444 54 361 55 q 779 169 663 54 q 895 496 895 283 q 790 808 895 711 q 455 905 686 905 q 290 896 366 906 l 290 896 l 290 65 m 452 1027 l 279 1259 l 328 1259 l 495 1115 l 495 1115 l 663 1259 l 711 1259 l 538 1027 l 495 1027 l 452 1027 z "},"ď":{"ha":1044,"x_min":61,"x_max":988,"o":"m 333 -16 q 137 72 213 -16 q 61 300 61 161 q 95 453 61 386 q 192 561 129 521 l 317 625 q 363 644 336 637 q 419 651 389 651 q 577 609 492 651 l 584 606 l 584 606 l 584 848 q 576 905 584 892 q 540 918 568 918 l 471 918 l 471 957 q 580 976 534 966 q 687 1008 625 987 l 700 997 l 700 996 l 700 144 q 710 61 700 78 q 760 41 720 43 l 816 37 l 816 -4 q 700 0 749 0 q 583 -4 650 0 l 591 125 l 591 125 q 433 -5 451 5 q 333 -16 415 -16 m 389 585 q 235 521 288 585 q 182 334 182 457 q 242 138 182 214 q 399 62 303 62 q 500 101 452 62 q 584 208 548 140 l 584 208 l 584 494 l 584 494 q 512 551 557 526 q 389 585 450 585 m 800 758 q 853 862 834 816 q 883 975 872 907 l 977 1008 l 988 994 q 944 895 966 936 q 854 763 911 837 l 807 746 l 800 758 z "},"Đ":{"ha":1075,"x_min":20,"x_max":1044,"o":"m 79 -4 l 79 31 l 105 43 q 149 78 140 58 q 158 161 158 98 l 158 480 l 158 480 l 20 480 l 20 530 l 158 530 l 158 530 l 158 789 q 147 892 158 871 q 92 916 136 913 l 31 920 l 31 961 l 224 957 l 224 957 l 525 961 q 904 850 765 961 q 1044 548 1044 739 q 891 144 1044 293 q 477 -4 739 -4 l 224 0 l 224 0 l 79 -4 m 290 896 l 290 896 l 290 530 l 290 530 l 546 530 l 546 480 l 290 480 l 290 480 l 290 65 l 290 65 q 444 54 361 55 q 779 169 663 54 q 895 496 895 283 q 791 808 896 711 q 455 905 686 905 q 290 896 366 906 z "},"đ":{"ha":848,"x_min":49,"x_max":804,"o":"m 321 -16 q 125 72 201 -16 q 49 300 49 161 q 83 453 49 386 q 180 561 117 521 l 304 625 q 351 644 324 637 q 407 651 377 651 q 565 609 480 651 l 572 606 l 572 606 l 572 768 l 357 768 l 357 820 l 572 820 l 572 848 q 564 905 572 892 q 528 918 555 918 l 458 918 l 458 957 q 568 976 522 966 q 675 1008 613 987 l 688 997 l 688 996 l 688 820 l 804 820 l 804 768 l 688 768 l 688 144 q 697 61 688 78 q 747 41 707 43 l 804 37 l 804 -4 l 688 -2 l 572 0 l 572 0 l 572 118 l 572 118 q 421 -5 439 5 q 321 -16 403 -16 m 376 585 q 222 521 275 585 q 170 334 170 457 q 230 138 170 214 q 387 62 291 62 q 488 101 440 62 q 572 208 536 140 l 572 208 l 572 494 l 572 494 q 500 551 545 526 q 376 585 437 585 z "},"Ē":{"ha":848,"x_min":31,"x_max":794,"o":"m 52 -4 l 52 37 l 108 41 q 158 65 149 44 q 168 168 168 86 l 168 789 q 156 892 168 871 q 97 916 144 913 l 31 920 l 31 961 q 192 955 88 956 q 389 957 296 954 l 389 957 q 632 960 520 961 q 772 955 743 960 l 772 955 q 755 851 760 895 q 751 745 751 807 l 702 745 l 702 858 q 645 885 702 873 q 498 902 587 898 q 429 903 461 904 q 300 897 370 903 l 300 897 l 300 520 l 300 520 q 460 516 388 515 q 604 530 585 516 q 627 640 622 543 l 667 640 q 663 483 663 549 q 667 325 663 416 l 627 325 q 604 444 622 429 q 460 458 585 458 q 300 454 388 458 l 300 454 l 300 62 l 300 62 q 471 54 395 54 q 653 64 552 54 q 717 96 701 68 q 745 228 732 124 l 794 228 q 777 116 782 163 q 772 2 772 68 l 772 2 q 606 -3 718 -2 q 387 0 494 -3 l 387 0 q 187 2 284 3 q 52 -4 90 1 m 233 1134 l 647 1134 l 647 1057 l 233 1057 l 233 1134 z "},"ē":{"ha":665,"x_min":36,"x_max":623,"o":"m 349 -27 q 120 58 204 -27 q 36 291 36 144 q 61 449 36 380 q 134 555 87 518 q 188 594 162 578 q 237 621 214 610 q 303 644 274 636 q 356 651 333 651 l 357 651 q 551 580 479 651 q 623 397 621 511 l 623 383 l 623 383 l 623 338 l 623 338 q 508 326 596 332 q 371 319 420 319 l 165 319 l 165 319 q 228 120 170 190 q 414 45 291 45 q 501 64 452 45 q 591 113 550 83 l 605 95 l 581 47 q 467 -7 530 13 q 349 -27 405 -27 m 497 372 l 497 372 q 459 545 497 483 q 351 606 422 606 l 352 606 q 214 537 263 606 q 165 372 171 476 l 165 372 q 329 366 255 366 q 497 372 405 366 m 134 842 l 548 842 l 548 765 l 134 765 l 134 842 z "},"Ė":{"ha":848,"x_min":31,"x_max":794,"o":"m 52 -4 l 52 37 l 108 41 q 158 65 149 44 q 168 168 168 86 l 168 789 q 156 892 168 871 q 97 916 144 913 l 31 920 l 31 961 q 192 955 88 956 q 389 957 296 954 l 389 957 q 632 960 520 961 q 772 955 743 960 l 772 955 q 755 851 760 895 q 751 745 751 807 l 702 745 l 702 858 q 645 885 702 873 q 498 902 587 898 q 429 903 461 904 q 300 897 370 903 l 300 897 l 300 520 l 300 520 q 460 516 388 515 q 604 530 585 516 q 627 640 622 543 l 667 640 q 663 483 663 549 q 667 325 663 416 l 627 325 q 604 444 622 429 q 460 458 585 458 q 300 454 388 458 l 300 454 l 300 62 l 300 62 q 471 54 395 54 q 653 64 552 54 q 717 96 701 68 q 745 228 732 124 l 794 228 q 777 116 782 163 q 772 2 772 68 l 772 2 q 606 -3 718 -2 q 387 0 494 -3 l 387 0 q 187 2 284 3 q 52 -4 90 1 m 440 1203 q 490 1183 469 1203 q 510 1134 510 1163 q 490 1085 510 1105 q 440 1065 469 1065 q 391 1085 411 1065 q 370 1134 370 1105 q 391 1183 370 1163 q 440 1203 411 1203 z "},"ė":{"ha":665,"x_min":36,"x_max":623,"o":"m 349 -27 q 120 58 204 -27 q 36 291 36 144 q 61 449 36 380 q 134 555 87 518 q 188 594 162 578 q 237 621 214 610 q 303 644 274 636 q 356 651 333 651 l 357 651 q 551 580 479 651 q 623 397 621 511 l 623 383 l 623 383 l 623 338 l 623 338 q 508 326 596 332 q 371 319 420 319 l 165 319 l 165 319 q 228 120 170 190 q 414 45 291 45 q 501 64 452 45 q 591 113 550 83 l 605 95 l 581 47 q 467 -7 530 13 q 349 -27 405 -27 m 497 372 l 497 372 q 459 545 497 483 q 351 606 422 606 l 352 606 q 214 537 263 606 q 165 372 171 476 l 165 372 q 329 366 255 366 q 497 372 405 366 m 341 911 q 391 891 370 911 q 411 842 411 871 q 391 792 411 812 q 341 772 370 772 q 292 792 312 772 q 271 842 271 812 q 292 891 271 871 q 341 911 312 911 z "},"Ę":{"ha":848,"x_min":31,"x_max":801,"o":"m 52 -4 l 52 37 l 108 41 q 158 65 149 44 q 168 168 168 86 l 168 789 q 156 892 168 871 q 97 916 144 913 l 31 920 l 31 961 q 192 955 88 956 q 389 957 296 954 l 389 957 q 632 960 520 961 q 772 955 743 960 l 772 955 q 755 851 760 895 q 751 745 751 807 l 702 745 l 702 858 q 645 885 702 873 q 498 902 587 898 q 429 903 461 904 q 300 897 370 903 l 300 897 l 300 520 l 300 520 q 460 516 388 515 q 604 530 585 516 q 627 640 622 543 l 667 640 q 663 483 663 549 q 667 325 663 416 l 627 325 q 604 444 622 429 q 460 458 585 458 q 300 454 388 458 l 300 454 l 300 62 l 300 62 q 471 54 395 54 q 653 64 552 54 q 717 96 701 68 q 745 228 732 124 l 794 228 q 777 116 782 163 q 772 2 772 68 l 772 2 q 606 -3 718 -2 q 387 0 494 -3 l 387 0 q 187 2 284 3 q 52 -4 90 1 m 555 -111 q 574 -50 555 -80 q 625 0 593 -19 l 675 0 q 636 -42 652 -16 q 620 -88 620 -68 q 637 -128 620 -111 q 677 -144 654 -144 q 730 -131 703 -144 q 779 -94 757 -118 l 801 -123 q 721 -181 763 -160 q 644 -201 680 -201 q 581 -175 606 -201 q 555 -111 555 -149 z "},"ę":{"ha":665,"x_min":36,"x_max":623,"o":"m 349 -27 q 120 58 204 -27 q 36 291 36 144 q 61 449 36 380 q 134 555 87 518 q 188 594 162 578 q 237 621 214 610 q 303 644 274 636 q 356 651 333 651 l 357 651 q 551 580 479 651 q 623 397 621 511 l 623 383 l 623 383 l 623 338 l 623 338 q 508 326 596 332 q 371 319 420 319 l 165 319 l 165 319 q 228 120 170 190 q 414 45 291 45 q 501 64 452 45 q 591 113 550 83 l 605 95 l 581 47 q 467 -7 530 13 q 349 -27 405 -27 m 497 372 l 497 372 q 459 545 497 483 q 351 606 422 606 l 352 606 q 214 537 263 606 q 165 372 171 476 l 165 372 q 329 366 255 366 q 497 372 405 366 m 320 -111 q 339 -50 320 -80 q 390 0 359 -19 l 441 0 q 401 -42 418 -16 q 385 -88 385 -68 q 402 -128 385 -111 q 442 -144 419 -144 q 495 -131 469 -144 q 544 -94 522 -118 l 566 -123 q 487 -181 528 -160 q 409 -201 445 -201 q 346 -175 372 -201 q 320 -111 320 -149 z "},"Ě":{"ha":848,"x_min":31,"x_max":794,"o":"m 52 -4 l 52 37 l 108 41 q 158 65 149 44 q 168 168 168 86 l 168 789 q 156 892 168 871 q 97 916 144 913 l 31 920 l 31 961 q 192 955 88 956 q 389 957 296 954 l 389 957 q 632 960 520 961 q 772 955 743 960 l 772 955 q 755 851 760 895 q 751 745 751 807 l 702 745 l 702 858 q 645 885 702 873 q 498 902 587 898 q 429 903 461 904 q 300 897 370 903 l 300 897 l 300 520 l 300 520 q 460 516 388 515 q 604 530 585 516 q 627 640 622 543 l 667 640 q 663 483 663 549 q 667 325 663 416 l 627 325 q 604 444 622 429 q 460 458 585 458 q 300 454 388 458 l 300 454 l 300 62 l 300 62 q 471 54 395 54 q 653 64 552 54 q 717 96 701 68 q 745 228 732 124 l 794 228 q 777 116 782 163 q 772 2 772 68 l 772 2 q 606 -3 718 -2 q 387 0 494 -3 l 387 0 q 187 2 284 3 q 52 -4 90 1 m 409 1027 l 235 1259 l 284 1259 l 452 1115 l 452 1115 l 619 1259 l 668 1259 l 494 1027 l 452 1027 l 409 1027 z "},"ě":{"ha":665,"x_min":36,"x_max":623,"o":"m 349 -27 q 120 58 204 -27 q 36 291 36 144 q 61 449 36 380 q 134 555 87 518 q 188 594 162 578 q 237 621 214 610 q 303 644 274 636 q 356 651 333 651 l 357 651 q 551 580 479 651 q 623 397 621 511 l 623 383 l 623 383 l 623 338 l 623 338 q 508 326 596 332 q 371 319 420 319 l 165 319 l 165 319 q 228 120 170 190 q 414 45 291 45 q 501 64 452 45 q 591 113 550 83 l 605 95 l 581 47 q 467 -7 530 13 q 349 -27 405 -27 m 497 372 l 497 372 q 459 545 497 483 q 351 606 422 606 l 352 606 q 214 537 263 606 q 165 372 171 476 l 165 372 q 329 366 255 366 q 497 372 405 366 m 286 734 l 112 966 l 161 966 l 328 823 l 328 823 l 496 966 l 545 966 l 371 734 l 328 734 l 286 734 z "},"Ğ":{"ha":1060,"x_min":31,"x_max":1011,"o":"m 576 -28 q 180 110 330 -28 q 31 477 31 248 q 195 844 31 702 q 618 985 359 985 q 797 969 705 985 q 961 926 889 954 q 942 823 947 867 q 935 717 937 779 l 892 717 l 892 717 l 892 804 q 886 837 892 826 q 865 857 881 848 q 760 904 817 886 q 600 927 685 927 q 292 818 402 927 q 182 514 182 709 q 300 160 182 290 q 624 30 419 30 l 623 30 q 767 47 699 30 q 816 73 804 57 q 827 130 827 88 l 827 258 q 819 313 827 300 q 777 327 810 325 l 665 336 l 665 377 q 838 373 765 373 q 1011 377 911 373 l 1011 342 l 985 334 q 960 318 964 327 q 956 271 956 310 l 956 43 l 956 43 q 576 -28 718 -28 l 576 -28 m 618 1021 q 475 1082 530 1021 q 422 1240 420 1143 l 464 1240 q 508 1146 461 1187 q 618 1105 555 1105 q 728 1146 681 1105 q 772 1240 774 1187 l 814 1240 q 761 1082 815 1143 q 618 1021 706 1021 z "},"ğ":{"ha":772,"x_min":45,"x_max":760,"o":"m 227 132 q 253 92 227 105 q 329 78 278 78 l 542 78 q 674 34 627 78 q 720 -92 720 -10 q 610 -305 720 -218 q 342 -393 500 -393 q 131 -333 217 -393 q 45 -189 45 -274 q 68 -89 45 -115 q 209 -8 92 -63 l 209 -8 q 168 7 186 -2 q 115 77 115 33 q 130 126 115 110 q 239 214 145 142 l 239 214 q 137 258 176 225 q 77 406 77 309 q 165 578 77 505 q 372 651 254 651 l 370 651 q 543 597 476 651 l 550 591 l 550 591 l 755 600 l 760 583 l 725 526 l 597 526 l 597 526 q 610 456 610 496 q 525 279 610 351 q 316 208 440 208 l 314 208 l 291 208 l 291 208 q 245 166 264 189 q 227 132 227 144 m 336 604 q 232 562 270 604 q 193 447 193 520 q 235 306 193 357 q 351 254 277 254 l 350 254 q 455 297 416 254 q 494 414 494 340 q 450 551 494 498 q 336 604 406 604 l 336 604 m 150 -181 q 209 -300 150 -252 q 353 -349 268 -349 q 537 -288 462 -349 q 612 -138 612 -227 q 571 -50 612 -80 q 454 -20 531 -20 l 318 -20 q 275 -24 298 -20 q 239 -34 252 -28 q 183 -78 205 -50 q 150 -181 150 -120 m 372 729 q 230 790 284 729 q 176 948 175 851 l 218 948 q 262 853 216 895 q 372 812 309 812 q 482 853 435 812 q 526 948 529 895 l 568 948 q 515 790 570 851 q 372 729 460 729 z "},"Ģ":{"ha":1060,"x_min":31,"x_max":1011,"o":"m 576 -28 q 180 110 330 -28 q 31 477 31 248 q 195 844 31 702 q 618 985 359 985 q 797 969 705 985 q 961 926 889 954 q 942 823 947 867 q 935 717 937 779 l 892 717 l 892 717 l 892 804 q 886 837 892 826 q 865 857 881 848 q 760 904 817 886 q 600 927 685 927 q 292 818 402 927 q 182 514 182 709 q 300 160 182 290 q 624 30 419 30 l 623 30 q 767 47 699 30 q 816 73 804 57 q 827 130 827 88 l 827 258 q 819 313 827 300 q 777 327 810 325 l 665 336 l 665 377 q 838 373 765 373 q 1011 377 911 373 l 1011 342 l 985 334 q 960 318 964 327 q 956 271 956 310 l 956 43 l 956 43 q 576 -28 718 -28 l 576 -28 m 448 -326 q 501 -222 482 -268 q 531 -109 520 -176 l 625 -75 l 636 -90 q 592 -189 614 -148 q 503 -321 559 -247 l 455 -338 l 448 -326 z "},"ģ":{"ha":772,"x_min":45,"x_max":760,"o":"m 227 132 q 253 92 227 105 q 329 78 278 78 l 542 78 q 674 34 627 78 q 720 -92 720 -10 q 610 -305 720 -218 q 342 -393 500 -393 q 131 -333 217 -393 q 45 -189 45 -274 q 68 -89 45 -115 q 209 -8 92 -63 l 209 -8 q 168 7 186 -2 q 115 77 115 33 q 130 126 115 110 q 239 214 145 142 l 239 214 q 137 258 176 225 q 77 406 77 309 q 165 578 77 505 q 372 651 254 651 l 370 651 q 543 597 476 651 l 550 591 l 550 591 l 755 600 l 760 583 l 725 526 l 597 526 l 597 526 q 610 456 610 496 q 525 279 610 351 q 316 208 440 208 l 314 208 l 291 208 l 291 208 q 245 166 264 189 q 227 132 227 144 m 336 604 q 232 562 270 604 q 193 447 193 520 q 235 306 193 357 q 351 254 277 254 l 350 254 q 455 297 416 254 q 494 414 494 340 q 450 551 494 498 q 336 604 406 604 l 336 604 m 150 -181 q 209 -300 150 -252 q 353 -349 268 -349 q 537 -288 462 -349 q 612 -138 612 -227 q 571 -50 612 -80 q 454 -20 531 -20 l 318 -20 q 275 -24 298 -20 q 239 -34 252 -28 q 183 -78 205 -50 q 150 -181 150 -120 m 485 985 q 431 880 451 927 q 402 768 413 836 l 308 734 l 297 749 q 341 848 319 807 q 431 980 374 906 l 478 997 l 485 985 z "},"Ī":{"ha":468,"x_min":31,"x_max":444,"o":"m 172 168 l 172 789 q 160 893 172 872 q 100 916 148 913 l 34 920 l 34 961 q 237 957 151 957 q 441 961 322 957 l 441 920 l 374 916 q 315 893 327 913 q 303 789 303 872 l 303 168 q 315 64 303 85 q 374 41 327 43 l 441 37 l 441 -4 q 238 0 323 0 q 34 -4 153 0 l 34 37 l 100 41 q 160 64 148 43 q 172 168 172 85 m 31 1134 l 444 1134 l 444 1057 l 31 1057 l 31 1134 z "},"ī":{"ha":404,"x_min":-14,"x_max":400,"o":"m 136 144 l 136 448 q 126 537 136 519 q 77 555 117 555 l 22 555 l 22 593 q 132 615 86 604 q 239 650 177 627 l 252 638 l 252 637 l 252 144 q 261 61 252 78 q 311 41 271 44 l 368 37 l 368 -4 q 193 0 267 0 q 20 -4 120 0 l 20 37 l 76 41 q 126 61 116 44 q 136 144 136 78 m -14 842 l 400 842 l 400 765 l -14 765 l -14 842 z "},"Į":{"ha":468,"x_min":31,"x_max":437,"o":"m 168 168 l 168 789 q 156 893 168 872 q 97 916 144 913 l 31 920 l 31 961 q 233 957 148 957 q 437 961 319 957 l 437 920 l 371 916 q 312 893 323 913 q 300 789 300 872 l 300 168 q 312 64 300 85 q 371 41 323 43 l 437 37 l 437 -4 q 235 0 320 0 q 31 -4 149 0 l 31 37 l 97 41 q 157 64 144 43 q 168 168 168 85 m 137 -111 q 156 -50 137 -80 q 207 0 176 -19 l 258 0 q 218 -42 235 -16 q 202 -88 202 -68 q 219 -128 202 -111 q 259 -144 236 -144 q 312 -131 286 -144 q 361 -94 339 -118 l 383 -123 q 303 -181 345 -160 q 226 -201 262 -201 q 163 -175 189 -201 q 137 -111 137 -149 z "},"į":{"ha":404,"x_min":29,"x_max":377,"o":"m 145 144 l 145 448 q 136 537 145 519 q 87 555 126 555 l 32 555 l 32 593 q 141 615 96 604 q 248 650 186 627 l 261 638 l 261 637 l 261 144 q 271 61 261 78 q 321 41 281 44 l 377 37 l 377 -4 q 203 0 276 0 q 29 -4 130 0 l 29 37 l 85 41 q 136 61 125 44 q 145 144 145 78 m 197 952 q 251 930 229 952 q 273 875 273 907 q 251 821 273 843 q 197 798 229 798 q 142 821 165 798 q 120 875 120 843 q 142 930 120 907 q 197 952 165 952 m 106 -111 q 125 -50 106 -80 q 176 0 144 -19 l 227 0 q 187 -42 203 -16 q 171 -88 171 -68 q 188 -128 171 -111 q 228 -144 205 -144 q 281 -131 254 -144 q 330 -94 308 -118 l 352 -123 q 272 -181 314 -160 q 195 -201 231 -201 q 132 -175 157 -201 q 106 -111 106 -149 z "},"İ":{"ha":468,"x_min":31,"x_max":437,"o":"m 168 168 l 168 789 q 156 893 168 872 q 97 916 144 913 l 31 920 l 31 961 q 233 957 148 957 q 437 961 319 957 l 437 920 l 371 916 q 312 893 323 913 q 300 789 300 872 l 300 168 q 312 64 300 85 q 371 41 323 43 l 437 37 l 437 -4 q 235 0 320 0 q 31 -4 149 0 l 31 37 l 97 41 q 157 64 144 43 q 168 168 168 85 m 234 1203 q 283 1183 263 1203 q 304 1134 304 1163 q 283 1085 304 1105 q 234 1065 263 1065 q 184 1085 205 1065 q 164 1134 164 1105 q 184 1183 164 1163 q 234 1203 205 1203 z "},"Ķ":{"ha":1008,"x_min":31,"x_max":997,"o":"m 300 168 q 312 64 300 85 q 371 41 323 43 l 437 37 l 437 -4 q 235 0 320 0 q 31 -4 149 0 l 31 37 l 97 41 q 156 64 144 43 q 168 168 168 85 l 168 789 q 156 892 168 871 q 97 916 144 913 l 31 920 l 31 961 q 233 957 148 957 q 437 961 319 957 l 437 920 l 371 916 q 312 892 323 913 q 300 789 300 871 l 300 494 l 300 494 q 531 718 435 622 l 616 803 q 710 896 694 879 q 725 924 725 913 l 725 961 q 842 957 793 957 q 961 961 892 957 l 961 920 l 903 916 q 836 896 864 913 q 731 808 808 878 l 593 682 l 425 531 l 425 531 l 714 253 q 905 78 863 113 q 964 41 946 43 l 997 37 l 997 -4 q 896 0 939 0 q 794 -4 853 0 q 708 85 736 57 q 622 168 680 114 l 300 474 l 300 474 l 300 168 m 420 -326 q 473 -222 454 -268 q 503 -109 492 -176 l 597 -75 l 608 -90 q 564 -189 587 -148 q 475 -321 531 -247 l 427 -338 l 420 -326 z "},"ķ":{"ha":772,"x_min":29,"x_max":762,"o":"m 261 144 q 271 61 261 78 q 321 41 281 43 l 377 37 l 377 -4 q 203 0 276 0 q 29 -4 130 0 l 29 37 l 85 41 q 135 61 125 43 q 145 144 145 78 l 145 848 q 137 905 145 892 q 101 918 129 918 l 32 918 l 32 957 q 141 976 96 965 q 248 1008 186 987 l 261 997 l 261 996 l 261 363 l 261 363 q 385 466 330 418 q 482 551 451 523 q 571 638 513 580 l 641 638 l 711 638 l 711 597 l 684 593 q 614 567 648 588 q 479 469 581 547 l 470 461 l 377 388 l 377 388 l 606 161 q 701 75 676 92 q 755 56 725 58 l 762 55 l 762 22 l 696 1 l 631 -20 l 631 -20 l 261 333 l 261 333 l 261 144 m 317 -326 q 370 -222 351 -268 q 400 -109 389 -176 l 494 -75 l 505 -90 q 461 -189 484 -148 q 372 -321 428 -247 l 324 -338 l 317 -326 z "},"Ĺ":{"ha":848,"x_min":31,"x_max":814,"o":"m 90 -4 l 90 28 l 124 45 q 161 79 154 60 q 168 159 168 98 l 168 789 q 156 892 168 871 q 97 916 144 913 l 31 920 l 31 961 q 233 957 148 957 q 437 961 319 957 l 437 920 l 371 916 q 312 893 323 913 q 300 789 300 872 l 300 62 l 300 62 q 480 53 400 54 q 673 64 566 53 q 735 98 720 68 q 765 240 751 127 l 814 240 q 797 121 802 172 q 792 2 792 71 l 792 2 q 618 -3 737 -2 q 384 0 500 -3 l 384 0 q 211 2 296 3 q 90 -4 126 1 m 123 1021 l 123 1021 l 334 1234 l 344 1243 q 388 1262 366 1261 q 424 1246 410 1263 q 436 1215 436 1231 l 435 1206 q 406 1166 431 1185 l 397 1159 l 179 1021 l 179 1021 l 123 1021 z "},"ĺ":{"ha":404,"x_min":29,"x_max":405,"o":"m 145 144 l 145 848 q 137 905 145 892 q 101 918 129 918 l 32 918 l 32 957 q 141 976 96 965 q 248 1008 186 987 l 261 997 l 261 996 l 261 144 q 271 61 261 78 q 321 41 281 44 l 377 37 l 377 -4 q 203 0 276 0 q 29 -4 130 0 l 29 37 l 85 41 q 136 61 125 44 q 145 144 145 78 m 92 1021 l 92 1021 l 302 1234 l 313 1243 q 357 1262 335 1261 q 393 1246 379 1263 q 405 1215 405 1231 l 404 1206 q 375 1166 399 1185 l 366 1159 l 148 1021 l 148 1021 l 92 1021 z "},"Ļ":{"ha":848,"x_min":31,"x_max":814,"o":"m 90 -4 l 90 28 l 124 45 q 161 79 154 60 q 168 159 168 98 l 168 789 q 156 892 168 871 q 97 916 144 913 l 31 920 l 31 961 q 233 957 148 957 q 437 961 319 957 l 437 920 l 371 916 q 312 893 323 913 q 300 789 300 872 l 300 62 l 300 62 q 480 53 400 54 q 673 64 566 53 q 735 98 720 68 q 765 240 751 127 l 814 240 q 797 121 802 172 q 792 2 792 71 l 792 2 q 618 -3 737 -2 q 384 0 500 -3 l 384 0 q 211 2 296 3 q 90 -4 126 1 m 352 -326 q 405 -222 386 -268 q 435 -109 424 -176 l 529 -75 l 540 -90 q 496 -189 518 -148 q 406 -321 463 -247 l 359 -338 l 352 -326 z "},"ļ":{"ha":404,"x_min":29,"x_max":377,"o":"m 145 144 l 145 848 q 137 905 145 892 q 101 918 129 918 l 32 918 l 32 957 q 141 976 96 965 q 248 1008 186 987 l 261 997 l 261 996 l 261 144 q 271 61 261 78 q 321 41 281 44 l 377 37 l 377 -4 q 203 0 276 0 q 29 -4 130 0 l 29 37 l 85 41 q 136 61 125 44 q 145 144 145 78 m 75 -326 q 127 -222 109 -268 q 157 -109 146 -176 l 252 -75 l 262 -90 q 218 -189 241 -148 q 129 -321 185 -247 l 81 -338 l 75 -326 z "},"Ľ":{"ha":848,"x_min":31,"x_max":814,"o":"m 90 -4 l 90 28 l 124 45 q 161 79 154 60 q 168 159 168 98 l 168 789 q 156 892 168 871 q 97 916 144 913 l 31 920 l 31 961 q 233 957 148 957 q 437 961 319 957 l 437 920 l 371 916 q 312 893 323 913 q 300 789 300 872 l 300 62 l 300 62 q 480 53 400 54 q 673 64 566 53 q 735 98 720 68 q 765 240 751 127 l 814 240 q 797 121 802 172 q 792 2 792 71 l 792 2 q 618 -3 737 -2 q 384 0 500 -3 l 384 0 q 211 2 296 3 q 90 -4 126 1 m 538 711 q 591 814 572 768 q 621 927 610 860 l 715 961 l 726 947 q 682 848 704 888 q 592 715 648 789 l 545 699 l 538 711 z "},"ľ":{"ha":606,"x_min":43,"x_max":553,"o":"m 159 144 l 159 848 q 151 905 159 892 q 115 918 143 918 l 46 918 l 46 957 q 155 976 110 965 q 262 1008 201 987 l 275 997 l 275 996 l 275 144 q 285 61 275 78 q 335 41 295 44 l 391 37 l 391 -4 q 217 0 290 0 q 43 -4 144 0 l 43 37 l 100 41 q 150 61 140 44 q 159 144 159 78 m 366 758 q 418 862 399 816 q 448 975 437 907 l 543 1008 l 553 994 q 509 895 532 936 q 420 763 476 837 l 372 746 l 366 758 z "},"Ł":{"ha":848,"x_min":35,"x_max":843,"o":"m 119 -4 l 119 28 l 153 45 q 190 79 183 60 q 197 159 197 98 l 197 400 l 56 315 l 35 359 l 197 458 l 197 789 q 185 892 197 871 q 126 916 174 913 l 60 920 l 60 961 q 262 957 177 957 q 467 961 348 957 l 467 920 l 400 916 q 341 893 353 913 q 329 789 329 872 l 329 538 l 517 652 l 540 608 l 329 480 l 329 62 l 329 62 q 509 53 429 54 q 702 64 595 53 q 765 98 749 68 q 794 240 781 127 l 843 240 q 826 121 831 172 q 821 2 821 71 l 821 2 q 648 -3 766 -2 q 413 0 529 -3 l 413 0 q 240 2 326 3 q 119 -4 155 1 z "},"ł":{"ha":404,"x_min":33,"x_max":381,"o":"m 149 144 l 149 475 l 39 387 l 39 453 l 149 542 l 149 848 q 141 905 149 892 q 105 918 133 918 l 36 918 l 36 957 q 145 976 100 965 q 252 1008 191 987 l 265 997 l 265 996 l 265 635 l 375 723 l 375 656 l 265 568 l 265 144 q 275 61 265 78 q 325 41 285 44 l 381 37 l 381 -4 q 207 0 280 0 q 33 -4 134 0 l 33 37 l 90 41 q 140 61 130 44 q 149 144 149 78 z "},"Ń":{"ha":1154,"x_min":24,"x_max":1128,"o":"m 220 168 q 232 64 220 85 q 291 41 243 43 l 357 37 l 357 -4 q 191 0 261 0 q 24 -4 121 0 l 24 37 l 88 41 q 144 65 133 44 q 155 168 155 86 l 155 789 q 144 892 155 871 q 87 916 133 913 l 24 920 l 24 961 q 144 959 94 959 q 264 964 195 959 q 335 869 313 898 q 397 792 357 841 l 933 134 l 933 134 l 933 134 l 933 789 q 921 893 933 872 q 862 916 909 913 l 795 920 l 795 961 q 962 957 892 957 q 1128 961 1031 957 l 1128 920 l 1065 916 q 1009 892 1020 913 q 998 789 998 871 l 998 27 q 999 -6 998 9 q 1003 -27 1001 -22 l 876 -3 l 220 801 l 220 801 l 220 801 l 220 168 m 465 1021 l 465 1021 l 676 1234 l 686 1243 q 731 1262 709 1261 q 766 1246 753 1263 q 779 1215 779 1231 l 777 1206 q 749 1166 773 1185 l 739 1159 l 522 1021 l 522 1021 l 465 1021 z "},"ń":{"ha":808,"x_min":8,"x_max":795,"o":"m 124 144 l 124 448 q 115 537 124 519 q 66 555 105 555 l 11 555 l 11 593 q 120 615 75 604 q 227 650 165 627 l 240 638 l 240 637 l 240 526 l 240 526 l 240 526 q 353 623 327 605 q 454 651 393 651 q 628 590 570 651 q 686 407 686 529 l 686 144 q 695 61 686 78 q 742 41 705 43 l 795 37 l 795 -4 q 683 0 730 0 q 570 -4 635 0 l 570 37 l 570 379 q 529 518 570 470 q 408 566 487 566 q 290 521 342 566 q 254 481 269 503 q 244 459 248 471 q 240 435 240 446 l 240 144 q 250 61 240 78 q 300 41 260 43 l 356 37 l 356 -4 q 182 0 255 0 q 8 -4 109 0 l 8 37 l 64 41 q 115 61 104 43 q 124 144 124 78 m 310 729 l 310 729 l 521 942 l 531 951 q 575 969 553 968 q 611 954 597 970 q 623 923 623 939 l 622 913 q 593 873 618 893 l 584 867 l 366 729 l 366 729 l 310 729 z "},"Ņ":{"ha":1154,"x_min":24,"x_max":1128,"o":"m 220 168 q 232 64 220 85 q 291 41 243 43 l 357 37 l 357 -4 q 191 0 261 0 q 24 -4 121 0 l 24 37 l 88 41 q 144 65 133 44 q 155 168 155 86 l 155 789 q 144 892 155 871 q 87 916 133 913 l 24 920 l 24 961 q 144 959 94 959 q 264 964 195 959 q 335 869 313 898 q 397 792 357 841 l 933 134 l 933 134 l 933 134 l 933 789 q 921 893 933 872 q 862 916 909 913 l 795 920 l 795 961 q 962 957 892 957 q 1128 961 1031 957 l 1128 920 l 1065 916 q 1009 892 1020 913 q 998 789 998 871 l 998 27 q 999 -6 998 9 q 1003 -27 1001 -22 l 876 -3 l 220 801 l 220 801 l 220 801 l 220 168 m 448 -326 q 501 -222 482 -268 q 531 -109 520 -176 l 625 -75 l 636 -90 q 592 -189 614 -148 q 503 -321 559 -247 l 455 -338 l 448 -326 z "},"ņ":{"ha":808,"x_min":8,"x_max":795,"o":"m 124 144 l 124 448 q 115 537 124 519 q 66 555 105 555 l 11 555 l 11 593 q 120 615 75 604 q 227 650 165 627 l 240 638 l 240 637 l 240 526 l 240 526 l 240 526 q 353 623 327 605 q 454 651 393 651 q 628 590 570 651 q 686 407 686 529 l 686 144 q 695 61 686 78 q 742 41 705 43 l 795 37 l 795 -4 q 683 0 730 0 q 570 -4 635 0 l 570 37 l 570 379 q 529 518 570 470 q 408 566 487 566 q 290 521 342 566 q 254 481 269 503 q 244 459 248 471 q 240 435 240 446 l 240 144 q 250 61 240 78 q 300 41 260 43 l 356 37 l 356 -4 q 182 0 255 0 q 8 -4 109 0 l 8 37 l 64 41 q 115 61 104 43 q 124 144 124 78 m 277 -326 q 330 -222 311 -268 q 359 -109 349 -176 l 454 -75 l 465 -90 q 420 -189 443 -148 q 331 -321 387 -247 l 283 -338 l 277 -326 z "},"Ň":{"ha":1154,"x_min":24,"x_max":1128,"o":"m 220 168 q 232 64 220 85 q 291 41 243 43 l 357 37 l 357 -4 q 191 0 261 0 q 24 -4 121 0 l 24 37 l 88 41 q 144 65 133 44 q 155 168 155 86 l 155 789 q 144 892 155 871 q 87 916 133 913 l 24 920 l 24 961 q 144 959 94 959 q 264 964 195 959 q 335 869 313 898 q 397 792 357 841 l 933 134 l 933 134 l 933 134 l 933 789 q 921 893 933 872 q 862 916 909 913 l 795 920 l 795 961 q 962 957 892 957 q 1128 961 1031 957 l 1128 920 l 1065 916 q 1009 892 1020 913 q 998 789 998 871 l 998 27 q 999 -6 998 9 q 1003 -27 1001 -22 l 876 -3 l 220 801 l 220 801 l 220 801 l 220 168 m 517 1027 l 343 1259 l 392 1259 l 559 1115 l 559 1115 l 727 1259 l 776 1259 l 602 1027 l 559 1027 l 517 1027 z "},"ň":{"ha":808,"x_min":8,"x_max":795,"o":"m 124 144 l 124 448 q 115 537 124 519 q 66 555 105 555 l 11 555 l 11 593 q 120 615 75 604 q 227 650 165 627 l 240 638 l 240 637 l 240 526 l 240 526 l 240 526 q 353 623 327 605 q 454 651 393 651 q 628 590 570 651 q 686 407 686 529 l 686 144 q 695 61 686 78 q 742 41 705 43 l 795 37 l 795 -4 q 683 0 730 0 q 570 -4 635 0 l 570 37 l 570 379 q 529 518 570 470 q 408 566 487 566 q 290 521 342 566 q 254 481 269 503 q 244 459 248 471 q 240 435 240 446 l 240 144 q 250 61 240 78 q 300 41 260 43 l 356 37 l 356 -4 q 182 0 255 0 q 8 -4 109 0 l 8 37 l 64 41 q 115 61 104 43 q 124 144 124 78 m 349 734 l 176 966 l 224 966 l 392 823 l 392 823 l 559 966 l 608 966 l 435 734 l 392 734 l 349 734 z "},"Ō":{"ha":1092,"x_min":31,"x_max":1061,"o":"m 521 -28 q 168 113 304 -28 q 31 479 31 254 q 181 844 31 703 q 571 985 332 985 q 925 858 788 985 q 1061 528 1061 730 q 911 127 1061 282 q 521 -28 760 -28 l 521 -28 m 563 30 q 819 147 726 30 q 913 466 913 264 q 810 803 913 680 q 529 927 707 927 q 273 822 367 927 q 179 535 179 717 q 282 165 179 301 q 563 30 385 30 l 563 30 m 339 1134 l 753 1134 l 753 1057 l 339 1057 l 339 1134 z "},"ō":{"ha":758,"x_min":45,"x_max":713,"o":"m 362 -27 q 133 69 222 -27 q 45 318 45 165 q 143 558 45 465 q 396 651 241 651 q 625 564 536 651 q 713 338 713 477 q 615 75 713 177 q 362 -27 517 -27 l 362 -27 m 396 18 q 533 90 483 18 q 583 288 583 162 q 524 521 583 435 q 362 606 465 606 q 225 542 275 606 q 175 365 175 477 q 234 111 175 204 q 396 18 294 18 l 396 18 m 172 842 l 586 842 l 586 765 l 172 765 l 172 842 z "},"Ő":{"ha":1092,"x_min":31,"x_max":1061,"o":"m 521 -28 q 168 113 304 -28 q 31 479 31 254 q 181 844 31 703 q 571 985 332 985 q 925 858 788 985 q 1061 528 1061 730 q 911 127 1061 282 q 521 -28 760 -28 l 521 -28 m 563 30 q 819 147 726 30 q 913 466 913 264 q 810 803 913 680 q 529 927 707 927 q 273 822 367 927 q 179 535 179 717 q 282 165 179 301 q 563 30 385 30 l 563 30 m 377 1021 l 377 1021 l 569 1244 l 579 1254 q 624 1276 602 1274 q 661 1263 647 1278 q 675 1222 679 1243 q 648 1178 672 1200 l 638 1170 l 429 1021 l 429 1021 l 377 1021 m 601 1021 l 601 1021 l 793 1244 l 803 1254 q 848 1276 825 1274 q 885 1263 871 1278 q 900 1228 899 1246 l 899 1221 q 872 1178 896 1200 l 862 1170 l 653 1021 l 653 1021 l 601 1021 z "},"ő":{"ha":758,"x_min":45,"x_max":749,"o":"m 362 -27 q 133 69 222 -27 q 45 318 45 165 q 143 558 45 465 q 396 651 241 651 q 625 564 536 651 q 713 338 713 477 q 615 75 713 177 q 362 -27 517 -27 l 362 -27 m 396 18 q 533 90 483 18 q 583 288 583 162 q 524 521 583 435 q 362 606 465 606 q 225 542 275 606 q 175 365 175 477 q 234 111 175 204 q 396 18 294 18 l 396 18 m 226 729 l 226 729 l 418 951 l 428 962 q 473 984 450 982 q 510 970 496 986 q 524 929 528 951 q 497 886 521 908 l 487 878 l 278 729 l 278 729 l 226 729 m 450 729 l 450 729 l 642 951 l 652 962 q 697 984 674 982 q 734 970 720 986 q 749 936 748 954 l 748 929 q 721 886 745 908 l 711 878 l 502 729 l 502 729 l 450 729 z "},"Œ":{"ha":1386,"x_min":31,"x_max":1336,"o":"m 547 985 q 612 981 568 985 q 699 970 656 977 q 789 960 745 964 q 850 956 833 956 l 925 957 l 925 957 q 1172 961 1059 961 q 1314 955 1284 960 l 1314 955 q 1297 852 1302 895 q 1293 747 1293 808 l 1244 747 l 1244 859 q 1186 886 1244 874 q 1040 903 1129 899 q 977 904 1006 905 q 854 898 922 904 l 854 898 l 854 519 l 854 519 l 1001 516 q 1144 530 1126 516 q 1167 640 1162 543 l 1208 640 q 1204 483 1204 549 q 1208 325 1204 416 l 1167 325 q 1144 444 1162 429 q 1001 458 1126 458 l 854 455 l 854 455 l 854 63 l 854 63 q 1018 55 945 56 q 1195 64 1096 55 q 1259 97 1243 69 q 1287 229 1274 125 l 1336 229 q 1319 115 1324 163 q 1314 0 1314 67 l 1314 0 q 1057 -5 1229 -5 l 954 -5 q 862 -6 941 -3 q 683 -18 783 -10 q 588 -25 630 -22 q 538 -28 546 -28 q 172 114 314 -28 q 31 479 31 255 q 175 844 31 703 q 547 985 319 985 m 528 924 q 268 815 363 924 q 172 517 172 706 q 273 163 172 293 q 548 33 374 33 q 722 82 650 33 l 722 82 l 722 861 l 722 861 q 528 924 643 924 z "},"œ":{"ha":1149,"x_min":45,"x_max":1112,"o":"m 385 651 q 604 561 515 651 l 620 543 l 621 543 q 845 651 717 651 l 846 651 q 1040 580 968 651 q 1112 397 1109 511 l 1112 383 l 1112 383 l 1112 338 l 1112 338 q 997 326 1085 332 q 860 319 909 319 l 654 319 l 654 319 q 718 121 660 191 q 909 45 783 45 q 996 64 947 45 q 1086 113 1045 83 l 1100 94 l 1074 47 q 956 -7 1019 13 q 838 -27 892 -27 q 622 72 720 -27 l 606 90 l 606 90 l 594 77 q 351 -27 497 -27 q 130 69 216 -27 q 45 318 45 165 q 140 558 45 465 q 385 651 235 651 m 351 606 q 222 541 269 606 q 175 363 175 475 q 231 110 175 203 q 385 18 288 18 q 514 91 467 18 q 562 290 562 163 q 505 522 562 437 q 351 606 449 606 m 995 373 l 995 373 q 953 541 993 475 q 844 606 913 606 l 846 606 q 704 537 755 606 q 654 372 659 477 l 654 372 q 818 366 745 366 q 995 373 897 366 z "},"Ŕ":{"ha":928,"x_min":31,"x_max":932,"o":"m 168 168 l 168 789 q 156 892 168 871 q 97 916 144 913 l 31 920 l 31 961 l 234 957 l 234 957 l 504 961 q 724 908 649 961 q 799 751 799 854 q 690 551 799 628 q 530 484 624 503 l 530 484 l 703 254 l 771 165 q 856 63 835 83 q 901 41 878 43 l 932 37 l 932 -5 q 836 -1 876 -1 q 737 -5 794 -1 l 737 -5 q 540 257 623 148 q 351 498 462 361 l 359 517 l 408 516 q 590 572 518 516 q 661 713 661 628 q 605 857 661 804 q 450 909 548 909 q 300 892 370 909 l 300 892 l 300 168 q 312 64 300 85 q 371 41 323 43 l 437 37 l 437 -4 q 235 0 320 0 q 31 -4 149 0 l 31 37 l 97 41 q 157 64 144 43 q 168 168 168 85 m 341 1021 l 341 1021 l 552 1234 l 562 1243 q 607 1262 585 1261 q 642 1246 629 1263 q 654 1215 654 1231 l 653 1206 q 625 1166 649 1185 l 615 1159 l 397 1021 l 397 1021 l 341 1021 z "},"ŕ":{"ha":549,"x_min":29,"x_max":551,"o":"m 145 144 l 145 448 q 136 537 145 519 q 87 555 126 555 l 32 555 l 32 593 q 141 615 96 604 q 248 650 186 627 l 261 638 l 261 637 l 261 503 l 261 503 l 261 503 q 357 613 331 589 q 456 651 398 651 q 491 647 473 651 q 519 637 509 643 l 519 637 l 507 469 l 479 469 q 441 516 466 500 q 385 533 417 533 q 294 485 336 533 l 292 481 q 269 438 277 464 q 261 385 261 412 l 261 144 q 273 61 261 78 q 333 41 285 43 l 400 37 l 400 -4 q 214 0 292 0 q 29 -4 136 0 l 29 37 l 85 41 q 136 61 125 44 q 145 144 145 78 m 237 729 l 237 729 l 448 942 l 458 951 q 503 969 481 968 q 538 954 525 970 q 551 923 550 939 l 549 913 q 521 873 545 893 l 511 867 l 294 729 l 294 729 l 237 729 z "},"Ŗ":{"ha":928,"x_min":31,"x_max":932,"o":"m 168 168 l 168 789 q 156 892 168 871 q 97 916 144 913 l 31 920 l 31 961 l 234 957 l 234 957 l 504 961 q 724 908 649 961 q 799 751 799 854 q 690 551 799 628 q 530 484 624 503 l 530 484 l 703 254 l 771 165 q 856 63 835 83 q 901 41 878 43 l 932 37 l 932 -5 q 836 -1 876 -1 q 737 -5 794 -1 l 737 -5 q 540 257 623 148 q 351 498 462 361 l 359 517 l 408 516 q 590 572 518 516 q 661 713 661 628 q 605 857 661 804 q 450 909 548 909 q 300 892 370 909 l 300 892 l 300 168 q 312 64 300 85 q 371 41 323 43 l 437 37 l 437 -4 q 235 0 320 0 q 31 -4 149 0 l 31 37 l 97 41 q 157 64 144 43 q 168 168 168 85 m 408 -326 q 460 -222 441 -268 q 490 -109 479 -176 l 585 -75 l 595 -90 q 551 -189 574 -148 q 462 -321 518 -247 l 414 -338 l 408 -326 z "},"ŗ":{"ha":549,"x_min":29,"x_max":519,"o":"m 145 144 l 145 448 q 136 537 145 519 q 87 555 126 555 l 32 555 l 32 593 q 141 615 96 604 q 248 650 186 627 l 261 638 l 261 637 l 261 503 l 261 503 l 261 503 q 357 613 331 589 q 456 651 398 651 q 491 647 473 651 q 519 637 509 643 l 519 637 l 507 469 l 479 469 q 441 516 466 500 q 385 533 417 533 q 294 485 336 533 l 292 481 q 269 438 277 464 q 261 385 261 412 l 261 144 q 273 61 261 78 q 333 41 285 43 l 400 37 l 400 -4 q 214 0 292 0 q 29 -4 136 0 l 29 37 l 85 41 q 136 61 125 44 q 145 144 145 78 m 75 -326 q 127 -222 109 -268 q 157 -109 146 -176 l 252 -75 l 262 -90 q 218 -189 241 -148 q 129 -321 185 -247 l 81 -338 l 75 -326 z "},"Ř":{"ha":928,"x_min":31,"x_max":932,"o":"m 168 168 l 168 789 q 156 892 168 871 q 97 916 144 913 l 31 920 l 31 961 l 234 957 l 234 957 l 504 961 q 724 908 649 961 q 799 751 799 854 q 690 551 799 628 q 530 484 624 503 l 530 484 l 703 254 l 771 165 q 856 63 835 83 q 901 41 878 43 l 932 37 l 932 -5 q 836 -1 876 -1 q 737 -5 794 -1 l 737 -5 q 540 257 623 148 q 351 498 462 361 l 359 517 l 408 516 q 590 572 518 516 q 661 713 661 628 q 605 857 661 804 q 450 909 548 909 q 300 892 370 909 l 300 892 l 300 168 q 312 64 300 85 q 371 41 323 43 l 437 37 l 437 -4 q 235 0 320 0 q 31 -4 149 0 l 31 37 l 97 41 q 157 64 144 43 q 168 168 168 85 m 393 1027 l 219 1259 l 268 1259 l 435 1115 l 435 1115 l 603 1259 l 652 1259 l 478 1027 l 435 1027 l 393 1027 z "},"ř":{"ha":549,"x_min":29,"x_max":536,"o":"m 145 144 l 145 448 q 136 537 145 519 q 87 555 126 555 l 32 555 l 32 593 q 141 615 96 604 q 248 650 186 627 l 261 638 l 261 637 l 261 503 l 261 503 l 261 503 q 357 613 331 589 q 456 651 398 651 q 491 647 473 651 q 519 637 509 643 l 519 637 l 507 469 l 479 469 q 441 516 466 500 q 385 533 417 533 q 294 485 336 533 l 292 481 q 269 438 277 464 q 261 385 261 412 l 261 144 q 273 61 261 78 q 333 41 285 43 l 400 37 l 400 -4 q 214 0 292 0 q 29 -4 136 0 l 29 37 l 85 41 q 136 61 125 44 q 145 144 145 78 m 277 734 l 103 966 l 152 966 l 319 823 l 319 823 l 487 966 l 536 966 l 362 734 l 319 734 l 277 734 z "},"Ś":{"ha":729,"x_min":33,"x_max":699,"o":"m 578 730 l 578 730 l 568 817 q 559 850 565 839 q 538 871 553 861 q 470 907 507 893 q 357 927 416 927 q 209 869 267 927 q 151 720 151 811 q 206 603 151 640 q 404 549 260 566 q 632 476 565 528 q 699 319 699 425 q 578 73 699 174 q 283 -28 458 -28 q 159 -12 227 -28 q 39 31 92 4 q 50 138 47 93 q 52 244 52 182 l 95 244 l 95 244 l 106 157 q 114 125 109 136 q 134 102 120 114 q 212 58 168 75 q 330 33 273 33 q 510 94 440 33 q 581 252 581 155 q 524 378 581 338 q 319 436 467 418 q 98 513 163 456 q 33 688 33 570 q 136 899 33 812 q 387 985 238 985 q 513 969 444 985 q 642 926 583 953 q 626 829 630 870 q 621 730 621 788 l 578 730 m 275 1021 l 275 1021 l 486 1234 l 496 1243 q 541 1262 519 1261 q 576 1246 563 1263 q 589 1215 589 1231 l 587 1206 q 559 1166 583 1185 l 549 1159 l 332 1021 l 332 1021 l 275 1021 z "},"ś":{"ha":589,"x_min":41,"x_max":543,"o":"m 447 460 l 447 460 l 447 481 q 436 534 447 511 q 404 570 425 557 q 369 588 388 580 q 277 606 324 606 q 183 576 218 606 q 149 494 149 545 q 185 422 149 447 q 320 379 222 398 q 493 317 444 356 q 543 208 543 279 q 456 38 543 102 q 227 -27 369 -27 q 138 -18 187 -27 q 41 6 89 -9 q 54 104 50 63 q 56 200 57 144 l 98 200 l 98 200 l 98 139 q 105 103 98 120 q 123 75 112 85 q 172 43 146 54 q 272 23 214 23 q 395 57 349 23 q 440 150 440 92 q 404 226 440 200 q 273 269 369 251 q 100 334 150 292 q 52 458 52 376 q 122 598 52 545 q 308 651 193 651 q 399 641 349 651 q 493 615 449 631 q 486 538 488 570 q 486 460 485 505 l 447 460 m 213 729 l 213 729 l 424 942 l 434 951 q 478 969 456 968 q 514 954 500 970 q 526 923 526 939 l 525 913 q 496 873 521 893 l 487 867 l 269 729 l 269 729 l 213 729 z "},"Ş":{"ha":729,"x_min":33,"x_max":699,"o":"m 578 730 l 578 730 l 568 817 q 559 850 565 839 q 538 871 553 861 q 470 907 507 893 q 357 927 416 927 q 209 869 267 927 q 151 720 151 811 q 206 603 151 640 q 404 549 260 566 q 632 476 565 528 q 699 319 699 425 q 578 73 699 174 q 283 -28 458 -28 q 159 -12 227 -28 q 39 31 92 4 q 50 138 47 93 q 52 244 52 182 l 95 244 l 95 244 l 106 157 q 114 125 109 136 q 134 102 120 114 q 212 58 168 75 q 330 33 273 33 q 510 94 440 33 q 581 252 581 155 q 524 378 581 338 q 319 436 467 418 q 98 513 163 456 q 33 688 33 570 q 136 899 33 812 q 387 985 238 985 q 513 969 444 985 q 642 926 583 953 q 626 829 630 870 q 621 730 621 788 l 578 730 m 347 -14 l 312 -103 l 312 -103 q 353 -98 337 -98 q 436 -125 404 -98 q 467 -197 467 -153 q 421 -281 467 -250 q 297 -313 375 -313 q 244 -308 269 -313 q 178 -290 219 -303 l 199 -247 q 243 -258 220 -254 q 283 -262 266 -262 q 345 -248 326 -262 q 363 -199 363 -233 q 348 -163 363 -177 q 309 -149 332 -149 q 279 -151 294 -149 q 252 -158 264 -154 l 242 -150 l 300 -14 l 347 -14 z "},"ş":{"ha":589,"x_min":41,"x_max":543,"o":"m 447 460 l 447 460 l 447 481 q 436 534 447 511 q 404 570 425 557 q 369 588 388 580 q 277 606 324 606 q 183 576 218 606 q 149 494 149 545 q 185 422 149 447 q 320 379 222 398 q 493 317 444 356 q 543 208 543 279 q 456 38 543 102 q 227 -27 369 -27 q 138 -18 187 -27 q 41 6 89 -9 q 54 104 50 63 q 56 200 57 144 l 98 200 l 98 200 l 98 139 q 105 103 98 120 q 123 75 112 85 q 172 43 146 54 q 272 23 214 23 q 395 57 349 23 q 440 150 440 92 q 404 226 440 200 q 273 269 369 251 q 100 334 150 292 q 52 458 52 376 q 122 598 52 545 q 308 651 193 651 q 399 641 349 651 q 493 615 449 631 q 486 538 488 570 q 486 460 485 505 l 447 460 m 304 -14 l 269 -103 l 269 -103 q 310 -98 295 -98 q 393 -125 361 -98 q 425 -197 425 -153 q 378 -281 425 -250 q 254 -313 332 -313 q 201 -308 226 -313 q 136 -290 176 -303 l 156 -247 q 201 -258 178 -254 q 240 -262 224 -262 q 302 -248 283 -262 q 321 -199 321 -233 q 305 -163 321 -177 q 266 -149 290 -149 q 236 -151 252 -149 q 209 -158 221 -154 l 199 -150 l 257 -14 l 304 -14 z "},"Š":{"ha":729,"x_min":33,"x_max":699,"o":"m 578 730 l 578 730 l 568 817 q 559 850 565 839 q 538 871 553 861 q 470 907 507 893 q 357 927 416 927 q 209 869 267 927 q 151 720 151 811 q 206 603 151 640 q 404 549 260 566 q 632 476 565 528 q 699 319 699 425 q 578 73 699 174 q 283 -28 458 -28 q 159 -12 227 -28 q 39 31 92 4 q 50 138 47 93 q 52 244 52 182 l 95 244 l 95 244 l 106 157 q 114 125 109 136 q 134 102 120 114 q 212 58 168 75 q 330 33 273 33 q 510 94 440 33 q 581 252 581 155 q 524 378 581 338 q 319 436 467 418 q 98 513 163 456 q 33 688 33 570 q 136 899 33 812 q 387 985 238 985 q 513 969 444 985 q 642 926 583 953 q 626 829 630 870 q 621 730 621 788 l 578 730 m 327 1027 l 153 1259 l 202 1259 l 370 1115 l 370 1115 l 537 1259 l 586 1259 l 412 1027 l 370 1027 l 327 1027 z "},"š":{"ha":589,"x_min":41,"x_max":543,"o":"m 447 460 l 447 460 l 447 481 q 436 534 447 511 q 404 570 425 557 q 369 588 388 580 q 277 606 324 606 q 183 576 218 606 q 149 494 149 545 q 185 422 149 447 q 320 379 222 398 q 493 317 444 356 q 543 208 543 279 q 456 38 543 102 q 227 -27 369 -27 q 138 -18 187 -27 q 41 6 89 -9 q 54 104 50 63 q 56 200 57 144 l 98 200 l 98 200 l 98 139 q 105 103 98 120 q 123 75 112 85 q 172 43 146 54 q 272 23 214 23 q 395 57 349 23 q 440 150 440 92 q 404 226 440 200 q 273 269 369 251 q 100 334 150 292 q 52 458 52 376 q 122 598 52 545 q 308 651 193 651 q 399 641 349 651 q 493 615 449 631 q 486 538 488 570 q 486 460 485 505 l 447 460 m 252 734 l 79 966 l 127 966 l 295 823 l 295 823 l 463 966 l 511 966 l 338 734 l 295 734 l 252 734 z "},"Ţ":{"ha":851,"x_min":25,"x_max":826,"o":"m 359 168 l 359 893 l 359 893 l 159 893 q 95 884 109 893 q 79 838 81 874 l 76 737 l 33 737 q 35 848 36 802 q 25 961 33 896 l 25 961 l 425 957 l 425 957 l 826 961 l 826 961 q 816 850 817 897 q 819 737 814 802 l 775 737 l 772 838 q 756 884 770 874 q 692 893 742 893 l 491 893 l 491 893 l 491 168 q 504 64 491 85 q 570 41 517 43 l 645 37 l 645 -4 q 425 0 517 0 q 205 -4 333 0 l 205 37 l 280 41 q 347 64 333 43 q 359 168 359 85 m 446 15 l 411 -75 l 411 -75 q 452 -70 436 -70 q 535 -97 503 -70 q 566 -168 566 -124 q 520 -253 566 -222 q 396 -284 474 -284 q 343 -279 368 -284 q 277 -262 318 -275 l 298 -218 q 342 -230 319 -226 q 382 -234 365 -234 q 444 -219 425 -234 q 463 -170 463 -205 q 447 -134 463 -149 q 408 -120 431 -120 q 378 -123 393 -120 q 351 -130 363 -125 l 341 -121 l 399 15 l 446 15 z "},"ţ":{"ha":453,"x_min":31,"x_max":445,"o":"m 291 -16 q 170 19 202 -16 q 138 153 138 55 l 138 530 l 138 530 l 31 525 l 31 553 l 52 562 l 138 596 l 138 596 l 138 654 q 136 753 138 709 q 131 808 134 798 l 250 863 l 267 848 q 258 754 262 814 q 254 639 254 693 l 254 596 l 256 596 l 445 605 l 433 530 l 366 530 l 254 530 l 254 530 l 254 164 q 271 93 254 115 q 327 71 289 71 q 369 78 347 71 q 411 98 391 85 l 429 74 l 361 -3 q 329 -13 347 -9 q 291 -16 311 -16 m 289 -14 l 254 -103 l 254 -103 q 295 -98 280 -98 q 378 -125 347 -98 q 410 -197 410 -153 q 363 -281 410 -250 q 239 -313 317 -313 q 186 -308 211 -313 q 121 -290 161 -303 l 141 -247 q 186 -258 163 -254 q 225 -262 209 -262 q 287 -248 269 -262 q 306 -199 306 -233 q 290 -163 306 -177 q 251 -149 275 -149 q 221 -151 237 -149 q 194 -158 206 -154 l 184 -150 l 242 -14 l 289 -14 z "},"Ť":{"ha":851,"x_min":25,"x_max":826,"o":"m 359 168 l 359 893 l 359 893 l 159 893 q 95 884 109 893 q 79 838 81 874 l 76 737 l 33 737 q 35 848 36 802 q 25 961 33 896 l 25 961 l 425 957 l 425 957 l 826 961 l 826 961 q 816 850 817 897 q 819 737 814 802 l 775 737 l 772 838 q 756 884 770 874 q 692 893 742 893 l 491 893 l 491 893 l 491 168 q 504 64 491 85 q 570 41 517 43 l 645 37 l 645 -4 q 425 0 517 0 q 205 -4 333 0 l 205 37 l 280 41 q 347 64 333 43 q 359 168 359 85 m 366 1027 l 192 1259 l 241 1259 l 408 1115 l 408 1115 l 576 1259 l 625 1259 l 451 1027 l 408 1027 l 366 1027 z "},"ť":{"ha":597,"x_min":30,"x_max":541,"o":"m 290 -16 q 169 19 201 -16 q 137 153 137 55 l 137 530 l 137 530 l 30 525 l 30 553 l 52 562 l 137 596 l 137 596 l 137 654 q 135 753 137 709 q 130 808 133 798 l 249 863 l 267 848 q 257 754 261 814 q 253 639 253 693 l 253 596 l 255 596 l 444 605 l 433 530 l 366 530 l 253 530 l 253 530 l 253 164 q 271 93 253 115 q 326 71 288 71 q 368 78 346 71 q 410 98 390 85 l 429 74 l 361 -3 q 328 -13 346 -9 q 290 -16 310 -16 m 353 747 q 406 850 387 804 q 435 963 425 896 l 530 997 l 541 983 q 496 884 519 924 q 407 751 463 825 l 359 734 l 353 747 z "},"Ū":{"ha":1080,"x_min":17,"x_max":1054,"o":"m 923 375 q 828 72 924 173 q 539 -28 732 -28 q 245 48 335 -28 q 155 298 155 125 l 155 789 q 143 892 155 871 q 83 916 131 913 l 17 920 l 17 961 q 220 957 134 957 q 424 961 305 957 l 424 920 l 357 916 q 298 892 310 913 q 286 789 286 871 l 286 311 q 351 116 286 178 q 555 55 416 55 q 786 132 713 55 q 859 378 859 210 l 859 789 q 846 892 859 871 q 781 916 833 913 l 707 920 l 707 961 q 880 957 808 957 q 1054 961 954 957 l 1054 920 l 990 916 q 934 881 945 913 q 923 724 923 850 l 923 375 m 365 1134 l 779 1134 l 779 1057 l 365 1057 l 365 1134 z "},"ū":{"ha":838,"x_min":25,"x_max":806,"o":"m 254 637 l 254 222 q 288 93 254 130 q 406 56 321 56 q 524 113 470 56 q 569 174 550 139 q 578 197 575 184 q 582 222 582 210 l 582 448 q 572 537 582 519 q 524 555 563 555 l 469 555 l 469 593 q 578 615 532 604 q 685 650 623 627 l 698 638 l 698 637 l 698 144 q 707 61 698 78 q 753 41 716 43 l 806 37 l 806 -4 q 691 0 739 0 q 575 -4 642 0 q 581 61 578 33 l 583 121 l 583 121 l 583 121 q 451 5 482 26 q 329 -28 405 -28 q 183 19 228 -28 q 138 172 138 66 l 138 448 q 129 537 138 519 q 80 555 119 555 l 25 555 l 25 593 q 134 615 89 604 q 241 650 180 627 l 254 638 l 254 637 m 211 842 l 625 842 l 625 765 l 211 765 l 211 842 z "},"Ů":{"ha":1080,"x_min":17,"x_max":1054,"o":"m 923 375 q 828 72 924 173 q 539 -28 732 -28 q 245 48 335 -28 q 155 298 155 125 l 155 789 q 143 892 155 871 q 83 916 131 913 l 17 920 l 17 961 q 220 957 134 957 q 424 961 305 957 l 424 920 l 357 916 q 298 892 310 913 q 286 789 286 871 l 286 311 q 351 116 286 178 q 555 55 416 55 q 786 132 713 55 q 859 378 859 210 l 859 789 q 846 892 859 871 q 781 916 833 913 l 707 920 l 707 961 q 880 957 808 957 q 1054 961 954 957 l 1054 920 l 990 916 q 934 881 945 913 q 923 724 923 850 l 923 375 m 572 1008 q 473 1048 513 1008 q 433 1147 433 1088 q 473 1245 433 1205 q 572 1286 513 1286 q 670 1245 630 1286 q 711 1147 711 1205 q 670 1048 711 1088 q 572 1008 630 1008 l 572 1008 m 572 1057 q 633 1083 608 1057 q 658 1147 658 1109 q 633 1210 658 1184 q 572 1236 608 1236 q 511 1210 536 1236 q 486 1147 486 1184 q 511 1083 486 1109 q 572 1057 536 1057 l 572 1057 z "},"ů":{"ha":838,"x_min":25,"x_max":806,"o":"m 254 637 l 254 222 q 288 93 254 130 q 406 56 321 56 q 524 113 470 56 q 569 174 550 139 q 578 197 575 184 q 582 222 582 210 l 582 448 q 572 537 582 519 q 524 555 563 555 l 469 555 l 469 593 q 578 615 532 604 q 685 650 623 627 l 698 638 l 698 637 l 698 144 q 707 61 698 78 q 753 41 716 43 l 806 37 l 806 -4 q 691 0 739 0 q 575 -4 642 0 q 581 61 578 33 l 583 121 l 583 121 l 583 121 q 451 5 482 26 q 329 -28 405 -28 q 183 19 228 -28 q 138 172 138 66 l 138 448 q 129 537 138 519 q 80 555 119 555 l 25 555 l 25 593 q 134 615 89 604 q 241 650 180 627 l 254 638 l 254 637 m 434 715 q 335 756 376 715 q 295 854 295 796 q 335 953 295 913 q 434 994 376 994 q 533 953 492 994 q 573 854 573 913 q 533 756 573 796 q 434 715 492 715 l 434 715 m 434 765 q 495 791 470 765 q 520 854 520 817 q 495 918 520 892 q 434 944 470 944 q 373 918 398 944 q 348 854 348 892 q 373 791 348 817 q 434 765 398 765 l 434 765 z "},"Ű":{"ha":1080,"x_min":17,"x_max":1054,"o":"m 923 375 q 828 72 924 173 q 539 -28 732 -28 q 245 48 335 -28 q 155 298 155 125 l 155 789 q 143 892 155 871 q 83 916 131 913 l 17 920 l 17 961 q 220 957 134 957 q 424 961 305 957 l 424 920 l 357 916 q 298 892 310 913 q 286 789 286 871 l 286 311 q 351 116 286 178 q 555 55 416 55 q 786 132 713 55 q 859 378 859 210 l 859 789 q 846 892 859 871 q 781 916 833 913 l 707 920 l 707 961 q 880 957 808 957 q 1054 961 954 957 l 1054 920 l 990 916 q 934 881 945 913 q 923 724 923 850 l 923 375 m 403 1021 l 403 1021 l 595 1244 l 605 1254 q 650 1276 627 1274 q 687 1263 673 1278 q 701 1222 705 1243 q 674 1178 698 1200 l 664 1170 l 455 1021 l 455 1021 l 403 1021 m 627 1021 l 627 1021 l 819 1244 l 829 1254 q 874 1276 851 1274 q 911 1263 897 1278 q 926 1228 925 1246 l 925 1221 q 898 1178 922 1200 l 888 1170 l 679 1021 l 679 1021 l 627 1021 z "},"ű":{"ha":838,"x_min":25,"x_max":806,"o":"m 254 637 l 254 222 q 288 93 254 130 q 406 56 321 56 q 524 113 470 56 q 569 174 550 139 q 578 197 575 184 q 582 222 582 210 l 582 448 q 572 537 582 519 q 524 555 563 555 l 469 555 l 469 593 q 578 615 532 604 q 685 650 623 627 l 698 638 l 698 637 l 698 144 q 707 61 698 78 q 753 41 716 43 l 806 37 l 806 -4 q 691 0 739 0 q 575 -4 642 0 q 581 61 578 33 l 583 121 l 583 121 l 583 121 q 451 5 482 26 q 329 -28 405 -28 q 183 19 228 -28 q 138 172 138 66 l 138 448 q 129 537 138 519 q 80 555 119 555 l 25 555 l 25 593 q 134 615 89 604 q 241 650 180 627 l 254 638 l 254 637 m 264 729 l 264 729 l 456 951 l 467 962 q 512 984 489 982 q 549 970 534 986 q 563 929 566 951 q 536 886 559 908 l 526 878 l 317 729 l 317 729 l 264 729 m 488 729 l 488 729 l 680 951 l 690 962 q 735 984 713 982 q 772 970 758 986 q 787 936 787 954 l 787 929 q 760 886 783 908 l 749 878 l 541 729 l 541 729 l 488 729 z "},"Ų":{"ha":1080,"x_min":17,"x_max":1054,"o":"m 923 375 q 828 72 924 173 q 539 -28 732 -28 q 245 48 335 -28 q 155 298 155 125 l 155 789 q 143 892 155 871 q 83 916 131 913 l 17 920 l 17 961 q 220 957 134 957 q 424 961 305 957 l 424 920 l 357 916 q 298 892 310 913 q 286 789 286 871 l 286 311 q 351 116 286 178 q 555 55 416 55 q 786 132 713 55 q 859 378 859 210 l 859 789 q 846 892 859 871 q 781 916 833 913 l 707 920 l 707 961 q 880 957 808 957 q 1054 961 954 957 l 1054 920 l 990 916 q 934 881 945 913 q 923 724 923 850 l 923 375 m 595 -111 q 615 -50 595 -80 q 665 0 634 -19 l 716 0 q 677 -42 693 -16 q 661 -88 661 -68 q 677 -128 661 -111 q 718 -144 694 -144 q 771 -131 744 -144 q 819 -94 798 -118 l 842 -123 q 762 -181 804 -160 q 684 -201 720 -201 q 621 -175 647 -201 q 595 -111 595 -149 z "},"ų":{"ha":838,"x_min":25,"x_max":806,"o":"m 254 637 l 254 222 q 288 93 254 130 q 406 56 321 56 q 524 113 470 56 q 569 174 550 139 q 578 197 575 184 q 582 222 582 210 l 582 448 q 572 537 582 519 q 524 555 563 555 l 469 555 l 469 593 q 578 615 532 604 q 685 650 623 627 l 698 638 l 698 637 l 698 144 q 707 61 698 78 q 753 41 716 43 l 806 37 l 806 -4 q 691 0 739 0 q 575 -4 642 0 q 581 61 578 33 l 583 121 l 583 121 l 583 121 q 451 5 482 26 q 329 -28 405 -28 q 183 19 228 -28 q 138 172 138 66 l 138 448 q 129 537 138 519 q 80 555 119 555 l 25 555 l 25 593 q 134 615 89 604 q 241 650 180 627 l 254 638 l 254 637 m 508 -111 q 527 -50 508 -80 q 578 0 547 -19 l 629 0 q 589 -42 606 -16 q 573 -88 573 -68 q 590 -128 573 -111 q 630 -144 607 -144 q 683 -131 656 -144 q 732 -94 710 -118 l 754 -123 q 674 -181 716 -160 q 597 -201 633 -201 q 534 -175 559 -201 q 508 -111 508 -149 z "},"Ÿ":{"ha":926,"x_min":12,"x_max":911,"o":"m 416 353 q 412 397 416 385 q 393 437 409 410 l 270 654 l 250 688 q 130 854 174 810 q 31 902 85 899 l 12 903 l 12 945 l 92 960 l 172 975 q 230 941 199 975 q 309 827 261 908 l 376 710 q 503 475 431 611 l 503 475 l 634 680 q 799 964 707 797 l 799 964 l 854 964 l 911 964 l 911 947 l 911 943 q 891 920 905 936 q 861 882 878 903 q 698 664 765 762 q 598 509 651 595 q 557 423 568 458 q 547 332 547 388 l 547 168 q 559 64 547 85 q 618 41 571 43 l 685 37 l 685 -4 q 482 0 568 0 q 278 -4 397 0 l 278 37 l 345 41 q 404 64 392 43 q 416 168 416 85 l 416 353 m 370 1202 q 419 1182 399 1202 q 439 1133 439 1162 q 419 1084 439 1104 q 370 1064 399 1064 q 321 1084 341 1064 q 301 1133 301 1104 q 321 1182 301 1162 q 370 1202 341 1202 m 647 1202 q 696 1182 676 1202 q 716 1133 716 1162 q 696 1084 716 1104 q 647 1064 676 1064 q 598 1084 618 1064 q 578 1133 578 1104 q 598 1182 578 1162 q 647 1202 618 1202 z "},"Ź":{"ha":926,"x_min":21,"x_max":886,"o":"m 21 32 l 697 900 l 697 900 l 393 900 q 213 890 252 900 q 170 842 174 880 l 159 735 l 112 735 q 117 848 117 800 q 111 962 117 896 l 111 962 q 289 958 143 960 q 615 957 435 957 l 615 957 q 774 958 696 957 q 884 962 852 960 l 884 943 l 884 925 l 211 60 l 211 60 l 686 60 q 806 91 781 60 q 838 239 832 121 l 886 239 q 875 118 877 170 q 876 -5 873 66 l 876 -5 q 673 -1 843 -3 q 290 0 503 0 l 290 0 q 132 -1 210 0 q 21 -5 54 -3 l 21 14 l 21 32 m 387 1021 l 387 1021 l 597 1234 l 608 1243 q 652 1262 630 1261 q 688 1246 674 1263 q 700 1215 700 1231 l 699 1206 q 670 1166 694 1185 l 661 1159 l 443 1021 l 443 1021 l 387 1021 z "},"ź":{"ha":694,"x_min":22,"x_max":647,"o":"m 22 28 q 258 314 161 193 q 472 587 350 429 l 472 587 l 292 587 q 171 580 197 587 q 140 548 144 574 l 123 458 l 83 458 q 91 548 89 511 q 94 638 93 586 l 94 638 l 404 634 l 404 634 l 636 638 l 636 622 l 636 606 q 401 320 498 441 q 186 47 309 206 l 186 47 l 427 47 q 544 57 511 47 q 583 92 576 66 l 606 195 l 647 195 q 633 96 638 137 q 625 -4 629 54 l 625 -4 l 254 0 l 254 0 l 22 -4 l 22 12 l 22 28 m 270 729 l 270 729 l 481 942 l 491 951 q 535 969 513 968 q 571 954 557 970 q 583 923 583 939 l 582 913 q 553 873 578 893 l 544 867 l 326 729 l 326 729 l 270 729 z "},"Ż":{"ha":926,"x_min":21,"x_max":886,"o":"m 21 32 l 697 900 l 697 900 l 393 900 q 213 890 252 900 q 170 842 174 880 l 159 735 l 112 735 q 117 848 117 800 q 111 962 117 896 l 111 962 q 289 958 143 960 q 615 957 435 957 l 615 957 q 774 958 696 957 q 884 962 852 960 l 884 943 l 884 925 l 211 60 l 211 60 l 686 60 q 806 91 781 60 q 838 239 832 121 l 886 239 q 875 118 877 170 q 876 -5 873 66 l 876 -5 q 673 -1 843 -3 q 290 0 503 0 l 290 0 q 132 -1 210 0 q 21 -5 54 -3 l 21 14 l 21 32 m 498 1203 q 547 1183 527 1203 q 568 1134 568 1163 q 547 1085 568 1105 q 498 1065 527 1065 q 448 1085 469 1065 q 428 1134 428 1105 q 448 1183 428 1163 q 498 1203 469 1203 z "},"ż":{"ha":694,"x_min":22,"x_max":647,"o":"m 22 28 q 258 314 161 193 q 472 587 350 429 l 472 587 l 292 587 q 171 580 197 587 q 140 548 144 574 l 123 458 l 83 458 q 91 548 89 511 q 94 638 93 586 l 94 638 l 404 634 l 404 634 l 636 638 l 636 622 l 636 606 q 401 320 498 441 q 186 47 309 206 l 186 47 l 427 47 q 544 57 511 47 q 583 92 576 66 l 606 195 l 647 195 q 633 96 638 137 q 625 -4 629 54 l 625 -4 l 254 0 l 254 0 l 22 -4 l 22 12 l 22 28 m 365 911 q 414 891 394 911 q 435 842 435 871 q 414 792 435 812 q 365 772 394 772 q 315 792 336 772 q 295 842 295 812 q 315 891 295 871 q 365 911 336 911 z "},"Ž":{"ha":926,"x_min":21,"x_max":886,"o":"m 21 32 l 697 900 l 697 900 l 393 900 q 213 890 252 900 q 170 842 174 880 l 159 735 l 112 735 q 117 848 117 800 q 111 962 117 896 l 111 962 q 289 958 143 960 q 615 957 435 957 l 615 957 q 774 958 696 957 q 884 962 852 960 l 884 943 l 884 925 l 211 60 l 211 60 l 686 60 q 806 91 781 60 q 838 239 832 121 l 886 239 q 875 118 877 170 q 876 -5 873 66 l 876 -5 q 673 -1 843 -3 q 290 0 503 0 l 290 0 q 132 -1 210 0 q 21 -5 54 -3 l 21 14 l 21 32 m 438 1027 l 264 1259 l 313 1259 l 481 1115 l 481 1115 l 648 1259 l 697 1259 l 524 1027 l 481 1027 l 438 1027 z "},"ž":{"ha":694,"x_min":22,"x_max":647,"o":"m 22 28 q 258 314 161 193 q 472 587 350 429 l 472 587 l 292 587 q 171 580 197 587 q 140 548 144 574 l 123 458 l 83 458 q 91 548 89 511 q 94 638 93 586 l 94 638 l 404 634 l 404 634 l 636 638 l 636 622 l 636 606 q 401 320 498 441 q 186 47 309 206 l 186 47 l 427 47 q 544 57 511 47 q 583 92 576 66 l 606 195 l 647 195 q 633 96 638 137 q 625 -4 629 54 l 625 -4 l 254 0 l 254 0 l 22 -4 l 22 12 l 22 28 m 309 734 l 136 966 l 184 966 l 352 823 l 352 823 l 519 966 l 568 966 l 395 734 l 352 734 l 309 734 z "},"ƒ":{"ha":694,"x_min":0,"x_max":657,"o":"m 433 507 l 433 507 l 341 55 q 217 -255 303 -146 q 12 -363 132 -363 l 0 -363 q 13 -302 8 -328 q 20 -241 18 -277 l 37 -231 q 62 -251 45 -243 q 98 -258 78 -258 q 163 -214 138 -258 q 208 -62 188 -170 l 307 505 l 307 505 l 162 496 l 178 571 q 237 569 183 570 l 321 568 l 321 568 q 452 868 372 766 q 657 979 538 979 q 653 976 654 979 q 640 913 644 940 q 635 850 636 887 l 621 842 q 586 867 604 859 q 551 875 569 875 q 495 828 512 875 q 446 569 480 783 l 446 569 l 587 570 l 575 497 q 507 505 560 502 l 433 507 z "},"ˆ":{"ha":463,"x_min":16,"x_max":448,"o":"m 275 966 l 448 734 l 399 734 l 232 878 l 232 878 l 64 734 l 16 734 l 189 966 l 232 966 l 275 966 z "},"ˇ":{"ha":463,"x_min":16,"x_max":448,"o":"m 189 734 l 16 966 l 64 966 l 232 823 l 232 823 l 399 966 l 448 966 l 275 734 l 232 734 l 189 734 z "},"ˉ":{"ha":463,"x_min":24,"x_max":438,"o":"m 24 842 l 438 842 l 438 765 l 24 765 l 24 842 z "},"˘":{"ha":463,"x_min":24,"x_max":416,"o":"m 220 729 q 78 790 132 729 q 24 948 23 851 l 66 948 q 111 853 64 895 q 220 812 157 812 q 330 853 283 812 q 374 948 377 895 l 416 948 q 363 790 418 851 q 220 729 309 729 z "},"˙":{"ha":347,"x_min":104,"x_max":244,"o":"m 174 911 q 224 891 203 911 q 244 842 244 871 q 224 792 244 812 q 174 772 203 772 q 125 792 145 772 q 104 842 104 812 q 125 891 104 871 q 174 911 145 911 z "},"˚":{"ha":463,"x_min":93,"x_max":371,"o":"m 232 715 q 133 756 174 715 q 93 854 93 796 q 133 953 93 913 q 232 994 174 994 q 331 953 290 994 q 371 854 371 913 q 331 756 371 796 q 232 715 290 715 l 232 715 m 232 765 q 293 791 268 765 q 318 854 318 817 q 293 918 318 892 q 232 944 268 944 q 171 918 196 944 q 146 854 146 892 q 171 791 146 817 q 232 765 196 765 l 232 765 z "},"˛":{"ha":435,"x_min":94,"x_max":340,"o":"m 94 -111 q 114 -50 94 -80 q 164 0 133 -19 l 215 0 q 176 -42 192 -16 q 159 -88 159 -68 q 176 -128 159 -111 q 216 -144 193 -144 q 270 -131 243 -144 q 318 -94 296 -118 l 340 -123 q 261 -181 302 -160 q 183 -201 219 -201 q 120 -175 146 -201 q 94 -111 94 -149 z "},"˜":{"ha":463,"x_min":3,"x_max":461,"o":"m 3 758 q 54 860 14 823 q 154 897 94 897 q 193 890 172 897 q 252 866 214 883 q 312 841 292 848 q 343 834 332 834 q 388 852 368 834 q 421 903 408 869 l 461 903 q 414 801 458 845 q 315 758 370 758 q 266 763 288 758 q 216 785 244 769 q 155 813 177 805 q 117 821 134 821 q 73 803 94 821 q 43 758 53 786 l 3 758 z "},"˝":{"ha":528,"x_min":4,"x_max":527,"o":"m 4 729 l 4 729 l 196 951 l 206 962 q 251 984 229 982 q 288 970 274 986 q 302 929 306 951 q 275 886 299 908 l 265 878 l 56 729 l 56 729 l 4 729 m 228 729 l 228 729 l 420 951 l 430 962 q 475 984 452 982 q 512 970 498 986 q 527 936 526 954 l 526 929 q 499 886 523 908 l 489 878 l 280 729 l 280 729 l 228 729 z "},"π":{"ha":845,"x_min":76,"x_max":806,"o":"m 76 469 q 192 614 138 578 q 348 650 247 650 l 577 651 q 707 653 638 651 q 806 657 775 654 l 785 546 l 581 546 q 562 325 559 430 q 591 98 564 220 q 595 7 606 31 q 543 -17 585 -17 q 476 23 499 -17 q 454 140 454 63 q 469 298 454 204 q 522 546 485 391 l 422 546 l 343 104 q 313 8 331 33 q 254 -17 294 -17 q 202 14 210 -17 q 222 125 195 44 l 365 546 l 301 546 q 213 525 250 546 q 117 442 175 503 l 76 469 z "},"–":{"ha":694,"x_min":0,"x_max":694,"o":"m 0 385 l 694 385 l 694 304 l 0 304 l 0 385 z "},"—":{"ha":1389,"x_min":0,"x_max":1389,"o":"m 0 385 l 1389 385 l 1389 304 l 0 304 l 0 385 z "},"‘":{"ha":386,"x_min":62,"x_max":321,"o":"m 321 970 q 247 825 273 890 q 207 670 222 763 l 77 623 l 62 643 q 127 781 94 724 q 257 968 176 863 l 311 987 l 321 970 z "},"’":{"ha":386,"x_min":62,"x_max":321,"o":"m 62 638 q 136 782 111 719 q 177 938 161 846 l 307 985 l 321 965 q 256 827 290 884 q 125 640 208 745 l 72 621 l 62 638 z "},"‚":{"ha":386,"x_min":31,"x_max":290,"o":"m 31 -195 q 105 -52 79 -116 q 145 104 130 12 l 275 151 l 290 132 q 224 -7 258 50 q 95 -194 176 -89 l 41 -213 l 31 -195 z "},"“":{"ha":694,"x_min":71,"x_max":619,"o":"m 330 970 q 255 825 281 889 q 215 670 230 763 l 85 623 l 71 643 q 136 781 102 725 q 265 968 184 863 l 319 987 l 330 970 m 619 970 q 545 825 570 889 q 505 670 519 763 l 374 623 l 360 643 q 425 781 392 725 q 555 968 473 863 l 609 987 l 619 970 z "},"”":{"ha":694,"x_min":71,"x_max":619,"o":"m 71 638 q 144 783 118 720 q 185 938 170 846 l 315 985 l 330 965 q 264 827 298 884 q 134 640 216 745 l 80 621 l 71 638 m 360 638 q 433 783 408 720 q 475 938 459 846 l 605 985 l 619 965 q 554 827 587 884 q 423 640 506 745 l 370 621 l 360 638 z "},"„":{"ha":694,"x_min":71,"x_max":619,"o":"m 71 -195 q 145 -52 119 -115 q 185 104 170 12 l 315 151 l 330 132 q 264 -7 298 50 q 135 -194 216 -89 l 81 -213 l 71 -195 m 360 -195 q 434 -52 409 -115 q 475 104 460 12 l 605 151 l 619 132 q 554 -7 587 50 q 425 -194 506 -89 l 370 -213 l 360 -195 z "},"†":{"ha":694,"x_min":47,"x_max":647,"o":"m 47 646 q 293 637 186 640 l 293 637 l 291 835 q 286 915 290 877 q 277 966 281 954 l 418 966 q 409 915 413 954 q 404 835 405 877 l 401 637 l 401 637 q 647 646 509 640 l 647 541 q 401 550 509 548 l 401 550 l 400 481 q 404 127 400 327 q 409 46 405 85 q 418 -5 413 8 l 277 -5 q 286 46 281 8 q 291 127 290 85 q 294 480 294 326 l 294 550 l 294 550 q 47 541 185 548 l 47 646 z "},"‡":{"ha":694,"x_min":47,"x_max":647,"o":"m 285 311 q 292 469 290 402 l 296 587 l 296 587 l 197 583 q 47 574 134 580 l 47 682 q 197 673 134 676 l 296 670 l 296 670 l 292 797 q 280 966 288 868 l 414 966 q 402 798 406 869 l 399 670 l 399 670 l 497 673 q 647 682 560 676 l 647 574 q 497 583 560 580 l 399 586 l 399 586 l 402 469 q 410 311 405 402 q 402 153 405 219 l 399 35 l 399 35 l 497 39 q 647 47 560 41 l 647 -61 q 497 -52 560 -55 l 398 -49 l 398 -49 l 403 -176 q 414 -345 406 -247 l 281 -345 q 292 -176 289 -248 l 296 -49 l 296 -49 l 197 -52 q 47 -60 134 -55 l 47 47 q 197 39 134 41 l 296 35 l 296 35 l 292 153 q 285 311 290 219 z "},"•":{"ha":842,"x_min":182,"x_max":659,"o":"m 420 718 q 590 648 521 718 q 659 478 659 578 q 590 309 659 378 q 420 239 521 239 q 251 309 320 239 q 182 478 182 378 q 251 648 182 578 q 420 718 320 718 z "},"…":{"ha":1389,"x_min":151,"x_max":1238,"o":"m 232 155 q 289 131 266 155 q 313 74 313 108 q 289 17 313 40 q 232 -7 266 -7 q 175 17 198 -7 q 151 74 151 40 q 175 131 151 108 q 232 155 198 155 m 694 155 q 752 131 728 155 q 775 74 775 108 q 752 17 775 40 q 694 -7 728 -7 q 637 17 661 -7 q 614 74 614 40 q 637 131 614 108 q 694 155 661 155 m 1157 155 q 1214 131 1191 155 q 1238 74 1238 108 q 1214 17 1238 40 q 1157 -7 1191 -7 q 1100 17 1123 -7 q 1076 74 1076 40 q 1100 131 1076 108 q 1157 155 1123 155 z "},"‰":{"ha":1589,"x_min":171,"x_max":1420,"o":"m 365 528 q 220 585 269 528 q 171 753 171 642 q 230 895 171 833 q 365 957 289 957 q 504 899 449 957 q 559 753 559 841 q 504 592 559 656 q 365 528 449 528 l 365 528 m 365 923 q 287 880 313 923 q 261 751 261 838 q 285 605 261 648 q 365 562 309 562 q 441 613 413 562 q 469 751 469 664 q 443 880 469 838 q 365 923 417 923 l 365 923 m 281 -26 l 821 985 l 879 985 l 339 -26 l 281 -26 m 780 -1 q 635 56 684 -1 q 586 223 586 113 q 645 365 586 303 q 780 427 704 427 q 919 369 864 427 q 974 223 974 311 q 919 62 974 126 q 780 -1 864 -1 l 780 -1 m 780 393 q 702 351 728 393 q 676 222 676 308 q 700 76 676 119 q 780 33 724 33 q 856 83 828 33 q 884 222 884 134 q 858 351 884 308 q 780 393 832 393 l 780 393 m 1226 -1 q 1081 56 1131 -1 q 1032 223 1032 113 q 1091 365 1032 303 q 1226 427 1150 427 q 1365 369 1310 427 q 1420 223 1420 311 q 1365 62 1420 126 q 1226 -1 1310 -1 l 1226 -1 m 1226 393 q 1148 351 1174 393 q 1122 222 1122 308 q 1146 76 1122 119 q 1226 33 1170 33 q 1302 83 1274 33 q 1330 222 1330 134 q 1304 351 1330 308 q 1226 393 1278 393 l 1226 393 z "},"‹":{"ha":460,"x_min":92,"x_max":368,"o":"m 368 577 l 204 345 l 204 345 l 368 119 l 336 98 l 92 334 l 92 344 l 92 354 l 338 595 l 368 577 z "},"›":{"ha":460,"x_min":92,"x_max":368,"o":"m 92 115 l 256 347 l 256 347 l 92 572 l 124 593 l 368 358 l 368 348 l 368 338 l 121 97 l 92 115 z "},"⁄":{"ha":232,"x_min":-230,"x_max":467,"o":"m 467 957 l -159 3 l -230 3 l 397 957 l 467 957 z "},"⁴":{"ha":451,"x_min":3,"x_max":433,"o":"m 253 531 l 9 531 l 6 542 l 3 553 l 256 935 l 332 961 l 345 957 q 339 882 341 929 q 336 793 336 834 l 336 594 l 336 594 l 357 594 q 407 595 385 594 q 433 597 429 596 l 433 528 q 407 530 429 529 q 357 531 385 531 l 336 531 l 336 531 l 336 527 q 346 434 336 452 q 392 416 355 416 l 429 416 l 429 378 q 285 381 345 381 q 141 378 224 381 l 141 416 l 186 416 q 242 434 231 416 q 253 527 253 452 l 253 531 l 253 531 m 253 594 l 253 594 l 253 864 l 253 864 l 253 864 l 173 746 q 75 594 130 681 l 75 594 l 253 594 z "},"€":{"ha":694,"x_min":0,"x_max":664,"o":"m 644 105 l 614 35 q 528 -11 580 5 q 418 -28 476 -28 q 169 102 261 -28 q 81 370 95 206 l 0 370 l 15 428 l 77 428 l 77 452 q 80 516 77 486 l 0 516 l 15 574 l 86 574 q 188 814 110 713 q 466 958 298 958 q 568 944 512 958 q 664 909 624 930 q 646 813 652 854 q 640 716 642 772 l 597 716 l 597 716 l 597 804 q 592 837 597 825 q 572 859 587 848 q 531 883 553 874 q 450 899 492 899 q 270 792 333 899 q 211 574 222 711 l 524 574 l 509 516 l 208 516 l 208 484 l 208 428 l 486 428 l 471 370 l 213 370 q 273 156 226 236 q 465 45 338 45 q 552 63 509 45 q 631 117 595 82 l 644 105 z "},"™":{"ha":1360,"x_min":56,"x_max":1304,"o":"m 251 498 l 251 924 l 251 924 l 203 924 q 118 910 142 924 q 90 856 94 896 l 87 823 l 56 823 l 56 890 l 56 957 l 56 957 l 290 957 l 290 957 l 524 957 l 524 957 l 524 890 l 524 823 l 494 823 l 491 856 q 463 910 487 896 q 378 924 439 924 l 329 924 l 329 924 l 329 498 q 336 438 329 450 q 374 425 344 426 l 416 422 l 416 395 l 291 395 l 165 395 l 165 422 l 207 424 q 244 437 237 425 q 251 498 251 450 m 722 490 q 731 439 722 450 q 773 425 739 429 l 789 422 l 789 395 l 705 395 l 621 395 l 621 422 l 636 425 q 678 439 670 429 q 686 490 686 450 l 686 855 q 682 916 686 904 q 662 929 678 928 l 631 931 l 631 958 l 707 958 l 783 958 q 801 909 795 925 q 823 858 808 892 l 964 527 l 964 527 l 964 527 l 1105 858 q 1126 908 1120 892 q 1145 958 1133 925 l 1222 958 l 1300 958 l 1300 931 l 1261 929 q 1237 918 1242 928 q 1232 863 1232 907 l 1232 490 q 1240 437 1232 448 q 1280 425 1248 427 l 1304 422 l 1304 395 l 1195 395 l 1086 395 l 1086 422 l 1110 425 q 1150 437 1142 427 q 1158 490 1158 448 l 1158 901 l 1158 901 l 1006 545 q 974 467 991 511 q 946 395 956 424 l 940 395 l 934 395 q 906 467 924 424 q 874 545 889 511 l 722 900 l 722 900 l 722 490 z "},"Ω":{"ha":845,"x_min":68,"x_max":819,"o":"m 406 0 l 126 0 l 76 278 l 126 286 q 168 170 149 193 q 245 146 187 148 l 299 146 q 238 255 277 187 q 164 380 199 323 q 94 523 120 452 q 68 646 68 595 q 170 872 68 787 q 444 960 271 958 q 713 873 607 960 q 819 650 819 785 q 794 525 819 597 q 724 380 768 453 q 659 270 698 338 q 589 146 620 202 l 642 146 q 718 175 693 145 q 762 286 743 204 l 811 278 l 761 0 l 481 0 q 569 245 564 229 q 590 311 574 260 q 638 498 621 411 q 654 646 654 585 q 596 826 654 755 q 444 900 537 897 q 292 827 350 897 q 233 648 233 758 q 252 497 233 595 q 298 311 271 399 q 345 169 314 258 q 406 0 376 79 z "},"∂":{"ha":692,"x_min":55,"x_max":635,"o":"m 55 261 q 150 544 55 420 q 365 667 244 667 q 430 656 397 667 q 501 623 463 646 q 490 827 515 751 q 407 903 465 903 q 366 884 388 903 q 331 836 344 865 q 297 780 311 793 q 256 767 283 767 q 198 800 216 767 q 199 872 180 833 q 270 943 221 914 q 370 972 319 972 q 569 867 503 972 q 635 552 635 762 q 536 139 635 300 q 283 -22 437 -22 q 119 58 183 -22 q 55 261 55 137 m 184 220 q 214 89 184 142 q 287 35 243 35 q 412 156 360 35 q 463 448 463 277 q 437 570 463 530 q 357 611 410 611 q 234 497 285 611 q 184 220 184 384 z "},"∆":{"ha":922,"x_min":25,"x_max":897,"o":"m 502 943 l 897 0 l 25 0 l 502 943 m 452 730 l 150 132 l 692 132 l 452 730 z "},"∏":{"ha":1383,"x_min":134,"x_max":1249,"o":"m 134 -214 l 134 -170 q 268 -110 236 -158 q 299 87 299 -61 l 299 698 q 270 893 301 845 q 134 954 238 942 l 134 998 l 1249 998 l 1249 954 q 1115 893 1147 942 q 1084 698 1084 845 l 1084 87 q 1115 -110 1084 -61 q 1249 -170 1147 -158 l 1249 -214 l 772 -214 l 772 -170 q 909 -111 878 -158 q 937 87 939 -63 l 937 943 l 446 943 l 446 87 q 477 -110 446 -61 q 611 -170 509 -158 l 611 -214 l 134 -214 z "},"∑":{"ha":1383,"x_min":282,"x_max":1092,"o":"m 282 -214 l 615 355 l 288 998 l 1047 998 l 1078 749 l 1031 740 l 1019 766 q 923 902 983 863 q 753 942 863 942 l 479 942 l 730 440 l 425 -73 l 780 -73 q 928 -38 873 -73 q 1029 84 983 -3 l 1044 112 l 1092 98 l 1013 -214 l 282 -214 z "},"−":{"ha":842,"x_min":79,"x_max":782,"o":"m 79 401 l 782 401 l 782 326 l 79 326 l 79 401 z "},"∙":{"ha":347,"x_min":93,"x_max":254,"o":"m 174 557 q 231 533 208 557 q 254 476 254 510 q 231 419 254 442 q 174 395 208 395 q 116 419 140 395 q 93 476 93 442 q 116 533 93 510 q 174 557 140 557 z "},"√":{"ha":999,"x_min":38,"x_max":1168,"o":"m 38 297 l 240 429 l 583 -80 l 909 1037 l 1168 1037 l 1168 979 l 977 979 l 602 -254 l 552 -254 l 165 303 l 67 232 l 38 297 z "},"∞":{"ha":1383,"x_min":192,"x_max":1190,"o":"m 192 386 q 271 591 192 507 q 465 674 350 674 q 607 633 547 674 q 726 496 667 592 q 833 606 777 570 q 954 643 890 643 q 1123 571 1057 643 q 1190 387 1190 500 q 1124 205 1190 277 q 959 132 1058 132 q 831 171 888 132 q 739 280 774 209 q 613 138 667 174 q 473 101 558 101 q 273 184 355 101 q 192 386 192 267 m 267 385 q 314 262 267 312 q 429 212 361 212 q 560 261 503 212 q 668 418 617 311 q 575 529 625 495 q 452 564 524 564 q 321 512 374 564 q 267 385 267 460 m 1114 386 q 1074 492 1114 452 q 967 532 1034 532 q 868 498 910 532 q 785 384 826 464 q 861 279 813 316 q 969 243 909 243 q 1075 281 1036 243 q 1114 386 1114 320 z "},"∫":{"ha":1383,"x_min":510,"x_max":869,"o":"m 510 -216 q 529 -167 510 -188 q 573 -146 547 -146 q 614 -164 597 -146 q 631 -205 631 -181 l 625 -246 q 629 -257 624 -252 q 642 -261 633 -261 q 689 -202 677 -262 q 684 -52 701 -142 q 637 237 659 78 q 606 496 614 395 q 622 925 584 786 q 762 1064 660 1064 q 838 1036 806 1064 q 869 966 869 1007 q 853 913 869 931 q 805 896 837 896 q 762 909 777 896 q 748 948 748 922 q 759 997 748 955 q 755 1006 760 1002 q 741 1010 750 1010 q 687 922 689 1010 q 731 589 685 833 q 777 181 768 396 q 764 -152 787 -33 q 714 -274 749 -233 q 625 -315 679 -315 q 543 -286 576 -315 q 510 -216 510 -258 z "},"≈":{"ha":1383,"x_min":281,"x_max":1139,"o":"m 281 186 q 387 301 319 254 q 515 349 455 349 q 616 334 552 349 q 763 293 681 319 q 862 268 809 278 q 946 258 916 258 q 1036 282 987 258 q 1114 340 1084 306 l 1139 326 q 1047 202 1107 248 q 918 156 987 156 q 847 165 897 156 q 745 189 797 175 q 573 233 635 219 q 484 247 510 247 q 388 223 441 247 q 302 165 335 199 l 281 186 m 281 425 q 387 539 319 492 q 515 587 455 587 q 616 572 552 587 q 763 531 681 557 q 862 506 809 516 q 946 496 916 496 q 1036 520 987 496 q 1114 578 1084 544 l 1139 564 q 1047 440 1107 486 q 918 394 987 394 q 847 404 897 394 q 745 427 797 413 q 573 471 635 457 q 484 485 510 485 q 388 461 441 485 q 302 403 335 437 l 281 425 z "},"≠":{"ha":1383,"x_min":276,"x_max":1137,"o":"m 278 -63 l 494 189 l 276 189 l 276 281 l 572 281 l 732 468 l 276 468 l 276 559 l 810 559 l 1025 808 l 1137 808 l 923 559 l 1135 559 l 1135 468 l 845 468 l 685 281 l 1135 281 l 1135 189 l 606 189 l 391 -63 l 278 -63 z "},"≤":{"ha":1383,"x_min":283,"x_max":1141,"o":"m 1141 838 l 1141 746 l 420 468 l 1141 258 l 1141 167 l 283 422 l 283 514 l 1141 838 m 283 92 l 1141 92 l 1141 0 l 283 0 l 283 92 z "},"≥":{"ha":1383,"x_min":283,"x_max":1141,"o":"m 283 838 l 1141 514 l 1141 422 l 283 167 l 283 258 l 1004 468 l 283 746 l 283 838 m 283 92 l 1141 92 l 1141 0 l 283 0 l 283 92 z "},"◊":{"ha":794,"x_min":85,"x_max":708,"o":"m 359 965 l 434 965 l 708 482 l 434 0 l 359 0 l 85 482 l 359 965 m 397 898 l 160 482 l 397 65 l 633 482 l 397 898 z "},"":{"ha":347,"x_min":104,"x_max":244,"o":"m 174 1203 q 224 1183 203 1203 q 244 1134 244 1163 q 224 1085 244 1105 q 174 1065 203 1065 q 125 1085 145 1065 q 104 1134 104 1105 q 125 1183 104 1163 q 174 1203 145 1203 z "},"":{"ha":463,"x_min":24,"x_max":416,"o":"m 220 1021 q 78 1082 132 1021 q 24 1240 23 1143 l 66 1240 q 111 1146 64 1187 q 220 1105 157 1105 q 330 1146 283 1105 q 374 1240 377 1187 l 416 1240 q 363 1082 418 1143 q 220 1021 309 1021 z "},"":{"ha":463,"x_min":24,"x_max":438,"o":"m 24 1134 l 438 1134 l 438 1057 l 24 1057 l 24 1134 z "},"":{"ha":528,"x_min":4,"x_max":527,"o":"m 4 1021 l 4 1021 l 196 1244 l 206 1254 q 251 1276 229 1274 q 288 1263 274 1278 q 302 1222 306 1243 q 275 1178 299 1200 l 265 1170 l 56 1021 l 56 1021 l 4 1021 m 228 1021 l 228 1021 l 420 1244 l 430 1254 q 475 1276 452 1274 q 512 1263 498 1278 q 527 1228 526 1246 l 526 1221 q 499 1178 523 1200 l 489 1170 l 280 1021 l 280 1021 l 228 1021 z "},"":{"ha":435,"x_min":94,"x_max":340,"o":"m 94 -111 q 114 -50 94 -80 q 164 0 133 -19 l 215 0 q 176 -42 192 -16 q 159 -88 159 -68 q 176 -128 159 -111 q 216 -144 193 -144 q 270 -131 243 -144 q 318 -94 296 -118 l 340 -123 q 261 -181 302 -160 q 183 -201 219 -201 q 120 -175 146 -201 q 94 -111 94 -149 z "},"":{"ha":463,"x_min":134,"x_max":422,"o":"m 302 -14 l 267 -103 l 267 -103 q 308 -98 292 -98 q 391 -125 359 -98 q 422 -197 422 -153 q 376 -281 422 -250 q 252 -313 330 -313 q 199 -308 224 -313 q 134 -290 174 -303 l 154 -247 q 198 -258 176 -254 q 238 -262 221 -262 q 300 -248 281 -262 q 319 -199 319 -233 q 303 -163 319 -177 q 264 -149 288 -149 q 234 -151 250 -149 q 207 -158 219 -154 l 197 -150 l 255 -14 l 302 -14 z "},"":{"ha":463,"x_min":93,"x_max":371,"o":"m 232 1008 q 133 1048 174 1008 q 93 1147 93 1088 q 133 1245 93 1205 q 232 1286 174 1286 q 331 1245 290 1286 q 371 1147 371 1205 q 331 1048 371 1088 q 232 1008 290 1008 l 232 1008 m 232 1057 q 293 1083 268 1057 q 318 1147 318 1109 q 293 1210 318 1184 q 232 1236 268 1236 q 171 1210 196 1236 q 146 1147 146 1184 q 171 1083 146 1109 q 232 1057 196 1057 l 232 1057 z "},"":{"ha":463,"x_min":16,"x_max":448,"o":"m 189 1027 l 16 1259 l 64 1259 l 232 1115 l 232 1115 l 399 1259 l 448 1259 l 275 1027 l 232 1027 l 189 1027 z "},"":{"ha":463,"x_min":3,"x_max":461,"o":"m 3 1061 q 54 1163 14 1126 q 154 1200 94 1200 q 193 1193 172 1200 q 252 1169 214 1186 q 312 1144 292 1151 q 343 1137 332 1137 q 388 1155 368 1137 q 421 1206 408 1173 l 461 1206 q 414 1104 458 1148 q 315 1061 370 1061 q 266 1066 288 1061 q 216 1088 244 1072 q 155 1116 177 1108 q 117 1124 134 1124 q 73 1106 94 1124 q 43 1061 53 1089 l 3 1061 z "},"":{"ha":463,"x_min":24,"x_max":439,"o":"m 93 1202 q 142 1182 122 1202 q 162 1133 162 1162 q 142 1084 162 1104 q 93 1064 122 1064 q 44 1084 64 1064 q 24 1133 24 1104 q 44 1182 24 1162 q 93 1202 64 1202 m 370 1202 q 419 1182 399 1202 q 439 1133 439 1162 q 419 1084 439 1104 q 370 1064 399 1064 q 320 1084 340 1064 q 300 1133 300 1104 q 320 1182 300 1162 q 370 1202 340 1202 z "},"":{"ha":463,"x_min":16,"x_max":448,"o":"m 275 1259 l 448 1027 l 399 1027 l 232 1171 l 232 1171 l 64 1027 l 16 1027 l 189 1259 l 232 1259 l 275 1259 z "},"":{"ha":463,"x_min":43,"x_max":355,"o":"m 298 1022 l 298 1022 l 83 1159 l 73 1166 q 45 1205 50 1184 l 43 1218 q 52 1242 43 1231 q 89 1262 68 1262 q 134 1243 110 1263 l 142 1236 l 355 1021 l 355 1021 l 298 1022 z "},"":{"ha":463,"x_min":109,"x_max":422,"o":"m 109 1021 l 109 1021 l 319 1234 l 330 1243 q 374 1262 352 1261 q 410 1246 396 1263 q 422 1215 422 1231 l 420 1206 q 392 1166 416 1185 l 382 1159 l 165 1021 l 165 1021 l 109 1021 z "},"":{"ha":840,"x_min":32,"x_max":816,"o":"m 264 534 l 264 534 l 264 144 q 274 61 264 78 q 323 41 283 44 l 380 37 l 380 -4 q 205 0 279 0 q 32 -4 132 0 l 32 37 l 88 41 q 138 61 128 44 q 148 144 148 78 l 148 534 l 148 534 l 54 530 l 54 561 l 79 572 l 148 602 l 148 602 l 148 676 q 162 780 148 732 q 205 861 177 827 q 239 901 214 873 q 294 960 264 928 q 347 999 319 987 q 411 1011 375 1011 q 446 1006 426 1011 q 473 996 467 1001 l 473 996 l 473 888 l 457 881 q 412 909 438 899 q 359 920 387 920 q 285 883 307 920 q 264 758 264 846 l 264 603 l 264 603 l 434 609 l 425 534 l 355 534 l 264 534 m 584 144 l 584 448 q 574 537 584 519 q 526 555 565 555 l 471 555 l 471 593 q 580 615 534 604 q 687 650 625 627 l 700 638 l 700 637 l 700 144 q 710 61 700 78 q 760 41 720 44 l 816 37 l 816 -4 q 642 0 715 0 q 468 -4 568 0 l 468 37 l 524 41 q 574 61 564 44 q 584 144 584 78 m 648 952 q 703 930 680 952 q 725 875 725 907 q 703 821 725 843 q 648 798 680 798 q 594 821 616 798 q 572 875 572 843 q 594 930 572 907 q 648 952 616 952 z "},"":{"ha":844,"x_min":32,"x_max":820,"o":"m 264 534 l 264 534 l 264 144 q 274 61 264 78 q 323 41 283 44 l 380 37 l 380 -4 q 205 0 279 0 q 32 -4 132 0 l 32 37 l 88 41 q 138 61 128 44 q 148 144 148 78 l 148 534 l 146 534 l 51 530 l 51 561 l 76 572 l 146 602 l 148 602 l 148 676 q 162 779 148 732 q 205 861 177 826 q 243 905 218 878 q 293 960 268 933 q 346 999 318 987 q 409 1011 374 1011 q 451 1006 423 1011 q 494 996 478 1001 l 494 996 l 494 888 l 464 880 q 413 909 439 899 q 363 920 386 920 q 285 885 307 920 q 264 758 264 850 l 264 602 l 264 602 l 449 609 l 439 534 l 370 534 l 264 534 m 588 144 l 588 848 q 581 905 588 892 q 548 918 573 918 l 486 918 l 486 957 q 589 976 547 964 q 691 1008 633 986 l 704 997 l 704 996 l 704 144 q 714 61 704 78 q 764 41 724 43 l 820 37 l 820 -4 q 646 0 719 0 q 472 -4 572 0 l 472 37 l 528 41 q 578 61 568 44 q 588 144 588 78 z "},"ﬁ":{"ha":840,"x_min":32,"x_max":816,"o":"m 264 534 l 264 534 l 264 144 q 274 61 264 78 q 323 41 283 44 l 380 37 l 380 -4 q 205 0 279 0 q 32 -4 132 0 l 32 37 l 88 41 q 138 61 128 44 q 148 144 148 78 l 148 534 l 148 534 l 54 530 l 54 561 l 79 572 l 148 602 l 148 602 l 148 676 q 162 780 148 732 q 205 861 177 827 q 239 901 214 873 q 294 960 264 928 q 347 999 319 987 q 411 1011 375 1011 q 446 1006 426 1011 q 473 996 467 1001 l 473 996 l 473 888 l 457 881 q 412 909 438 899 q 359 920 387 920 q 285 883 307 920 q 264 758 264 846 l 264 603 l 264 603 l 434 609 l 425 534 l 355 534 l 264 534 m 584 144 l 584 448 q 574 537 584 519 q 526 555 565 555 l 471 555 l 471 593 q 580 615 534 604 q 687 650 625 627 l 700 638 l 700 637 l 700 144 q 710 61 700 78 q 760 41 720 44 l 816 37 l 816 -4 q 642 0 715 0 q 468 -4 568 0 l 468 37 l 524 41 q 574 61 564 44 q 584 144 584 78 m 648 952 q 703 930 680 952 q 725 875 725 907 q 703 821 725 843 q 648 798 680 798 q 594 821 616 798 q 572 875 572 843 q 594 930 572 907 q 648 952 616 952 z "},"ﬂ":{"ha":844,"x_min":32,"x_max":820,"o":"m 264 534 l 264 534 l 264 144 q 274 61 264 78 q 323 41 283 44 l 380 37 l 380 -4 q 205 0 279 0 q 32 -4 132 0 l 32 37 l 88 41 q 138 61 128 44 q 148 144 148 78 l 148 534 l 146 534 l 51 530 l 51 561 l 76 572 l 146 602 l 148 602 l 148 676 q 162 779 148 732 q 205 861 177 826 q 243 905 218 878 q 293 960 268 933 q 346 999 318 987 q 409 1011 374 1011 q 451 1006 423 1011 q 494 996 478 1001 l 494 996 l 494 888 l 464 880 q 413 909 439 899 q 363 920 386 920 q 285 885 307 920 q 264 758 264 850 l 264 602 l 264 602 l 449 609 l 439 534 l 370 534 l 264 534 m 588 144 l 588 848 q 581 905 588 892 q 548 918 573 918 l 486 918 l 486 957 q 589 976 547 964 q 691 1008 633 986 l 704 997 l 704 996 l 704 144 q 714 61 704 78 q 764 41 724 43 l 820 37 l 820 -4 q 646 0 719 0 q 472 -4 572 0 l 472 37 l 528 41 q 578 61 568 44 q 588 144 588 78 z "}}}
